if (_typeface_js && _typeface_js.loadFace) _typeface_js.loadFace({"glyphs":{"0":{"ha":824,"x_min":0,"x_max":0,"o":"m 738 472 b 413 961 738 769 628 961 b 86 472 201 961 86 769 b 413 -17 86 175 199 -17 b 738 472 622 -17 738 175 z m 189 472 b 413 874 189 718 263 874 b 636 472 564 874 636 721 b 413 72 636 228 561 72 b 189 472 258 72 189 224 z "},"1":{"ha":543,"x_min":0,"x_max":0,"o":"m 283 944 b 244 933 269 944 257 940 l 29 822 b 21 811 24 819 21 815 b 24 803 21 810 22 807 l 50 753 b 61 746 53 749 57 746 b 69 749 63 746 65 747 l 253 847 b 264 840 258 849 264 847 l 264 14 b 278 0 264 7 271 0 l 351 0 b 365 14 361 0 365 7 l 365 931 b 351 944 365 940 361 944 l 283 944 z "},"2":{"ha":738,"x_min":0,"x_max":0,"o":"m 82 14 b 100 0 86 4 89 0 l 646 0 b 663 14 657 0 661 4 l 672 76 b 658 92 674 86 669 92 l 232 92 b 214 99 222 92 214 93 b 238 126 214 104 221 111 b 594 521 426 297 535 410 b 639 689 624 578 639 633 b 328 961 639 874 511 961 b 124 926 261 961 183 947 b 114 913 117 924 114 919 l 114 908 l 126 847 b 138 836 128 840 132 836 l 144 838 b 328 869 207 858 268 869 b 535 685 451 869 535 813 b 85 103 529 536 442 418 b 71 81 74 96 71 90 l 71 75 l 82 14 z "},"3":{"ha":721,"x_min":0,"x_max":0,"o":"m 424 499 b 428 504 424 501 425 503 b 607 729 540 544 607 619 b 522 907 607 813 579 872 b 304 961 465 943 393 961 b 93 929 226 961 139 946 b 82 917 86 928 82 924 l 82 914 l 89 850 b 99 840 90 843 93 840 b 106 842 101 840 104 840 b 299 871 165 863 238 871 b 503 724 428 871 503 824 b 204 536 503 600 382 536 b 190 522 197 536 190 532 l 190 464 b 204 450 190 457 194 450 b 438 406 300 450 378 435 b 528 269 497 376 528 332 b 224 75 526 131 417 75 b 96 86 186 75 124 81 b 82 76 89 88 82 82 l 82 74 l 90 4 b 103 -10 90 -4 94 -8 b 225 -17 126 -14 186 -17 b 631 265 461 -17 631 72 b 429 492 631 394 550 465 b 424 499 425 493 424 494 z "},"4":{"ha":790,"x_min":0,"x_max":0,"o":"m 64 313 l 71 253 b 88 239 72 243 78 239 l 494 239 b 503 231 500 239 503 236 l 503 14 b 517 0 503 7 510 0 l 588 0 b 601 14 597 0 601 7 l 601 231 b 610 239 601 236 604 239 l 711 239 b 725 253 718 239 724 243 l 736 314 b 724 328 738 321 733 328 l 610 328 b 601 336 604 328 601 331 l 601 597 b 588 611 601 607 597 611 l 517 611 b 503 597 510 611 503 607 l 503 336 b 494 328 503 331 500 328 l 185 328 b 174 336 178 328 174 331 b 185 358 174 339 178 346 b 535 897 297 544 414 724 b 529 915 539 906 538 911 l 468 942 b 447 936 460 946 453 944 b 68 340 228 604 101 406 b 63 322 64 333 63 328 z "},"5":{"ha":739,"x_min":0,"x_max":0,"o":"m 240 843 b 254 854 242 853 244 854 l 600 854 b 615 865 610 854 614 858 l 624 931 b 613 944 625 940 619 944 l 171 944 b 151 928 158 944 153 940 l 107 488 b 119 469 106 475 110 469 l 125 469 b 260 479 168 476 213 479 b 546 290 449 479 546 418 b 200 75 546 147 431 75 b 99 83 171 75 126 78 b 85 69 89 85 85 79 l 92 1 b 106 -11 93 -6 96 -10 b 206 -17 126 -15 160 -17 b 649 294 436 -17 649 60 b 286 565 649 476 514 565 b 218 563 268 565 246 564 b 210 572 211 561 208 565 l 240 843 z "},"6":{"ha":821,"x_min":0,"x_max":0,"o":"m 213 529 b 585 882 272 668 396 786 b 592 892 589 885 592 888 b 589 899 592 894 590 897 l 542 953 b 522 954 536 958 529 958 b 83 331 253 813 83 593 b 415 -17 83 156 183 -17 b 733 299 608 -17 733 118 b 439 593 733 468 621 593 b 217 506 354 593 271 563 b 207 510 211 501 207 504 b 213 529 207 514 208 519 z m 422 508 b 633 294 544 508 633 429 b 415 69 633 169 550 69 b 189 308 261 69 189 186 b 422 508 189 424 297 508 z "},"7":{"ha":707,"x_min":0,"x_max":0,"o":"m 281 15 b 640 833 417 343 536 615 b 649 871 647 850 649 860 l 649 931 b 635 944 649 940 644 944 l 81 944 b 67 931 74 944 67 940 l 67 868 b 81 854 67 861 74 854 l 538 854 b 544 844 544 854 549 850 b 347 411 499 749 433 604 b 178 25 263 219 206 90 b 174 10 175 18 174 14 b 183 0 174 3 176 0 l 263 0 b 281 15 272 0 278 6 z "},"8":{"ha":792,"x_min":0,"x_max":0,"o":"m 674 728 b 397 961 674 883 546 961 b 122 724 249 961 122 875 b 279 503 122 618 179 554 b 288 493 285 500 288 497 b 281 486 288 490 285 488 b 88 231 164 429 88 353 b 390 -17 88 65 211 -17 b 704 236 571 -17 704 74 b 513 490 704 360 635 439 b 511 506 503 494 501 500 b 674 728 619 557 674 631 z m 572 726 b 415 538 572 642 511 578 b 393 538 408 533 403 533 b 225 724 281 582 225 635 b 396 879 225 817 292 879 b 572 726 506 879 572 821 z m 192 236 b 378 450 192 331 261 406 l 389 453 b 401 450 392 453 396 451 b 603 238 536 407 603 336 b 392 69 603 136 524 69 b 192 236 263 69 192 131 z "},"9":{"ha":821,"x_min":0,"x_max":0,"o":"m 604 415 b 232 63 544 276 421 158 b 225 53 228 61 225 57 b 228 46 225 50 226 47 l 275 -8 b 294 -10 281 -14 288 -14 b 733 614 564 132 733 351 b 401 961 733 789 633 961 b 83 646 208 961 83 826 b 378 351 83 476 196 351 b 600 439 463 351 546 382 b 610 435 606 443 610 440 b 604 415 610 431 608 425 z m 394 436 b 183 650 272 436 183 515 b 401 875 183 775 267 875 b 629 636 557 875 629 758 b 394 436 629 521 518 436 z "},"\u0000":{"ha":0,"x_min":0,"x_max":0,"o":""},"\r":{"ha":375,"x_min":0,"x_max":0,"o":""}," ":{"ha":375,"x_min":0,"x_max":0,"o":""},"A":{"ha":867,"x_min":0,"x_max":0,"o":"m 654 242 b 736 14 678 176 713 85 b 756 0 740 3 746 0 l 839 0 b 851 10 846 0 851 4 l 850 14 b 700 426 824 92 774 229 b 511 931 626 625 564 793 b 494 944 508 940 503 944 l 376 944 b 360 931 368 944 363 940 l 168 426 b 17 14 93 228 43 90 b 28 0 15 4 21 0 l 108 0 b 126 14 118 0 122 3 b 207 243 167 135 194 211 b 219 250 208 249 214 250 l 643 250 b 654 242 649 250 653 246 z m 618 350 b 613 342 619 344 618 342 l 247 342 b 242 350 243 342 240 344 l 339 619 b 425 849 382 738 411 814 b 438 849 426 856 436 854 b 540 569 464 781 497 688 b 618 350 583 451 610 378 z "},"Á":{"ha":867,"x_min":0,"x_max":0,"o":"m 654 242 b 736 14 678 176 713 85 b 756 0 740 3 746 0 l 839 0 b 851 10 846 0 851 4 l 850 14 b 700 426 824 92 774 229 b 511 931 626 625 564 793 b 494 944 508 940 503 944 l 376 944 b 360 931 368 944 363 940 l 168 426 b 17 14 93 228 43 90 b 28 0 15 4 21 0 l 108 0 b 126 14 118 0 122 3 b 207 243 167 135 194 211 b 219 250 208 249 214 250 l 643 250 b 654 242 649 250 653 246 z m 618 350 b 613 342 619 344 618 342 l 247 342 b 242 350 243 342 240 344 l 339 619 b 425 849 382 738 411 814 b 438 849 426 856 436 854 b 540 569 464 781 497 688 b 618 350 583 451 610 378 z m 375 1046 b 383 1031 369 1036 372 1031 l 444 1031 b 461 1039 450 1031 456 1033 l 628 1229 b 621 1246 635 1239 632 1246 l 525 1246 b 507 1236 518 1246 513 1242 z "},"Ă":{"ha":867,"x_min":0,"x_max":0,"o":"m 654 242 b 736 14 678 176 713 85 b 756 0 740 3 746 0 l 839 0 b 851 10 846 0 851 4 l 850 14 b 700 426 824 92 774 229 b 511 931 626 625 564 793 b 494 944 508 940 503 944 l 376 944 b 360 931 368 944 363 940 l 168 426 b 17 14 93 228 43 90 b 28 0 15 4 21 0 l 108 0 b 126 14 118 0 122 3 b 207 243 167 135 194 211 b 219 250 208 249 214 250 l 643 250 b 654 242 649 250 653 246 z m 618 350 b 613 342 619 344 618 342 l 247 342 b 242 350 243 342 240 344 l 339 619 b 425 849 382 738 411 814 b 438 849 426 856 436 854 b 540 569 464 781 497 688 b 618 350 583 451 610 378 z m 219 1228 b 433 1019 219 1093 293 1019 b 650 1228 574 1019 650 1094 b 638 1240 650 1236 646 1240 l 588 1240 b 575 1228 579 1240 575 1236 b 435 1099 575 1143 522 1099 b 294 1228 350 1099 294 1143 b 282 1240 294 1236 290 1240 l 232 1240 b 219 1228 225 1240 219 1235 z "},"Â":{"ha":867,"x_min":0,"x_max":0,"o":"m 654 242 b 736 14 678 176 713 85 b 756 0 740 3 746 0 l 839 0 b 851 10 846 0 851 4 l 850 14 b 700 426 824 92 774 229 b 511 931 626 625 564 793 b 494 944 508 940 503 944 l 376 944 b 360 931 368 944 363 940 l 168 426 b 17 14 93 228 43 90 b 28 0 15 4 21 0 l 108 0 b 126 14 118 0 122 3 b 207 243 167 135 194 211 b 219 250 208 249 214 250 l 643 250 b 654 242 649 250 653 246 z m 618 350 b 613 342 619 344 618 342 l 247 342 b 242 350 243 342 240 344 l 339 619 b 425 849 382 738 411 814 b 438 849 426 856 436 854 b 540 569 464 781 497 688 b 618 350 583 451 610 378 z m 510 1233 b 486 1246 503 1243 497 1246 l 385 1246 b 361 1233 374 1246 368 1243 l 208 1046 b 217 1031 201 1036 206 1031 l 282 1031 b 299 1038 286 1031 292 1033 l 425 1174 b 435 1179 428 1178 431 1179 b 444 1174 440 1179 443 1178 l 572 1038 b 589 1031 576 1033 582 1031 l 654 1031 b 665 1038 661 1031 665 1033 b 663 1046 665 1042 664 1044 z "},"Ä":{"ha":867,"x_min":0,"x_max":0,"o":"m 654 242 b 736 14 678 176 713 85 b 756 0 740 3 746 0 l 839 0 b 851 10 846 0 851 4 l 850 14 b 700 426 824 92 774 229 b 511 931 626 625 564 793 b 494 944 508 940 503 944 l 376 944 b 360 931 368 944 363 940 l 168 426 b 17 14 93 228 43 90 b 28 0 15 4 21 0 l 108 0 b 126 14 118 0 122 3 b 207 243 167 135 194 211 b 219 250 208 249 214 250 l 643 250 b 654 242 649 250 653 246 z m 618 350 b 613 342 619 344 618 342 l 247 342 b 242 350 243 342 240 344 l 339 619 b 425 849 382 738 411 814 b 438 849 426 856 436 854 b 540 569 464 781 497 688 b 618 350 583 451 610 378 z m 218 1131 b 294 1054 218 1086 251 1054 b 371 1131 339 1054 371 1086 b 294 1206 371 1174 339 1206 b 218 1131 251 1206 218 1174 z m 499 1131 b 575 1054 499 1086 531 1054 b 651 1131 619 1054 651 1086 b 575 1206 651 1174 619 1206 b 499 1131 531 1206 499 1174 z "},"À":{"ha":867,"x_min":0,"x_max":0,"o":"m 654 242 b 736 14 678 176 713 85 b 756 0 740 3 746 0 l 839 0 b 851 10 846 0 851 4 l 850 14 b 700 426 824 92 774 229 b 511 931 626 625 564 793 b 494 944 508 940 503 944 l 376 944 b 360 931 368 944 363 940 l 168 426 b 17 14 93 228 43 90 b 28 0 15 4 21 0 l 108 0 b 126 14 118 0 122 3 b 207 243 167 135 194 211 b 219 250 208 249 214 250 l 643 250 b 654 242 649 250 653 246 z m 618 350 b 613 342 619 344 618 342 l 247 342 b 242 350 243 342 240 344 l 339 619 b 425 849 382 738 411 814 b 438 849 426 856 436 854 b 540 569 464 781 497 688 b 618 350 583 451 610 378 z m 490 1031 b 501 1038 497 1031 501 1033 b 499 1046 501 1039 500 1042 l 367 1236 b 349 1246 361 1242 356 1246 l 253 1246 b 242 1238 246 1246 242 1243 b 246 1229 242 1235 243 1232 l 413 1039 b 429 1031 418 1033 424 1031 z "},"Ā":{"ha":867,"x_min":0,"x_max":0,"o":"m 654 242 b 736 14 678 176 713 85 b 756 0 740 3 746 0 l 839 0 b 851 10 846 0 851 4 l 850 14 b 700 426 824 92 774 229 b 511 931 626 625 564 793 b 494 944 508 940 503 944 l 376 944 b 360 931 368 944 363 940 l 168 426 b 17 14 93 228 43 90 b 28 0 15 4 21 0 l 108 0 b 126 14 118 0 122 3 b 207 243 167 135 194 211 b 219 250 208 249 214 250 l 643 250 b 654 242 649 250 653 246 z m 618 350 b 613 342 619 344 618 342 l 247 342 b 242 350 243 342 240 344 l 339 619 b 425 849 382 738 411 814 b 438 849 426 856 436 854 b 540 569 464 781 497 688 b 618 350 583 451 610 378 z m 221 1101 b 233 1088 221 1094 226 1088 l 632 1088 b 646 1101 640 1088 644 1092 l 650 1157 b 636 1171 650 1167 646 1171 l 238 1171 b 225 1157 231 1171 226 1167 z "},"Ą":{"ha":867,"x_min":0,"x_max":0,"o":"m 611 -183 b 751 -294 611 -257 663 -294 b 843 -279 785 -294 815 -289 b 853 -262 850 -276 853 -271 l 853 -222 b 844 -212 853 -215 850 -212 l 840 -214 b 779 -225 821 -221 800 -225 b 707 -162 733 -225 707 -203 b 843 -1 707 -110 753 -56 b 850 10 847 1 850 6 l 849 15 b 699 426 822 92 772 229 b 510 931 625 625 563 793 b 493 944 507 940 501 944 l 375 944 b 358 931 367 944 361 940 b 165 425 304 793 240 624 b 17 14 92 226 42 90 b 26 0 15 4 19 0 l 107 0 b 125 14 117 0 121 3 b 207 243 149 85 183 178 b 218 250 208 247 213 250 l 643 250 b 654 242 649 250 653 246 b 704 104 674 190 690 144 l 740 6 b 738 -10 742 -1 743 -6 b 611 -183 658 -60 611 -121 z m 618 350 b 613 342 619 344 617 342 l 246 342 b 240 350 242 342 239 344 b 336 619 261 413 293 503 b 424 849 379 738 408 814 b 436 849 425 856 435 854 b 540 568 463 781 497 688 b 618 350 583 450 610 376 z "},"Å":{"ha":867,"x_min":0,"x_max":0,"o":"m 654 242 b 736 14 678 176 713 85 b 756 0 740 3 746 0 l 839 0 b 851 10 846 0 851 4 l 850 14 b 700 426 824 92 774 229 b 511 931 626 625 564 793 b 494 944 508 940 503 944 l 376 944 b 360 931 368 944 363 940 l 168 426 b 17 14 93 228 43 90 b 28 0 15 4 21 0 l 108 0 b 126 14 118 0 122 3 b 207 243 167 135 194 211 b 219 250 208 249 214 250 l 643 250 b 654 242 649 250 653 246 z m 618 350 b 613 342 619 344 618 342 l 247 342 b 242 350 243 342 240 344 l 339 619 b 425 849 382 738 411 814 b 438 849 426 856 436 854 b 540 569 464 781 497 688 b 618 350 583 451 610 378 z m 285 1143 b 435 1003 285 1058 349 1003 b 586 1143 522 1003 586 1058 b 435 1283 586 1228 522 1283 b 285 1143 349 1283 285 1228 z m 515 1143 b 435 1064 515 1094 483 1064 b 354 1143 386 1064 354 1097 b 435 1221 354 1189 386 1221 b 515 1143 483 1221 515 1189 z "},"Ã":{"ha":867,"x_min":0,"x_max":0,"o":"m 654 242 b 736 14 678 176 713 85 b 756 0 740 3 746 0 l 839 0 b 851 10 846 0 851 4 l 850 14 b 700 426 824 92 774 229 b 511 931 626 625 564 793 b 494 944 508 940 503 944 l 376 944 b 360 931 368 944 363 940 l 168 426 b 17 14 93 228 43 90 b 28 0 15 4 21 0 l 108 0 b 126 14 118 0 122 3 b 207 243 167 135 194 211 b 219 250 208 249 214 250 l 643 250 b 654 242 649 250 653 246 z m 618 350 b 613 342 619 344 618 342 l 247 342 b 242 350 243 342 240 344 l 339 619 b 425 849 382 738 411 814 b 438 849 426 856 436 854 b 540 569 464 781 497 688 b 618 350 583 451 610 378 z m 189 1054 b 201 1042 189 1047 194 1042 l 246 1042 b 257 1054 253 1042 257 1047 b 325 1147 261 1111 286 1147 b 418 1100 353 1147 375 1133 b 546 1044 469 1057 501 1044 b 679 1217 631 1044 679 1131 b 667 1229 679 1225 675 1229 l 622 1229 b 610 1218 615 1229 611 1225 b 542 1125 606 1156 582 1125 b 451 1171 515 1125 492 1138 b 322 1228 400 1214 367 1228 b 189 1054 239 1228 189 1142 z "},"Æ":{"ha":1160,"x_min":0,"x_max":0,"o":"m 596 297 b 604 289 601 297 604 294 l 604 14 b 618 0 604 7 611 0 l 1071 0 b 1085 14 1081 0 1085 7 l 1085 79 b 1071 93 1085 89 1081 93 l 718 93 b 710 101 713 93 710 96 l 710 436 b 718 444 710 442 713 444 l 1036 444 b 1050 458 1046 444 1050 451 l 1050 524 b 1036 538 1050 533 1046 538 l 718 538 b 710 546 713 538 710 540 l 710 843 b 718 851 710 849 713 851 l 1057 851 b 1071 865 1067 851 1071 858 l 1071 931 b 1057 944 1071 940 1067 944 l 504 944 b 481 931 493 944 485 940 b 238 461 422 821 342 664 b 15 18 135 260 61 111 b 24 0 10 7 14 0 l 108 0 b 131 14 119 0 126 3 b 267 289 196 146 240 238 b 282 297 269 294 275 297 z m 604 397 b 596 389 604 392 601 389 l 325 389 b 318 399 318 389 315 392 b 429 619 338 439 375 513 b 547 844 483 726 524 801 b 561 853 551 850 556 853 l 596 853 b 604 844 601 853 604 850 z "},"B":{"ha":797,"x_min":0,"x_max":0,"o":"m 669 706 b 346 944 669 871 547 944 l 150 944 b 136 931 143 944 136 940 l 136 17 b 150 3 136 10 140 4 b 368 -12 210 -7 283 -12 b 701 261 578 -12 701 82 b 517 476 701 388 621 453 b 507 482 510 478 507 479 b 517 489 507 486 511 488 b 669 706 606 521 669 589 z m 564 699 b 328 524 564 583 483 524 l 253 524 b 242 536 246 524 242 528 l 242 843 b 253 853 242 850 246 853 l 335 853 b 564 699 475 853 564 811 z m 372 79 b 251 86 328 79 288 82 b 242 99 244 88 242 89 l 242 424 b 253 436 242 432 246 436 l 338 436 b 594 264 494 436 594 385 b 372 79 594 149 518 79 z "},"C":{"ha":790,"x_min":0,"x_max":0,"o":"m 563 -17 b 738 1 638 -17 696 -11 b 747 15 744 6 747 10 l 747 18 l 740 82 b 726 92 739 89 735 92 l 724 92 b 572 76 681 82 631 76 b 196 472 360 76 196 208 b 579 868 196 735 360 868 b 713 854 624 868 668 864 b 729 864 719 853 728 857 l 742 929 b 731 946 743 938 740 943 b 583 961 690 956 640 961 b 86 472 281 961 86 771 b 563 -17 86 174 281 -17 z "},"Ć":{"ha":790,"x_min":0,"x_max":0,"o":"m 563 -17 b 738 1 638 -17 696 -11 b 747 15 744 6 747 10 l 747 18 l 740 82 b 726 92 739 89 735 92 l 724 92 b 572 76 681 82 631 76 b 196 472 360 76 196 208 b 579 868 196 735 360 868 b 713 854 624 868 668 864 b 729 864 719 853 728 857 l 742 929 b 731 946 743 938 740 943 b 583 961 690 956 640 961 b 86 472 281 961 86 771 b 563 -17 86 174 281 -17 z m 475 1046 b 483 1031 469 1036 472 1031 l 544 1031 b 561 1039 550 1031 556 1033 l 728 1229 b 721 1246 735 1239 732 1246 l 625 1246 b 607 1236 618 1246 613 1242 z "},"Č":{"ha":790,"x_min":0,"x_max":0,"o":"m 563 -17 b 738 1 638 -17 696 -11 b 747 15 744 6 747 10 l 747 18 l 740 82 b 726 92 739 89 735 92 l 724 92 b 572 76 681 82 631 76 b 196 472 360 76 196 208 b 579 868 196 735 360 868 b 713 854 624 868 668 864 b 729 864 719 853 728 857 l 742 929 b 731 946 743 938 740 943 b 583 961 690 956 640 961 b 86 472 281 961 86 771 b 563 -17 86 174 281 -17 z m 461 1043 b 485 1031 468 1033 474 1031 l 586 1031 b 610 1043 597 1031 603 1033 l 763 1229 b 754 1246 769 1239 765 1246 l 689 1246 b 672 1238 682 1246 676 1243 l 544 1101 b 525 1101 540 1096 531 1096 l 399 1238 b 382 1246 393 1243 388 1246 l 317 1246 b 306 1238 310 1246 306 1243 b 308 1229 306 1233 307 1231 z "},"Ç":{"ha":790,"x_min":0,"x_max":0,"o":"m 436 -324 b 451 -335 438 -331 442 -335 b 682 -192 606 -335 682 -287 b 540 -94 682 -131 635 -96 b 532 -85 533 -94 531 -92 b 546 -24 536 -72 539 -51 b 554 -17 547 -19 550 -17 b 738 1 632 -17 693 -11 b 747 15 744 6 747 10 l 747 18 l 740 82 b 728 92 739 89 735 92 l 724 92 b 572 76 683 82 632 76 b 196 472 360 76 196 208 b 579 868 196 735 360 868 b 713 854 624 868 668 864 b 729 864 719 853 728 857 l 742 929 b 731 946 743 938 740 943 b 583 961 690 956 640 961 b 86 472 281 961 86 771 b 467 -8 86 207 235 28 b 474 -19 474 -10 475 -12 l 449 -126 b 461 -142 446 -136 450 -142 l 472 -142 b 596 -196 560 -142 596 -157 b 443 -275 596 -247 550 -275 b 432 -286 436 -275 432 -279 l 432 -289 l 436 -324 z "},"Ĉ":{"ha":790,"x_min":0,"x_max":0,"o":"m 563 -17 b 738 1 638 -17 696 -11 b 747 15 744 6 747 10 l 747 18 l 740 82 b 726 92 739 89 735 92 l 724 92 b 572 76 681 82 631 76 b 196 472 360 76 196 208 b 579 868 196 735 360 868 b 713 854 624 868 668 864 b 729 864 719 853 728 857 l 742 929 b 731 946 743 938 740 943 b 583 961 690 956 640 961 b 86 472 281 961 86 771 b 563 -17 86 174 281 -17 z m 610 1233 b 586 1246 603 1243 597 1246 l 485 1246 b 461 1233 474 1246 468 1243 l 308 1046 b 317 1031 301 1036 306 1031 l 382 1031 b 399 1038 386 1031 392 1033 l 525 1174 b 535 1179 528 1178 531 1179 b 544 1174 540 1179 543 1178 l 672 1038 b 689 1031 676 1033 682 1031 l 754 1031 b 765 1038 761 1031 765 1033 b 763 1046 765 1042 764 1044 z "},"Ċ":{"ha":790,"x_min":0,"x_max":0,"o":"m 563 -17 b 738 1 638 -17 696 -11 b 747 15 744 6 747 10 l 747 18 l 740 82 b 726 92 739 89 735 92 l 724 92 b 572 76 681 82 631 76 b 196 472 360 76 196 208 b 579 868 196 735 360 868 b 713 854 624 868 668 864 b 729 864 719 853 728 857 l 742 929 b 731 946 743 938 740 943 b 583 961 690 956 640 961 b 86 472 281 961 86 771 b 563 -17 86 174 281 -17 z m 454 1131 b 535 1050 454 1085 489 1050 b 618 1131 585 1050 618 1085 b 535 1211 618 1176 585 1211 b 454 1131 489 1211 454 1176 z "},"D":{"ha":985,"x_min":0,"x_max":0,"o":"m 899 478 b 365 944 899 806 676 944 l 150 944 b 136 931 143 944 136 940 l 136 17 b 150 3 136 10 140 4 b 378 -12 217 -8 304 -12 b 899 478 701 -12 899 178 z m 350 851 b 667 769 479 851 585 824 b 789 478 749 715 789 618 b 385 82 789 218 629 82 b 249 90 336 82 290 85 b 242 100 243 90 242 94 l 242 843 b 250 851 242 849 244 851 z "},"Ð":{"ha":993,"x_min":0,"x_max":0,"o":"m 25 463 b 39 449 25 456 32 449 l 136 449 b 144 440 142 449 144 446 l 144 17 b 158 3 144 10 149 4 b 386 -12 225 -8 313 -12 b 907 478 710 -12 907 178 b 374 944 907 806 685 944 l 158 944 b 144 931 151 944 144 940 l 144 550 b 136 542 144 544 142 542 l 39 542 b 25 528 32 542 25 538 z m 257 90 b 250 100 251 90 250 94 l 250 440 b 258 449 250 446 253 449 l 444 449 b 458 463 454 449 458 456 l 458 528 b 444 542 458 538 454 542 l 258 542 b 250 550 253 542 250 544 l 250 843 b 258 851 250 849 253 851 l 358 851 b 675 769 488 851 593 824 b 797 478 757 715 797 618 b 393 82 797 218 638 82 b 257 90 344 82 299 85 z "},"Ď":{"ha":985,"x_min":0,"x_max":0,"o":"m 899 478 b 365 944 899 806 676 944 l 150 944 b 136 931 143 944 136 940 l 136 17 b 150 3 136 10 140 4 b 378 -12 217 -8 304 -12 b 899 478 701 -12 899 178 z m 350 851 b 667 769 479 851 585 824 b 789 478 749 715 789 618 b 385 82 789 218 629 82 b 249 90 336 82 290 85 b 242 100 243 90 242 94 l 242 843 b 250 851 242 849 244 851 z m 419 1043 b 443 1031 426 1033 432 1031 l 544 1031 b 568 1043 556 1031 561 1033 l 721 1229 b 713 1246 728 1239 724 1246 l 647 1246 b 631 1238 640 1246 635 1243 l 503 1101 b 483 1101 499 1096 489 1096 l 357 1238 b 340 1246 351 1243 346 1246 l 275 1246 b 264 1238 268 1246 264 1243 b 267 1229 264 1233 265 1231 z "},"Đ":{"ha":993,"x_min":0,"x_max":0,"o":"m 25 463 b 39 449 25 456 32 449 l 136 449 b 144 440 142 449 144 446 l 144 17 b 158 3 144 10 149 4 b 386 -12 225 -8 313 -12 b 907 478 710 -12 907 178 b 374 944 907 806 685 944 l 158 944 b 144 931 151 944 144 940 l 144 550 b 136 542 144 544 142 542 l 39 542 b 25 528 32 542 25 538 z m 257 90 b 250 100 251 90 250 94 l 250 440 b 258 449 250 446 253 449 l 444 449 b 458 463 454 449 458 456 l 458 528 b 444 542 458 538 454 542 l 258 542 b 250 550 253 542 250 544 l 250 843 b 258 851 250 849 253 851 l 358 851 b 675 769 488 851 593 824 b 797 478 757 715 797 618 b 393 82 797 218 638 82 b 257 90 344 82 299 85 z "},"E":{"ha":694,"x_min":0,"x_max":0,"o":"m 150 944 b 136 931 143 944 136 940 l 136 14 b 150 0 136 7 143 0 l 606 0 b 619 14 615 0 619 7 l 619 79 b 606 93 619 89 615 93 l 250 93 b 242 101 244 93 242 96 l 242 436 b 250 444 242 442 244 444 l 571 444 b 585 458 581 444 585 451 l 585 524 b 571 538 585 533 581 538 l 250 538 b 242 546 244 538 242 540 l 242 843 b 250 851 242 849 244 851 l 592 851 b 606 865 601 851 606 858 l 606 931 b 592 944 606 940 601 944 l 150 944 z "},"É":{"ha":694,"x_min":0,"x_max":0,"o":"m 150 944 b 136 931 143 944 136 940 l 136 14 b 150 0 136 7 143 0 l 606 0 b 619 14 615 0 619 7 l 619 79 b 606 93 619 89 615 93 l 250 93 b 242 101 244 93 242 96 l 242 436 b 250 444 242 442 244 444 l 571 444 b 585 458 581 444 585 451 l 585 524 b 571 538 585 533 581 538 l 250 538 b 242 546 244 538 242 540 l 242 843 b 250 851 242 849 244 851 l 592 851 b 606 865 601 851 606 858 l 606 931 b 592 944 606 940 601 944 z m 317 1046 b 325 1031 311 1036 314 1031 l 386 1031 b 403 1039 392 1031 397 1033 l 569 1229 b 563 1246 576 1239 574 1246 l 467 1246 b 449 1236 460 1246 454 1242 z "},"Ĕ":{"ha":694,"x_min":0,"x_max":0,"o":"m 150 944 b 136 931 143 944 136 940 l 136 14 b 150 0 136 7 143 0 l 606 0 b 619 14 615 0 619 7 l 619 79 b 606 93 619 89 615 93 l 250 93 b 242 101 244 93 242 96 l 242 436 b 250 444 242 442 244 444 l 571 444 b 585 458 581 444 585 451 l 585 524 b 571 538 585 533 581 538 l 250 538 b 242 546 244 538 242 540 l 242 843 b 250 851 242 849 244 851 l 592 851 b 606 865 601 851 606 858 l 606 931 b 592 944 606 940 601 944 z m 161 1228 b 375 1019 161 1093 235 1019 b 592 1228 515 1019 592 1094 b 579 1240 592 1236 588 1240 l 529 1240 b 517 1228 521 1240 517 1236 b 376 1099 517 1143 464 1099 b 236 1228 292 1099 236 1143 b 224 1240 236 1236 232 1240 l 174 1240 b 161 1228 167 1240 161 1235 z "},"Ě":{"ha":694,"x_min":0,"x_max":0,"o":"m 150 944 b 136 931 143 944 136 940 l 136 14 b 150 0 136 7 143 0 l 606 0 b 619 14 615 0 619 7 l 619 79 b 606 93 619 89 615 93 l 250 93 b 242 101 244 93 242 96 l 242 436 b 250 444 242 442 244 444 l 571 444 b 585 458 581 444 585 451 l 585 524 b 571 538 585 533 581 538 l 250 538 b 242 546 244 538 242 540 l 242 843 b 250 851 242 849 244 851 l 592 851 b 606 865 601 851 606 858 l 606 931 b 592 944 606 940 601 944 z m 303 1043 b 326 1031 310 1033 315 1031 l 428 1031 b 451 1043 439 1031 444 1033 l 604 1229 b 596 1246 611 1239 607 1246 l 531 1246 b 514 1238 524 1246 518 1243 l 386 1101 b 367 1101 382 1096 372 1096 l 240 1238 b 224 1246 235 1243 229 1246 l 158 1246 b 147 1238 151 1246 147 1243 b 150 1229 147 1233 149 1231 z "},"Ê":{"ha":694,"x_min":0,"x_max":0,"o":"m 150 944 b 136 931 143 944 136 940 l 136 14 b 150 0 136 7 143 0 l 606 0 b 619 14 615 0 619 7 l 619 79 b 606 93 619 89 615 93 l 250 93 b 242 101 244 93 242 96 l 242 436 b 250 444 242 442 244 444 l 571 444 b 585 458 581 444 585 451 l 585 524 b 571 538 585 533 581 538 l 250 538 b 242 546 244 538 242 540 l 242 843 b 250 851 242 849 244 851 l 592 851 b 606 865 601 851 606 858 l 606 931 b 592 944 606 940 601 944 z m 451 1233 b 428 1246 444 1243 439 1246 l 326 1246 b 303 1233 315 1246 310 1243 l 150 1046 b 158 1031 143 1036 147 1031 l 224 1031 b 240 1038 228 1031 233 1033 l 367 1174 b 376 1179 369 1178 372 1179 b 386 1174 382 1179 385 1178 l 514 1038 b 531 1031 518 1033 524 1031 l 596 1031 b 607 1038 603 1031 607 1033 b 604 1046 607 1042 606 1044 z "},"Ë":{"ha":694,"x_min":0,"x_max":0,"o":"m 150 944 b 136 931 143 944 136 940 l 136 14 b 150 0 136 7 143 0 l 606 0 b 619 14 615 0 619 7 l 619 79 b 606 93 619 89 615 93 l 250 93 b 242 101 244 93 242 96 l 242 436 b 250 444 242 442 244 444 l 571 444 b 585 458 581 444 585 451 l 585 524 b 571 538 585 533 581 538 l 250 538 b 242 546 244 538 242 540 l 242 843 b 250 851 242 849 244 851 l 592 851 b 606 865 601 851 606 858 l 606 931 b 592 944 606 940 601 944 z m 160 1131 b 236 1054 160 1086 193 1054 b 313 1131 281 1054 313 1086 b 236 1206 313 1174 281 1206 b 160 1131 193 1206 160 1174 z m 440 1131 b 517 1054 440 1086 472 1054 b 593 1131 561 1054 593 1086 b 517 1206 593 1174 561 1206 b 440 1131 472 1206 440 1174 z "},"Ė":{"ha":694,"x_min":0,"x_max":0,"o":"m 150 944 b 136 931 143 944 136 940 l 136 14 b 150 0 136 7 143 0 l 606 0 b 619 14 615 0 619 7 l 619 79 b 606 93 619 89 615 93 l 250 93 b 242 101 244 93 242 96 l 242 436 b 250 444 242 442 244 444 l 571 444 b 585 458 581 444 585 451 l 585 524 b 571 538 585 533 581 538 l 250 538 b 242 546 244 538 242 540 l 242 843 b 250 851 242 849 244 851 l 592 851 b 606 865 601 851 606 858 l 606 931 b 592 944 606 940 601 944 z m 296 1131 b 376 1050 296 1085 331 1050 b 460 1131 426 1050 460 1085 b 376 1211 460 1176 426 1211 b 296 1131 331 1211 296 1176 z "},"È":{"ha":694,"x_min":0,"x_max":0,"o":"m 150 944 b 136 931 143 944 136 940 l 136 14 b 150 0 136 7 143 0 l 606 0 b 619 14 615 0 619 7 l 619 79 b 606 93 619 89 615 93 l 250 93 b 242 101 244 93 242 96 l 242 436 b 250 444 242 442 244 444 l 571 444 b 585 458 581 444 585 451 l 585 524 b 571 538 585 533 581 538 l 250 538 b 242 546 244 538 242 540 l 242 843 b 250 851 242 849 244 851 l 592 851 b 606 865 601 851 606 858 l 606 931 b 592 944 606 940 601 944 z m 432 1031 b 443 1038 439 1031 443 1033 b 440 1046 443 1039 442 1042 l 308 1236 b 290 1246 303 1242 297 1246 l 194 1246 b 183 1238 188 1246 183 1243 b 188 1229 183 1235 185 1232 l 354 1039 b 371 1031 360 1033 365 1031 z "},"Ē":{"ha":694,"x_min":0,"x_max":0,"o":"m 150 944 b 136 931 143 944 136 940 l 136 14 b 150 0 136 7 143 0 l 606 0 b 619 14 615 0 619 7 l 619 79 b 606 93 619 89 615 93 l 250 93 b 242 101 244 93 242 96 l 242 436 b 250 444 242 442 244 444 l 571 444 b 585 458 581 444 585 451 l 585 524 b 571 538 585 533 581 538 l 250 538 b 242 546 244 538 242 540 l 242 843 b 250 851 242 849 244 851 l 592 851 b 606 865 601 851 606 858 l 606 931 b 592 944 606 940 601 944 z m 163 1101 b 175 1088 163 1094 168 1088 l 574 1088 b 588 1101 582 1088 586 1092 l 592 1157 b 578 1171 592 1167 588 1171 l 179 1171 b 167 1157 172 1171 168 1167 z "},"Ę":{"ha":694,"x_min":0,"x_max":0,"o":"m 367 -182 b 507 -294 367 -258 418 -294 b 599 -279 542 -294 572 -289 b 610 -262 606 -276 610 -271 l 610 -224 b 603 -214 610 -218 607 -214 l 597 -215 b 535 -225 575 -222 554 -225 b 464 -162 490 -225 464 -203 b 581 -4 464 -114 503 -61 b 594 0 586 0 589 0 l 606 0 b 619 14 615 0 619 7 l 619 79 b 606 93 619 89 615 93 l 250 93 b 242 101 244 93 242 96 l 242 436 b 250 444 242 442 244 444 l 571 444 b 585 458 581 444 585 451 l 585 524 b 571 538 585 533 581 538 l 250 538 b 242 546 244 538 242 540 l 242 843 b 250 851 242 849 244 851 l 592 851 b 606 865 601 851 606 858 l 606 931 b 592 944 606 940 601 944 l 150 944 b 136 931 143 944 136 940 l 136 14 b 150 0 136 7 143 0 l 482 0 b 485 -11 489 0 492 -7 b 367 -182 406 -71 367 -128 z "},"F":{"ha":667,"x_min":0,"x_max":0,"o":"m 150 944 b 136 931 143 944 136 940 l 136 14 b 150 0 136 7 143 0 l 228 0 b 242 14 238 0 242 7 l 242 426 b 250 435 242 432 244 435 l 565 435 b 579 449 575 435 579 442 l 579 513 b 565 526 579 522 575 526 l 250 526 b 242 535 244 526 242 529 l 242 843 b 250 851 242 849 244 851 l 585 851 b 599 865 594 851 599 858 l 599 931 b 585 944 599 940 594 944 l 150 944 z "},"G":{"ha":1011,"x_min":0,"x_max":0,"o":"m 196 457 b 581 868 196 719 350 868 b 811 821 671 868 743 850 b 829 826 821 817 828 819 l 843 896 b 836 911 844 903 842 908 b 578 961 779 939 694 961 b 86 457 286 961 86 765 b 546 -17 83 192 265 -21 b 946 400 789 -17 946 132 b 942 485 946 438 944 467 b 924 497 940 496 936 497 l 568 497 b 554 483 561 497 554 493 l 554 419 b 568 406 554 413 561 406 l 836 406 b 846 400 842 406 844 404 b 847 376 847 394 847 386 b 546 76 847 206 747 76 b 196 457 319 76 196 244 z "},"Ğ":{"ha":1011,"x_min":0,"x_max":0,"o":"m 196 457 b 581 868 196 719 350 868 b 811 821 671 868 743 850 b 829 826 821 817 828 819 l 843 896 b 836 911 844 903 842 908 b 578 961 779 939 694 961 b 86 457 286 961 86 765 b 546 -17 83 192 265 -21 b 946 400 789 -17 946 132 b 942 485 946 438 944 467 b 924 497 940 496 936 497 l 568 497 b 554 483 561 497 554 493 l 554 419 b 568 406 554 413 561 406 l 836 406 b 846 400 842 406 844 404 b 847 376 847 394 847 386 b 546 76 847 206 747 76 b 196 457 319 76 196 244 z m 342 1228 b 556 1019 342 1093 415 1019 b 772 1228 696 1019 772 1094 b 760 1240 772 1236 768 1240 l 710 1240 b 697 1228 701 1240 697 1236 b 557 1099 697 1143 644 1099 b 417 1228 472 1099 417 1143 b 404 1240 417 1236 413 1240 l 354 1240 b 342 1228 347 1240 342 1235 z "},"Ĝ":{"ha":1011,"x_min":0,"x_max":0,"o":"m 196 457 b 581 868 196 719 350 868 b 811 821 671 868 743 850 b 829 826 821 817 828 819 l 843 896 b 836 911 844 903 842 908 b 578 961 779 939 694 961 b 86 457 286 961 86 765 b 546 -17 83 192 265 -21 b 946 400 789 -17 946 132 b 942 485 946 438 944 467 b 924 497 940 496 936 497 l 568 497 b 554 483 561 497 554 493 l 554 419 b 568 406 554 413 561 406 l 836 406 b 846 400 842 406 844 404 b 847 376 847 394 847 386 b 546 76 847 206 747 76 b 196 457 319 76 196 244 z m 632 1233 b 608 1246 625 1243 619 1246 l 507 1246 b 483 1233 496 1246 490 1243 l 331 1046 b 339 1031 324 1036 328 1031 l 404 1031 b 421 1038 408 1031 414 1033 l 547 1174 b 557 1179 550 1178 553 1179 b 567 1174 563 1179 565 1178 l 694 1038 b 711 1031 699 1033 704 1031 l 776 1031 b 788 1038 783 1031 788 1033 b 785 1046 788 1042 786 1044 z "},"Ģ":{"ha":1011,"x_min":0,"x_max":0,"o":"m 196 457 b 581 868 196 719 350 868 b 811 821 671 868 743 850 b 829 826 821 817 828 819 l 843 896 b 836 911 844 903 842 908 b 578 961 779 939 694 961 b 86 457 286 961 86 765 b 546 -17 83 192 265 -21 b 946 400 789 -17 946 132 b 942 485 946 438 944 467 b 924 497 940 496 936 497 l 568 497 b 554 483 561 497 554 493 l 554 419 b 568 406 554 413 561 406 l 836 406 b 846 400 842 406 844 404 b 847 376 847 394 847 386 b 546 76 847 206 747 76 b 196 457 319 76 196 244 z m 482 -321 b 494 -332 482 -328 488 -332 l 544 -332 b 560 -319 551 -332 557 -328 l 625 -89 b 614 -74 626 -79 624 -74 l 538 -74 b 524 -86 529 -74 525 -78 l 485 -301 z "},"Ġ":{"ha":1011,"x_min":0,"x_max":0,"o":"m 196 457 b 581 868 196 719 350 868 b 811 821 671 868 743 850 b 829 826 821 817 828 819 l 843 896 b 836 911 844 903 842 908 b 578 961 779 939 694 961 b 86 457 286 961 86 765 b 546 -17 83 192 265 -21 b 946 400 789 -17 946 132 b 942 485 946 438 944 467 b 924 497 940 496 936 497 l 568 497 b 554 483 561 497 554 493 l 554 419 b 568 406 554 413 561 406 l 836 406 b 846 400 842 406 844 404 b 847 376 847 394 847 386 b 546 76 847 206 747 76 b 196 457 319 76 196 244 z m 476 1131 b 557 1050 476 1085 511 1050 b 640 1131 607 1050 640 1085 b 557 1211 640 1176 607 1211 b 476 1131 511 1211 476 1176 z "},"H":{"ha":975,"x_min":0,"x_max":0,"o":"m 747 944 b 733 931 740 944 733 940 l 733 543 b 725 535 733 538 731 535 l 250 535 b 242 543 244 535 242 538 l 242 931 b 228 944 242 940 238 944 l 150 944 b 136 931 143 944 136 940 l 136 14 b 150 0 136 7 143 0 l 228 0 b 242 14 238 0 242 7 l 242 433 b 250 442 242 439 244 442 l 725 442 b 733 433 731 442 733 439 l 733 14 b 747 0 733 7 740 0 l 825 0 b 839 14 835 0 839 7 l 839 931 b 825 944 839 940 835 944 l 747 944 z "},"Ħ":{"ha":992,"x_min":0,"x_max":0,"o":"m 46 706 b 60 692 46 699 53 692 l 136 692 b 144 683 142 692 144 689 l 144 14 b 158 0 144 7 151 0 l 236 0 b 250 14 246 0 250 7 l 250 433 b 258 442 250 439 253 442 l 733 442 b 742 433 739 442 742 439 l 742 14 b 756 0 742 7 749 0 l 833 0 b 847 14 843 0 847 7 l 847 683 b 856 692 847 689 850 692 l 932 692 b 946 706 942 692 946 699 l 946 760 b 932 774 946 769 942 774 l 856 774 b 847 782 850 774 847 776 l 847 931 b 833 944 847 940 843 944 l 756 944 b 742 931 749 944 742 940 l 742 782 b 733 774 742 776 739 774 l 258 774 b 250 782 253 774 250 776 l 250 931 b 236 944 250 940 246 944 l 158 944 b 144 931 151 944 144 940 l 144 782 b 136 774 144 776 142 774 l 60 774 b 46 760 53 774 46 769 z m 258 535 b 250 543 253 535 250 538 l 250 683 b 258 692 250 689 253 692 l 733 692 b 742 683 739 692 742 689 l 742 543 b 733 535 742 538 739 535 z "},"Ĥ":{"ha":975,"x_min":0,"x_max":0,"o":"m 747 944 b 733 931 740 944 733 940 l 733 543 b 725 535 733 538 731 535 l 250 535 b 242 543 244 535 242 538 l 242 931 b 228 944 242 940 238 944 l 150 944 b 136 931 143 944 136 940 l 136 14 b 150 0 136 7 143 0 l 228 0 b 242 14 238 0 242 7 l 242 433 b 250 442 242 439 244 442 l 725 442 b 733 433 731 442 733 439 l 733 14 b 747 0 733 7 740 0 l 825 0 b 839 14 835 0 839 7 l 839 931 b 825 944 839 940 835 944 z m 563 1233 b 539 1246 556 1243 550 1246 l 438 1246 b 414 1233 426 1246 421 1243 l 261 1046 b 269 1031 254 1036 258 1031 l 335 1031 b 351 1038 339 1031 344 1033 l 478 1174 b 488 1179 481 1178 483 1179 b 497 1174 493 1179 496 1178 l 625 1038 b 642 1031 629 1033 635 1031 l 707 1031 b 718 1038 714 1031 718 1033 b 715 1046 718 1042 717 1044 z "},"I":{"ha":378,"x_min":0,"x_max":0,"o":"m 136 14 b 150 0 136 7 143 0 l 228 0 b 242 14 238 0 242 7 l 242 931 b 228 944 242 940 238 944 l 150 944 b 136 931 143 944 136 940 l 136 14 z "},"Ĳ":{"ha":785,"x_min":0,"x_max":0,"o":"m 136 14 b 150 0 136 7 143 0 l 228 0 b 242 14 238 0 242 7 l 242 931 b 228 944 242 940 238 944 l 150 944 b 136 931 143 944 136 940 z m 342 -265 b 654 124 601 -214 654 -57 l 654 931 b 640 944 654 940 650 944 l 563 944 b 549 931 556 944 549 940 l 549 135 b 314 -169 549 -51 499 -139 b 301 -183 306 -171 301 -176 l 303 -189 l 322 -251 b 339 -265 326 -261 332 -265 z "},"Í":{"ha":378,"x_min":0,"x_max":0,"o":"m 136 14 b 150 0 136 7 143 0 l 228 0 b 242 14 238 0 242 7 l 242 931 b 228 944 242 940 238 944 l 150 944 b 136 931 143 944 136 940 z m 129 1046 b 138 1031 124 1036 126 1031 l 199 1031 b 215 1039 204 1031 210 1033 l 382 1229 b 375 1246 389 1239 386 1246 l 279 1246 b 261 1236 272 1246 267 1242 z "},"Ĭ":{"ha":378,"x_min":0,"x_max":0,"o":"m 136 14 b 150 0 136 7 143 0 l 228 0 b 242 14 238 0 242 7 l 242 931 b 228 944 242 940 238 944 l 150 944 b 136 931 143 944 136 940 z m -26 1228 b 188 1019 -26 1093 47 1019 b 404 1228 328 1019 404 1094 b 392 1240 404 1236 400 1240 l 342 1240 b 329 1228 333 1240 329 1236 b 189 1099 329 1143 276 1099 b 49 1228 104 1099 49 1143 b 36 1240 49 1236 44 1240 l -14 1240 b -26 1228 -21 1240 -26 1235 z "},"Î":{"ha":378,"x_min":0,"x_max":0,"o":"m 136 14 b 150 0 136 7 143 0 l 228 0 b 242 14 238 0 242 7 l 242 931 b 228 944 242 940 238 944 l 150 944 b 136 931 143 944 136 940 z m 264 1233 b 240 1246 257 1243 251 1246 l 139 1246 b 115 1233 128 1246 122 1243 l -37 1046 b -29 1031 -44 1036 -40 1031 l 36 1031 b 53 1038 40 1031 46 1033 l 179 1174 b 189 1179 182 1178 185 1179 b 199 1174 194 1179 197 1178 l 326 1038 b 343 1031 331 1033 336 1031 l 408 1031 b 419 1038 415 1031 419 1033 b 417 1046 419 1042 418 1044 z "},"Ï":{"ha":378,"x_min":0,"x_max":0,"o":"m 136 14 b 150 0 136 7 143 0 l 228 0 b 242 14 238 0 242 7 l 242 931 b 228 944 242 940 238 944 l 150 944 b 136 931 143 944 136 940 z m -28 1131 b 49 1054 -28 1086 6 1054 b 125 1131 93 1054 125 1086 b 49 1206 125 1174 93 1206 b -28 1131 6 1206 -28 1174 z m 253 1131 b 329 1054 253 1086 285 1054 b 406 1131 374 1054 406 1086 b 329 1206 406 1174 374 1206 b 253 1131 285 1206 253 1174 z "},"İ":{"ha":378,"x_min":0,"x_max":0,"o":"m 136 14 b 150 0 136 7 143 0 l 228 0 b 242 14 238 0 242 7 l 242 931 b 228 944 242 940 238 944 l 150 944 b 136 931 143 944 136 940 z m 108 1131 b 189 1050 108 1085 143 1050 b 272 1131 239 1050 272 1085 b 189 1211 272 1176 239 1211 b 108 1131 143 1211 108 1176 z "},"Ì":{"ha":378,"x_min":0,"x_max":0,"o":"m 136 14 b 150 0 136 7 143 0 l 228 0 b 242 14 238 0 242 7 l 242 931 b 228 944 242 940 238 944 l 150 944 b 136 931 143 944 136 940 z m 244 1031 b 256 1038 251 1031 256 1033 b 253 1046 256 1039 254 1042 l 121 1236 b 103 1246 115 1242 110 1246 l 7 1246 b -4 1238 0 1246 -4 1243 b 0 1229 -4 1235 -3 1232 l 167 1039 b 183 1031 172 1033 178 1031 z "},"Ī":{"ha":378,"x_min":0,"x_max":0,"o":"m 136 14 b 150 0 136 7 143 0 l 228 0 b 242 14 238 0 242 7 l 242 931 b 228 944 242 940 238 944 l 150 944 b 136 931 143 944 136 940 z m -25 1101 b -12 1088 -25 1094 -19 1088 l 386 1088 b 400 1101 394 1088 399 1092 l 404 1157 b 390 1171 404 1167 400 1171 l -8 1171 b -21 1157 -15 1171 -19 1167 z "},"Į":{"ha":378,"x_min":0,"x_max":0,"o":"m 33 -183 b 174 -294 33 -257 85 -294 b 265 -279 208 -294 239 -289 b 276 -262 272 -276 276 -271 l 276 -224 b 269 -214 276 -218 274 -214 l 264 -215 b 201 -225 242 -222 221 -225 b 131 -162 156 -225 131 -203 b 233 0 131 -115 165 -61 b 242 18 239 4 242 11 l 242 931 b 228 944 242 940 238 944 l 150 944 b 136 931 143 944 136 940 l 136 21 b 143 1 136 11 138 3 b 144 -6 147 0 146 -4 b 33 -183 76 -61 33 -124 z "},"Ĩ":{"ha":378,"x_min":0,"x_max":0,"o":"m 136 14 b 150 0 136 7 143 0 l 228 0 b 242 14 238 0 242 7 l 242 931 b 228 944 242 940 238 944 l 150 944 b 136 931 143 944 136 940 z m -57 1054 b -44 1042 -57 1047 -51 1042 l 0 1042 b 11 1054 7 1042 11 1047 b 79 1147 15 1111 40 1147 b 172 1100 107 1147 129 1133 b 300 1044 224 1057 256 1044 b 433 1217 385 1044 433 1131 b 421 1229 433 1225 429 1229 l 376 1229 b 364 1218 369 1229 365 1225 b 296 1125 360 1156 336 1125 b 206 1171 269 1125 246 1138 b 76 1228 154 1214 121 1228 b -57 1054 -7 1228 -57 1142 z "},"J":{"ha":407,"x_min":0,"x_max":0,"o":"m -36 -265 b 276 124 224 -214 276 -57 l 276 931 b 263 944 276 940 272 944 l 185 944 b 171 931 178 944 171 940 l 171 135 b -64 -169 171 -51 121 -139 b -76 -183 -72 -171 -76 -176 l -75 -189 l -56 -251 b -39 -265 -51 -261 -46 -265 z "},"Ĵ":{"ha":407,"x_min":0,"x_max":0,"o":"m -36 -265 b 276 124 224 -214 276 -57 l 276 931 b 263 944 276 940 272 944 l 185 944 b 171 931 178 944 171 940 l 171 135 b -64 -169 171 -51 121 -139 b -76 -183 -72 -171 -76 -176 l -75 -189 l -56 -251 b -39 -265 -51 -261 -46 -265 z m 297 1233 b 274 1246 290 1243 285 1246 l 172 1246 b 149 1233 161 1246 156 1243 l -4 1046 b 4 1031 -11 1036 -7 1031 l 69 1031 b 86 1038 74 1031 79 1033 l 213 1174 b 222 1179 215 1178 218 1179 b 232 1174 228 1179 231 1178 l 360 1038 b 376 1031 364 1033 369 1031 l 442 1031 b 453 1038 449 1031 453 1033 b 450 1046 453 1042 451 1044 z "},"K":{"ha":804,"x_min":0,"x_max":0,"o":"m 778 10 b 765 29 778 14 774 21 l 700 101 b 368 468 546 272 436 394 b 356 488 360 476 356 483 b 369 508 356 492 360 497 l 553 706 b 742 915 632 792 694 861 b 754 936 749 925 754 931 b 740 944 754 942 751 944 l 640 944 b 619 933 631 944 625 940 b 440 725 578 883 518 814 b 261 525 364 638 304 571 b 249 517 256 519 251 517 b 243 524 244 517 243 519 l 243 931 b 229 944 243 940 239 944 l 150 944 b 136 931 143 944 136 940 l 136 14 b 150 0 136 7 143 0 l 229 0 b 243 14 239 0 243 7 l 243 433 b 250 444 243 440 246 444 b 267 433 254 444 260 440 l 286 413 l 465 208 b 640 10 553 111 611 44 b 667 0 647 3 651 0 l 764 0 b 778 10 775 0 778 3 z "},"Ķ":{"ha":804,"x_min":0,"x_max":0,"o":"m 778 10 b 765 29 778 14 774 21 l 700 101 b 368 468 546 272 436 394 b 356 488 360 476 356 483 b 369 508 356 492 360 497 l 553 706 b 742 915 632 792 694 861 b 754 936 749 925 754 931 b 740 944 754 942 751 944 l 640 944 b 619 933 631 944 625 940 b 440 725 578 883 518 814 b 261 525 364 638 304 571 b 249 517 256 519 251 517 b 243 524 244 517 243 519 l 243 931 b 229 944 243 940 239 944 l 150 944 b 136 931 143 944 136 940 l 136 14 b 150 0 136 7 143 0 l 229 0 b 243 14 239 0 243 7 l 243 433 b 250 444 243 440 246 444 b 267 433 254 444 260 440 l 286 413 l 465 208 b 640 10 553 111 611 44 b 667 0 647 3 651 0 l 764 0 b 778 10 775 0 778 3 z m 336 -321 b 349 -332 336 -328 342 -332 l 399 -332 b 414 -319 406 -332 411 -328 l 479 -89 b 468 -74 481 -79 478 -74 l 392 -74 b 378 -86 383 -74 379 -78 l 339 -301 z "},"L":{"ha":601,"x_min":0,"x_max":0,"o":"m 150 944 b 136 931 143 944 136 940 l 136 14 b 150 0 136 7 143 0 l 551 0 b 565 14 561 0 565 7 l 565 79 b 551 93 565 89 561 93 l 250 93 b 242 101 244 93 242 96 l 242 931 b 228 944 242 940 238 944 l 150 944 z "},"Ĺ":{"ha":601,"x_min":0,"x_max":0,"o":"m 150 944 b 136 931 143 944 136 940 l 136 14 b 150 0 136 7 143 0 l 551 0 b 565 14 561 0 565 7 l 565 79 b 551 93 565 89 561 93 l 250 93 b 242 101 244 93 242 96 l 242 931 b 228 944 242 940 238 944 z m 129 1046 b 138 1031 124 1036 126 1031 l 199 1031 b 215 1039 204 1031 210 1033 l 382 1229 b 375 1246 389 1239 386 1246 l 279 1246 b 261 1236 272 1246 267 1242 z "},"Ľ":{"ha":601,"x_min":0,"x_max":0,"o":"m 150 944 b 136 931 143 944 136 940 l 136 14 b 150 0 136 7 143 0 l 551 0 b 565 14 561 0 565 7 l 565 79 b 551 93 565 89 561 93 l 250 93 b 242 101 244 93 242 96 l 242 931 b 228 944 242 940 238 944 z m 314 794 b 326 779 313 785 317 779 l 376 779 b 390 792 385 779 389 783 l 444 1022 b 433 1038 446 1032 443 1038 l 357 1038 b 343 1025 350 1038 344 1033 z "},"Ļ":{"ha":601,"x_min":0,"x_max":0,"o":"m 150 944 b 136 931 143 944 136 940 l 136 14 b 150 0 136 7 143 0 l 551 0 b 565 14 561 0 565 7 l 565 79 b 551 93 565 89 561 93 l 250 93 b 242 101 244 93 242 96 l 242 931 b 228 944 242 940 238 944 z m 275 -321 b 288 -332 275 -328 281 -332 l 338 -332 b 353 -319 344 -332 350 -328 l 418 -89 b 407 -74 419 -79 417 -74 l 331 -74 b 317 -86 322 -74 318 -78 l 278 -301 z "},"Ŀ":{"ha":601,"x_min":0,"x_max":0,"o":"m 150 944 b 136 931 143 944 136 940 l 136 14 b 150 0 136 7 143 0 l 551 0 b 565 14 561 0 565 7 l 565 79 b 551 93 565 89 561 93 l 250 93 b 242 101 244 93 242 96 l 242 931 b 228 944 242 940 238 944 z m 576 501 b 489 589 576 553 539 589 b 404 501 440 589 404 553 b 489 415 404 451 440 415 b 576 501 539 415 576 451 z "},"Ł":{"ha":610,"x_min":0,"x_max":0,"o":"m 560 0 b 574 14 569 0 574 7 l 574 79 b 560 93 574 89 569 93 l 258 93 b 250 101 253 93 250 96 l 250 397 b 260 414 250 404 253 410 l 458 533 b 468 550 465 538 468 543 l 468 610 b 460 621 468 617 465 621 b 450 618 458 621 456 619 l 260 506 b 250 511 253 501 250 504 l 250 931 b 236 944 250 940 246 944 l 158 944 b 144 931 151 944 144 940 l 144 458 b 135 442 144 451 142 446 l 44 388 b 35 371 38 383 35 378 l 35 310 b 43 299 35 303 38 299 b 53 301 44 299 47 300 l 135 350 b 144 344 142 354 144 351 l 144 14 b 158 0 144 7 151 0 z "},"M":{"ha":1278,"x_min":0,"x_max":0,"o":"m 293 835 b 572 65 347 689 440 433 b 589 51 576 54 579 51 l 685 51 b 703 67 694 51 697 54 l 753 204 l 904 622 b 986 838 949 743 976 815 b 994 847 990 844 990 847 b 1000 833 997 847 999 843 b 1031 460 1007 763 1017 638 b 1064 14 1046 283 1057 135 b 1078 0 1064 7 1071 0 l 1161 0 b 1175 14 1171 0 1175 7 b 1135 494 1165 143 1151 304 b 1096 931 1119 686 1106 832 b 1081 944 1094 940 1090 944 l 940 944 b 922 931 933 944 926 940 l 649 183 b 640 172 647 176 644 172 b 632 183 636 172 633 176 b 364 931 600 281 510 529 b 346 944 360 940 354 944 l 203 944 b 188 932 196 944 189 939 b 150 532 178 836 165 703 l 104 14 b 117 0 104 4 108 0 l 197 0 b 211 14 207 0 211 7 b 250 526 224 182 236 353 b 276 832 264 700 272 803 b 283 847 278 842 279 847 b 293 835 288 847 290 843 z "},"N":{"ha":1017,"x_min":0,"x_max":0,"o":"m 750 17 b 775 0 757 6 764 0 l 867 0 b 881 14 876 0 881 7 l 881 931 b 867 944 881 940 876 944 l 788 944 b 774 931 781 944 774 940 l 782 176 b 776 165 782 169 781 165 b 765 174 772 165 765 171 b 286 931 642 375 482 626 b 264 944 281 940 274 944 l 150 944 b 136 931 143 944 136 940 l 136 14 b 150 0 136 7 143 0 l 228 0 b 242 14 238 0 242 7 l 233 794 b 242 811 233 806 236 811 b 254 803 246 811 250 808 b 750 17 394 585 560 322 z "},"Ń":{"ha":1017,"x_min":0,"x_max":0,"o":"m 750 17 b 775 0 757 6 764 0 l 867 0 b 881 14 876 0 881 7 l 881 931 b 867 944 881 940 876 944 l 788 944 b 774 931 781 944 774 940 l 782 176 b 776 165 782 169 781 165 b 765 174 772 165 765 171 b 286 931 642 375 482 626 b 264 944 281 940 274 944 l 150 944 b 136 931 143 944 136 940 l 136 14 b 150 0 136 7 143 0 l 228 0 b 242 14 238 0 242 7 l 233 794 b 242 811 233 806 236 811 b 254 803 246 811 250 808 b 750 17 394 585 560 322 z m 449 1046 b 457 1031 443 1036 446 1031 l 518 1031 b 535 1039 524 1031 529 1033 l 701 1229 b 694 1246 708 1239 706 1246 l 599 1246 b 581 1236 592 1246 586 1242 z "},"Ň":{"ha":1017,"x_min":0,"x_max":0,"o":"m 750 17 b 775 0 757 6 764 0 l 867 0 b 881 14 876 0 881 7 l 881 931 b 867 944 881 940 876 944 l 788 944 b 774 931 781 944 774 940 l 782 176 b 776 165 782 169 781 165 b 765 174 772 165 765 171 b 286 931 642 375 482 626 b 264 944 281 940 274 944 l 150 944 b 136 931 143 944 136 940 l 136 14 b 150 0 136 7 143 0 l 228 0 b 242 14 238 0 242 7 l 233 794 b 242 811 233 806 236 811 b 254 803 246 811 250 808 b 750 17 394 585 560 322 z m 435 1043 b 458 1031 442 1033 447 1031 l 560 1031 b 583 1043 571 1031 576 1033 l 736 1229 b 728 1246 743 1239 739 1246 l 663 1246 b 646 1238 656 1246 650 1243 l 518 1101 b 499 1101 514 1096 504 1096 l 372 1238 b 356 1246 367 1243 361 1246 l 290 1246 b 279 1238 283 1246 279 1243 b 282 1229 279 1233 281 1231 z "},"Ņ":{"ha":1017,"x_min":0,"x_max":0,"o":"m 750 17 b 775 0 757 6 764 0 l 867 0 b 881 14 876 0 881 7 l 881 931 b 867 944 881 940 876 944 l 788 944 b 774 931 781 944 774 940 l 782 176 b 776 165 782 169 781 165 b 765 174 772 165 765 171 b 286 931 642 375 482 626 b 264 944 281 940 274 944 l 150 944 b 136 931 143 944 136 940 l 136 14 b 150 0 136 7 143 0 l 228 0 b 242 14 238 0 242 7 l 233 794 b 242 811 233 806 236 811 b 254 803 246 811 250 808 b 750 17 394 585 560 322 z m 433 -321 b 446 -332 433 -328 439 -332 l 496 -332 b 511 -319 503 -332 508 -328 l 576 -89 b 565 -74 578 -79 575 -74 l 489 -74 b 475 -86 481 -74 476 -78 l 436 -301 z "},"Ŋ":{"ha":1017,"x_min":0,"x_max":0,"o":"m 625 -275 b 881 81 806 -253 881 -149 l 881 931 b 867 944 881 940 876 944 l 788 944 b 774 931 781 944 774 940 l 782 175 b 775 163 782 167 779 163 b 765 172 771 163 769 167 b 539 535 701 276 626 397 b 286 931 453 672 368 804 b 263 944 281 940 272 944 l 150 944 b 136 931 143 944 136 940 l 136 14 b 150 0 136 7 143 0 l 228 0 b 242 14 238 0 242 7 l 233 794 b 242 811 233 806 236 811 b 254 803 246 811 250 808 b 490 428 319 701 397 576 b 747 14 583 281 668 143 b 767 0 754 3 760 0 b 774 -11 772 0 775 -4 b 601 -185 757 -111 715 -171 b 589 -194 594 -185 589 -189 l 590 -199 l 610 -264 b 625 -275 611 -274 615 -275 z "},"Ñ":{"ha":1017,"x_min":0,"x_max":0,"o":"m 750 17 b 775 0 757 6 764 0 l 867 0 b 881 14 876 0 881 7 l 881 931 b 867 944 881 940 876 944 l 788 944 b 774 931 781 944 774 940 l 782 176 b 776 165 782 169 781 165 b 765 174 772 165 765 171 b 286 931 642 375 482 626 b 264 944 281 940 274 944 l 150 944 b 136 931 143 944 136 940 l 136 14 b 150 0 136 7 143 0 l 228 0 b 242 14 238 0 242 7 l 233 794 b 242 811 233 806 236 811 b 254 803 246 811 250 808 b 750 17 394 585 560 322 z m 263 1054 b 275 1042 263 1047 268 1042 l 319 1042 b 331 1054 326 1042 331 1047 b 399 1147 335 1111 360 1147 b 492 1100 426 1147 449 1133 b 619 1044 543 1057 575 1044 b 753 1217 704 1044 753 1131 b 740 1229 753 1225 749 1229 l 696 1229 b 683 1218 689 1229 685 1225 b 615 1125 679 1156 656 1125 b 525 1171 589 1125 565 1138 b 396 1228 474 1214 440 1228 b 263 1054 313 1228 263 1142 z "},"O":{"ha":1083,"x_min":0,"x_max":0,"o":"m 997 474 b 539 961 1000 733 829 965 b 86 474 249 965 83 733 b 539 -17 83 214 249 -21 b 997 474 829 -21 1000 214 z m 888 474 b 539 76 888 269 782 76 b 196 474 299 76 196 269 b 539 868 196 678 299 868 b 888 474 782 868 888 676 z "},"Ó":{"ha":1083,"x_min":0,"x_max":0,"o":"m 997 474 b 539 961 1000 733 829 965 b 86 474 249 965 83 733 b 539 -17 83 214 249 -21 b 997 474 829 -21 1000 214 z m 888 474 b 539 76 888 269 782 76 b 196 474 299 76 196 269 b 539 868 196 678 299 868 b 888 474 782 868 888 676 z m 482 1046 b 490 1031 476 1036 479 1031 l 551 1031 b 568 1039 557 1031 563 1033 l 735 1229 b 728 1246 742 1239 739 1246 l 632 1246 b 614 1236 625 1246 619 1242 z "},"Ŏ":{"ha":1083,"x_min":0,"x_max":0,"o":"m 997 474 b 539 961 1000 733 829 965 b 86 474 249 965 83 733 b 539 -17 83 214 249 -21 b 997 474 829 -21 1000 214 z m 888 474 b 539 76 888 269 782 76 b 196 474 299 76 196 269 b 539 868 196 678 299 868 b 888 474 782 868 888 676 z m 326 1228 b 540 1019 326 1093 400 1019 b 757 1228 681 1019 757 1094 b 744 1240 757 1236 753 1240 l 694 1240 b 682 1228 686 1240 682 1236 b 542 1099 682 1143 629 1099 b 401 1228 457 1099 401 1143 b 389 1240 401 1236 397 1240 l 339 1240 b 326 1228 332 1240 326 1235 z "},"Ô":{"ha":1083,"x_min":0,"x_max":0,"o":"m 997 474 b 539 961 1000 733 829 965 b 86 474 249 965 83 733 b 539 -17 83 214 249 -21 b 997 474 829 -21 1000 214 z m 888 474 b 539 76 888 269 782 76 b 196 474 299 76 196 269 b 539 868 196 678 299 868 b 888 474 782 868 888 676 z m 617 1233 b 593 1246 610 1243 604 1246 l 492 1246 b 468 1233 481 1246 475 1243 l 315 1046 b 324 1031 308 1036 313 1031 l 389 1031 b 406 1038 393 1031 399 1033 l 532 1174 b 542 1179 535 1178 538 1179 b 551 1174 547 1179 550 1178 l 679 1038 b 696 1031 683 1033 689 1031 l 761 1031 b 772 1038 768 1031 772 1033 b 769 1046 772 1042 771 1044 z "},"Ö":{"ha":1083,"x_min":0,"x_max":0,"o":"m 997 474 b 539 961 1000 733 829 965 b 86 474 249 965 83 733 b 539 -17 83 214 249 -21 b 997 474 829 -21 1000 214 z m 888 474 b 539 76 888 269 782 76 b 196 474 299 76 196 269 b 539 868 196 678 299 868 b 888 474 782 868 888 676 z m 325 1131 b 401 1054 325 1086 358 1054 b 478 1131 446 1054 478 1086 b 401 1206 478 1174 446 1206 b 325 1131 358 1206 325 1174 z m 606 1131 b 682 1054 606 1086 638 1054 b 758 1131 726 1054 758 1086 b 682 1206 758 1174 726 1206 b 606 1131 638 1206 606 1174 z "},"Ò":{"ha":1083,"x_min":0,"x_max":0,"o":"m 997 474 b 539 961 1000 733 829 965 b 86 474 249 965 83 733 b 539 -17 83 214 249 -21 b 997 474 829 -21 1000 214 z m 888 474 b 539 76 888 269 782 76 b 196 474 299 76 196 269 b 539 868 196 678 299 868 b 888 474 782 868 888 676 z m 597 1031 b 608 1038 604 1031 608 1033 b 606 1046 608 1039 607 1042 l 474 1236 b 456 1246 468 1242 463 1246 l 360 1246 b 349 1238 353 1246 349 1243 b 353 1229 349 1235 350 1232 l 519 1039 b 536 1031 525 1033 531 1031 z "},"Ő":{"ha":1083,"x_min":0,"x_max":0,"o":"m 997 474 b 539 961 1000 733 829 965 b 86 474 249 965 83 733 b 539 -17 83 214 249 -21 b 997 474 829 -21 1000 214 z m 888 474 b 539 76 888 269 782 76 b 196 474 299 76 196 269 b 539 868 196 678 299 868 b 888 474 782 868 888 676 z m 381 1046 b 389 1031 375 1036 378 1031 l 450 1031 b 467 1039 456 1031 461 1033 l 625 1229 b 618 1246 632 1236 629 1246 l 525 1246 b 508 1236 518 1246 513 1243 z m 607 1046 b 615 1031 601 1036 604 1031 l 676 1031 b 693 1039 682 1031 688 1033 l 851 1229 b 844 1246 858 1236 856 1246 l 751 1246 b 735 1236 744 1246 739 1243 z "},"Ō":{"ha":1083,"x_min":0,"x_max":0,"o":"m 997 474 b 539 961 1000 733 829 965 b 86 474 249 965 83 733 b 539 -17 83 214 249 -21 b 997 474 829 -21 1000 214 z m 888 474 b 539 76 888 269 782 76 b 196 474 299 76 196 269 b 539 868 196 678 299 868 b 888 474 782 868 888 676 z m 328 1101 b 340 1088 328 1094 333 1088 l 739 1088 b 753 1101 747 1088 751 1092 l 757 1157 b 743 1171 757 1167 753 1171 l 344 1171 b 332 1157 338 1171 333 1167 z "},"Ø":{"ha":1083,"x_min":0,"x_max":0,"o":"m 269 67 b 539 -17 343 11 432 -17 b 999 474 829 -21 1001 214 b 888 807 999 600 960 718 b 888 819 885 811 885 815 l 976 928 b 969 944 983 935 981 944 l 886 944 b 868 936 879 944 872 942 l 824 881 b 810 879 819 876 814 875 b 539 961 739 931 644 961 b 86 474 250 965 83 733 b 193 142 86 347 122 231 b 192 126 196 138 196 132 l 101 17 b 108 0 94 7 97 0 l 193 0 b 210 8 199 0 204 3 l 257 65 b 269 67 261 69 265 69 z m 271 222 b 258 225 267 218 263 219 b 196 474 215 296 196 383 b 539 868 196 678 299 868 b 747 804 622 868 692 847 b 747 792 751 803 751 796 z m 889 474 b 539 76 889 271 781 76 b 332 140 454 76 385 97 b 332 154 328 144 328 150 l 807 724 b 821 724 811 729 819 729 b 889 474 867 651 889 564 z "},"Õ":{"ha":1083,"x_min":0,"x_max":0,"o":"m 997 474 b 539 961 1000 733 829 965 b 86 474 249 965 83 733 b 539 -17 83 214 249 -21 b 997 474 829 -21 1000 214 z m 888 474 b 539 76 888 269 782 76 b 196 474 299 76 196 269 b 539 868 196 678 299 868 b 888 474 782 868 888 676 z m 296 1054 b 308 1042 296 1047 301 1042 l 353 1042 b 364 1054 360 1042 364 1047 b 432 1147 368 1111 393 1147 b 525 1100 460 1147 482 1133 b 653 1044 576 1057 608 1044 b 786 1217 738 1044 786 1131 b 774 1229 786 1225 782 1229 l 729 1229 b 717 1218 722 1229 718 1225 b 649 1125 713 1156 689 1125 b 558 1171 622 1125 599 1138 b 429 1228 507 1214 474 1228 b 296 1054 346 1228 296 1142 z "},"Œ":{"ha":1214,"x_min":0,"x_max":0,"o":"m 86 472 b 565 0 86 150 283 0 l 1125 0 b 1139 14 1135 0 1139 7 l 1139 79 b 1125 93 1139 89 1135 93 l 779 93 b 771 101 774 93 771 96 l 771 436 b 779 444 771 442 774 444 l 1090 444 b 1104 458 1100 444 1104 451 l 1104 524 b 1090 538 1104 533 1100 538 l 779 538 b 771 546 774 538 771 540 l 771 843 b 779 851 771 849 774 851 l 1111 851 b 1125 865 1121 851 1125 858 l 1125 931 b 1111 944 1125 940 1121 944 l 564 944 b 86 472 294 944 86 774 z m 568 93 b 299 181 457 93 367 122 b 196 472 231 239 196 336 b 574 851 196 735 363 851 l 657 851 b 665 843 663 851 665 849 l 665 101 b 657 93 665 96 663 93 z "},"P":{"ha":764,"x_min":0,"x_max":0,"o":"m 136 14 b 150 0 136 7 143 0 l 228 0 b 242 14 238 0 242 7 l 242 356 b 251 365 242 363 244 365 b 356 360 292 361 326 360 b 694 657 553 360 694 461 b 592 882 694 765 660 840 b 315 944 524 924 431 944 l 150 944 b 136 931 143 944 136 940 z m 349 447 b 251 453 308 447 275 449 b 242 464 244 454 242 457 l 242 846 b 250 854 242 851 244 854 l 308 854 b 590 656 499 854 590 799 b 349 447 590 518 504 447 z "},"Þ":{"ha":764,"x_min":0,"x_max":0,"o":"m 136 14 b 150 0 136 7 143 0 l 228 0 b 242 14 238 0 242 7 l 242 182 b 249 192 242 188 244 192 l 251 192 b 356 186 292 188 326 186 b 694 483 553 186 694 288 b 592 708 694 592 660 667 b 315 771 524 750 432 771 l 250 771 b 242 779 244 771 242 774 l 242 931 b 228 944 242 940 238 944 l 150 944 b 136 931 143 944 136 940 z m 590 482 b 349 274 590 347 503 274 b 251 279 308 274 275 275 b 242 290 244 281 242 283 l 242 674 b 250 682 242 679 244 682 l 308 682 b 590 482 499 682 590 625 z "},"Q":{"ha":1086,"x_min":0,"x_max":0,"o":"m 801 63 b 807 71 801 65 803 68 b 997 474 929 154 997 307 b 539 961 1000 733 831 965 b 86 474 249 965 83 733 b 539 -17 83 214 250 -21 b 682 6 593 -17 633 -10 b 704 1 692 8 699 7 b 883 -124 744 -29 804 -71 b 1081 -249 963 -176 1029 -218 b 1094 -253 1085 -251 1090 -253 b 1108 -249 1099 -253 1103 -251 l 1172 -199 b 1178 -189 1176 -196 1178 -193 b 1172 -179 1178 -185 1176 -181 b 967 -53 1113 -144 1044 -101 b 808 53 890 -4 838 31 b 801 63 804 57 801 61 z m 888 474 b 539 76 888 271 778 76 b 196 474 299 76 196 269 b 539 868 196 678 299 868 b 888 474 782 868 888 676 z "},"R":{"ha":819,"x_min":0,"x_max":0,"o":"m 132 14 b 146 0 132 7 139 0 l 224 0 b 238 14 233 0 238 7 l 238 388 b 246 396 238 393 240 396 l 386 396 b 403 386 392 396 397 393 b 524 224 422 363 463 308 b 679 10 586 140 638 69 b 699 0 683 3 690 0 l 797 0 b 807 8 804 0 807 4 b 806 15 807 11 807 14 b 506 415 653 224 553 357 b 510 425 501 419 504 424 b 693 685 631 469 693 551 b 363 944 693 865 553 944 l 146 944 b 132 931 139 944 132 940 z m 586 682 b 357 478 586 554 511 478 l 246 478 b 238 486 240 478 238 481 l 238 844 b 246 853 238 850 240 853 l 353 853 b 586 682 503 853 586 794 z "},"Ŕ":{"ha":819,"x_min":0,"x_max":0,"o":"m 132 14 b 146 0 132 7 139 0 l 224 0 b 238 14 233 0 238 7 l 238 388 b 246 396 238 393 240 396 l 386 396 b 403 386 392 396 397 393 b 524 224 422 363 463 308 b 679 10 586 140 638 69 b 699 0 683 3 690 0 l 797 0 b 807 8 804 0 807 4 b 806 15 807 11 807 14 b 506 415 653 224 553 357 b 510 425 501 419 504 424 b 693 685 631 469 693 551 b 363 944 693 865 553 944 l 146 944 b 132 931 139 944 132 940 z m 586 682 b 357 478 586 554 511 478 l 246 478 b 238 486 240 478 238 481 l 238 844 b 246 853 238 850 240 853 l 353 853 b 586 682 503 853 586 794 z m 336 1046 b 344 1031 331 1036 333 1031 l 406 1031 b 422 1039 411 1031 417 1033 l 589 1229 b 582 1246 596 1239 593 1246 l 486 1246 b 468 1236 479 1246 474 1242 z "},"Ř":{"ha":819,"x_min":0,"x_max":0,"o":"m 132 14 b 146 0 132 7 139 0 l 224 0 b 238 14 233 0 238 7 l 238 388 b 246 396 238 393 240 396 l 386 396 b 403 386 392 396 397 393 b 524 224 422 363 463 308 b 679 10 586 140 638 69 b 699 0 683 3 690 0 l 797 0 b 807 8 804 0 807 4 b 806 15 807 11 807 14 b 506 415 653 224 553 357 b 510 425 501 419 504 424 b 693 685 631 469 693 551 b 363 944 693 865 553 944 l 146 944 b 132 931 139 944 132 940 z m 586 682 b 357 478 586 554 511 478 l 246 478 b 238 486 240 478 238 481 l 238 844 b 246 853 238 850 240 853 l 353 853 b 586 682 503 853 586 794 z m 322 1043 b 346 1031 329 1033 335 1031 l 447 1031 b 471 1043 458 1031 464 1033 l 624 1229 b 615 1246 631 1239 626 1246 l 550 1246 b 533 1238 543 1246 538 1243 l 406 1101 b 386 1101 401 1096 392 1096 l 260 1238 b 243 1246 254 1243 249 1246 l 178 1246 b 167 1238 171 1246 167 1243 b 169 1229 167 1233 168 1231 z "},"Ŗ":{"ha":819,"x_min":0,"x_max":0,"o":"m 132 14 b 146 0 132 7 139 0 l 224 0 b 238 14 233 0 238 7 l 238 388 b 246 396 238 393 240 396 l 386 396 b 403 386 392 396 397 393 b 524 224 422 363 463 308 b 679 10 586 140 638 69 b 699 0 683 3 690 0 l 797 0 b 807 8 804 0 807 4 b 806 15 807 11 807 14 b 506 415 653 224 553 357 b 510 425 501 419 504 424 b 693 685 631 469 693 551 b 363 944 693 865 553 944 l 146 944 b 132 931 139 944 132 940 z m 586 682 b 357 478 586 554 511 478 l 246 478 b 238 486 240 478 238 481 l 238 844 b 246 853 238 850 240 853 l 353 853 b 586 682 503 853 586 794 z m 342 -321 b 354 -332 342 -328 347 -332 l 404 -332 b 419 -319 411 -332 417 -328 l 485 -89 b 474 -74 486 -79 483 -74 l 397 -74 b 383 -86 389 -74 385 -78 l 344 -301 z "},"S":{"ha":685,"x_min":0,"x_max":0,"o":"m 379 869 b 535 849 432 869 483 863 b 550 856 544 846 549 849 l 560 922 b 549 940 561 932 558 939 b 376 961 493 956 443 961 b 75 701 225 961 75 875 b 303 443 75 556 158 497 b 507 246 460 382 507 338 b 306 72 507 133 429 72 b 100 106 232 72 163 83 b 88 96 94 107 88 103 l 88 24 b 99 11 88 17 92 13 b 306 -17 164 -7 233 -17 b 613 257 493 -17 613 79 b 361 528 613 392 532 465 b 181 707 231 576 181 615 b 379 869 181 826 279 869 z "},"Ś":{"ha":685,"x_min":0,"x_max":0,"o":"m 379 869 b 535 849 432 869 483 863 b 550 856 544 846 549 849 l 560 922 b 549 940 561 932 558 939 b 376 961 493 956 443 961 b 75 701 225 961 75 875 b 303 443 75 556 158 497 b 507 246 460 382 507 338 b 306 72 507 133 429 72 b 100 106 232 72 163 83 b 88 96 94 107 88 103 l 88 24 b 99 11 88 17 92 13 b 306 -17 164 -7 233 -17 b 613 257 493 -17 613 79 b 361 528 613 392 532 465 b 181 707 231 576 181 615 b 379 869 181 826 279 869 z m 292 1046 b 300 1031 286 1036 289 1031 l 361 1031 b 378 1039 367 1031 372 1033 l 544 1229 b 538 1246 551 1239 549 1246 l 442 1246 b 424 1236 435 1246 429 1242 z "},"Š":{"ha":685,"x_min":0,"x_max":0,"o":"m 379 869 b 535 849 432 869 483 863 b 550 856 544 846 549 849 l 560 922 b 549 940 561 932 558 939 b 376 961 493 956 443 961 b 75 701 225 961 75 875 b 303 443 75 556 158 497 b 507 246 460 382 507 338 b 306 72 507 133 429 72 b 100 106 232 72 163 83 b 88 96 94 107 88 103 l 88 24 b 99 11 88 17 92 13 b 306 -17 164 -7 233 -17 b 613 257 493 -17 613 79 b 361 528 613 392 532 465 b 181 707 231 576 181 615 b 379 869 181 826 279 869 z m 278 1043 b 301 1031 285 1033 290 1031 l 403 1031 b 426 1043 414 1031 419 1033 l 579 1229 b 571 1246 586 1239 582 1246 l 506 1246 b 489 1238 499 1246 493 1243 l 361 1101 b 342 1101 357 1096 347 1096 l 215 1238 b 199 1246 210 1243 204 1246 l 133 1246 b 122 1238 126 1246 122 1243 b 125 1229 122 1233 124 1231 z "},"Ş":{"ha":685,"x_min":0,"x_max":0,"o":"m 243 -324 b 258 -335 244 -331 249 -335 b 489 -192 413 -335 489 -287 b 347 -94 489 -131 442 -96 b 339 -85 340 -94 338 -92 l 354 -22 b 364 -14 356 -17 358 -14 b 613 257 519 7 613 100 b 361 528 613 392 532 465 b 181 707 231 576 181 615 b 379 869 181 826 279 869 b 535 849 432 869 483 863 b 550 856 544 846 549 849 l 560 922 b 549 940 561 932 558 939 b 376 961 493 956 443 961 b 75 701 225 961 75 875 b 303 443 75 556 158 497 b 507 246 460 382 507 338 b 306 72 507 133 429 72 b 100 106 232 72 163 83 b 88 96 94 107 88 103 l 88 24 b 99 11 88 17 92 13 b 272 -15 156 -6 207 -14 b 281 -22 276 -15 281 -18 l 281 -25 l 268 -74 b 256 -126 265 -90 261 -108 b 268 -142 253 -136 257 -142 l 279 -142 b 403 -196 367 -142 403 -157 b 250 -275 403 -247 357 -275 b 239 -286 243 -275 239 -279 l 239 -289 l 243 -324 z "},"Ŝ":{"ha":685,"x_min":0,"x_max":0,"o":"m 379 869 b 535 849 432 869 483 863 b 550 856 544 846 549 849 l 560 922 b 549 940 561 932 558 939 b 376 961 493 956 443 961 b 75 701 225 961 75 875 b 303 443 75 556 158 497 b 507 246 460 382 507 338 b 306 72 507 133 429 72 b 100 106 232 72 163 83 b 88 96 94 107 88 103 l 88 24 b 99 11 88 17 92 13 b 306 -17 164 -7 233 -17 b 613 257 493 -17 613 79 b 361 528 613 392 532 465 b 181 707 231 576 181 615 b 379 869 181 826 279 869 z m 426 1233 b 403 1246 419 1243 414 1246 l 301 1246 b 278 1233 290 1246 285 1243 l 125 1046 b 133 1031 118 1036 122 1031 l 199 1031 b 215 1038 203 1031 208 1033 l 342 1174 b 351 1179 344 1178 347 1179 b 361 1174 357 1179 360 1178 l 489 1038 b 506 1031 493 1033 499 1031 l 571 1031 b 582 1038 578 1031 582 1033 b 579 1046 582 1042 581 1044 z "},"Ș":{"ha":685,"x_min":0,"x_max":0,"o":"m 379 869 b 535 849 432 869 483 863 b 550 856 544 846 549 849 l 560 922 b 549 940 561 932 558 939 b 376 961 493 956 443 961 b 75 701 225 961 75 875 b 303 443 75 556 158 497 b 507 246 460 382 507 338 b 306 72 507 133 429 72 b 100 106 232 72 163 83 b 88 96 94 107 88 103 l 88 24 b 99 11 88 17 92 13 b 306 -17 164 -7 233 -17 b 613 257 493 -17 613 79 b 361 528 613 392 532 465 b 181 707 231 576 181 615 b 379 869 181 826 279 869 z m 260 -321 b 272 -332 260 -328 265 -332 l 322 -332 b 338 -319 329 -332 335 -328 l 403 -89 b 392 -74 404 -79 401 -74 l 315 -74 b 301 -86 307 -74 303 -78 l 263 -301 z "},"ẞ":{"ha":949,"x_min":0,"x_max":0,"o":"m 417 -3 b 542 -17 444 -12 496 -17 b 854 274 722 -17 854 90 b 592 550 854 444 749 550 l 569 549 b 563 558 563 547 558 553 l 781 821 b 788 842 785 826 788 833 l 788 931 b 774 944 788 940 783 944 l 442 944 b 136 650 238 944 136 849 l 136 14 b 150 0 136 7 143 0 l 228 0 b 242 14 238 0 242 7 l 242 638 b 438 851 242 783 300 851 l 665 851 b 671 842 672 851 675 847 l 424 542 b 417 522 418 536 417 529 l 417 469 b 425 460 417 463 419 460 l 431 461 b 538 472 454 468 503 472 b 746 274 672 472 746 392 b 529 74 746 151 661 74 b 426 85 492 74 447 79 b 406 72 413 89 406 85 l 406 13 b 417 -3 406 3 410 -1 z "},"T":{"ha":696,"x_min":0,"x_max":0,"o":"m 388 0 b 401 14 397 0 401 7 l 401 843 b 410 851 401 849 404 851 l 658 851 b 672 865 668 851 672 858 l 672 931 b 658 944 672 940 668 944 l 38 944 b 24 931 31 944 24 940 l 24 865 b 38 851 24 858 31 851 l 288 851 b 296 843 293 851 296 849 l 296 14 b 310 0 296 7 303 0 z "},"Ŧ":{"ha":696,"x_min":0,"x_max":0,"o":"m 24 865 b 38 851 24 858 31 851 l 288 851 b 296 843 293 851 296 849 l 296 532 b 288 524 296 526 293 524 l 118 524 b 104 510 111 524 104 519 l 104 456 b 118 442 104 449 111 442 l 288 442 b 296 433 293 442 296 439 l 296 14 b 310 0 296 7 303 0 l 388 0 b 401 14 397 0 401 7 l 401 433 b 410 442 401 439 404 442 l 579 442 b 593 456 589 442 593 449 l 593 510 b 579 524 593 519 589 524 l 410 524 b 401 532 404 524 401 526 l 401 843 b 410 851 401 849 404 851 l 658 851 b 672 865 668 851 672 858 l 672 931 b 658 944 672 940 668 944 l 38 944 b 24 931 31 944 24 940 z "},"Ť":{"ha":696,"x_min":0,"x_max":0,"o":"m 388 0 b 401 14 397 0 401 7 l 401 843 b 410 851 401 849 404 851 l 658 851 b 672 865 668 851 672 858 l 672 931 b 658 944 672 940 668 944 l 38 944 b 24 931 31 944 24 940 l 24 865 b 38 851 24 858 31 851 l 288 851 b 296 843 293 851 296 849 l 296 14 b 310 0 296 7 303 0 z m 275 1043 b 299 1031 282 1033 288 1031 l 400 1031 b 424 1043 411 1031 417 1033 l 576 1229 b 568 1246 583 1239 579 1246 l 503 1246 b 486 1238 496 1246 490 1243 l 358 1101 b 339 1101 354 1096 344 1096 l 213 1238 b 196 1246 207 1243 201 1246 l 131 1246 b 119 1238 124 1246 119 1243 b 122 1229 119 1233 121 1231 z "},"Ţ":{"ha":696,"x_min":0,"x_max":0,"o":"m 267 -324 b 282 -335 268 -331 272 -335 b 513 -192 436 -335 513 -287 b 371 -94 513 -131 465 -96 b 363 -85 364 -94 361 -92 l 379 -15 b 392 0 381 -8 386 -4 b 401 19 399 4 401 10 l 401 843 b 410 851 401 849 404 851 l 657 851 b 671 865 667 851 671 858 l 671 931 b 657 944 671 940 667 944 l 38 944 b 24 931 31 944 24 940 l 24 865 b 38 851 24 858 31 851 l 288 851 b 296 843 293 851 296 849 l 296 18 b 303 1 296 10 299 4 b 307 -12 307 -1 308 -6 l 279 -126 b 292 -142 276 -136 281 -142 l 303 -142 b 426 -196 390 -142 426 -157 b 274 -275 426 -247 381 -275 b 263 -286 267 -275 263 -279 l 263 -289 l 267 -324 z "},"Ț":{"ha":696,"x_min":0,"x_max":0,"o":"m 388 0 b 401 14 397 0 401 7 l 401 843 b 410 851 401 849 404 851 l 658 851 b 672 865 668 851 672 858 l 672 931 b 658 944 672 940 668 944 l 38 944 b 24 931 31 944 24 940 l 24 865 b 38 851 24 858 31 851 l 288 851 b 296 843 293 851 296 849 l 296 14 b 310 0 296 7 303 0 z m 272 -321 b 285 -332 272 -328 278 -332 l 335 -332 b 350 -319 342 -332 347 -328 l 415 -89 b 404 -74 417 -79 414 -74 l 328 -74 b 314 -86 319 -74 315 -78 l 275 -301 z "},"U":{"ha":963,"x_min":0,"x_max":0,"o":"m 482 -17 b 842 340 717 -17 842 113 l 842 931 b 828 944 842 940 838 944 l 750 944 b 736 931 743 944 736 940 l 736 356 b 482 72 736 167 654 72 b 226 356 311 72 226 165 l 226 931 b 213 944 226 940 222 944 l 135 944 b 121 931 128 944 121 940 l 121 340 b 482 -17 121 111 244 -17 z "},"Ú":{"ha":963,"x_min":0,"x_max":0,"o":"m 482 -17 b 842 340 717 -17 842 113 l 842 931 b 828 944 842 940 838 944 l 750 944 b 736 931 743 944 736 940 l 736 356 b 482 72 736 167 654 72 b 226 356 311 72 226 165 l 226 931 b 213 944 226 940 222 944 l 135 944 b 121 931 128 944 121 940 l 121 340 b 482 -17 121 111 244 -17 z m 422 1046 b 431 1031 417 1036 419 1031 l 492 1031 b 508 1039 497 1031 503 1033 l 675 1229 b 668 1246 682 1239 679 1246 l 572 1246 b 554 1236 565 1246 560 1242 z "},"Ŭ":{"ha":963,"x_min":0,"x_max":0,"o":"m 482 -17 b 842 340 717 -17 842 113 l 842 931 b 828 944 842 940 838 944 l 750 944 b 736 931 743 944 736 940 l 736 356 b 482 72 736 167 654 72 b 226 356 311 72 226 165 l 226 931 b 213 944 226 940 222 944 l 135 944 b 121 931 128 944 121 940 l 121 340 b 482 -17 121 111 244 -17 z m 267 1228 b 481 1019 267 1093 340 1019 b 697 1228 621 1019 697 1094 b 685 1240 697 1236 693 1240 l 635 1240 b 622 1228 626 1240 622 1236 b 482 1099 622 1143 569 1099 b 342 1228 397 1099 342 1143 b 329 1240 342 1236 338 1240 l 279 1240 b 267 1228 272 1240 267 1235 z "},"Û":{"ha":963,"x_min":0,"x_max":0,"o":"m 482 -17 b 842 340 717 -17 842 113 l 842 931 b 828 944 842 940 838 944 l 750 944 b 736 931 743 944 736 940 l 736 356 b 482 72 736 167 654 72 b 226 356 311 72 226 165 l 226 931 b 213 944 226 940 222 944 l 135 944 b 121 931 128 944 121 940 l 121 340 b 482 -17 121 111 244 -17 z m 557 1233 b 533 1246 550 1243 544 1246 l 432 1246 b 408 1233 421 1246 415 1243 l 256 1046 b 264 1031 249 1036 253 1031 l 329 1031 b 346 1038 333 1031 339 1033 l 472 1174 b 482 1179 475 1178 478 1179 b 492 1174 488 1179 490 1178 l 619 1038 b 636 1031 624 1033 629 1031 l 701 1031 b 713 1038 708 1031 713 1033 b 710 1046 713 1042 711 1044 z "},"Ü":{"ha":963,"x_min":0,"x_max":0,"o":"m 482 -17 b 842 340 717 -17 842 113 l 842 931 b 828 944 842 940 838 944 l 750 944 b 736 931 743 944 736 940 l 736 356 b 482 72 736 167 654 72 b 226 356 311 72 226 165 l 226 931 b 213 944 226 940 222 944 l 135 944 b 121 931 128 944 121 940 l 121 340 b 482 -17 121 111 244 -17 z m 265 1131 b 342 1054 265 1086 299 1054 b 418 1131 386 1054 418 1086 b 342 1206 418 1174 386 1206 b 265 1131 299 1206 265 1174 z m 546 1131 b 622 1054 546 1086 578 1054 b 699 1131 667 1054 699 1086 b 622 1206 699 1174 667 1206 b 546 1131 578 1206 546 1174 z "},"Ù":{"ha":963,"x_min":0,"x_max":0,"o":"m 482 -17 b 842 340 717 -17 842 113 l 842 931 b 828 944 842 940 838 944 l 750 944 b 736 931 743 944 736 940 l 736 356 b 482 72 736 167 654 72 b 226 356 311 72 226 165 l 226 931 b 213 944 226 940 222 944 l 135 944 b 121 931 128 944 121 940 l 121 340 b 482 -17 121 111 244 -17 z m 538 1031 b 549 1038 544 1031 549 1033 b 546 1046 549 1039 547 1042 l 414 1236 b 396 1246 408 1242 403 1246 l 300 1246 b 289 1238 293 1246 289 1243 b 293 1229 289 1235 290 1232 l 460 1039 b 476 1031 465 1033 471 1031 z "},"Ű":{"ha":963,"x_min":0,"x_max":0,"o":"m 482 -17 b 842 340 717 -17 842 113 l 842 931 b 828 944 842 940 838 944 l 750 944 b 736 931 743 944 736 940 l 736 356 b 482 72 736 167 654 72 b 226 356 311 72 226 165 l 226 931 b 213 944 226 940 222 944 l 135 944 b 121 931 128 944 121 940 l 121 340 b 482 -17 121 111 244 -17 z m 321 1046 b 329 1031 315 1036 318 1031 l 390 1031 b 407 1039 396 1031 401 1033 l 565 1229 b 558 1246 572 1236 569 1246 l 465 1246 b 449 1236 458 1246 453 1243 z m 547 1046 b 556 1031 542 1036 544 1031 l 617 1031 b 633 1039 622 1031 628 1033 l 792 1229 b 785 1246 799 1236 796 1246 l 692 1246 b 675 1236 685 1246 679 1243 z "},"Ū":{"ha":963,"x_min":0,"x_max":0,"o":"m 482 -17 b 842 340 717 -17 842 113 l 842 931 b 828 944 842 940 838 944 l 750 944 b 736 931 743 944 736 940 l 736 356 b 482 72 736 167 654 72 b 226 356 311 72 226 165 l 226 931 b 213 944 226 940 222 944 l 135 944 b 121 931 128 944 121 940 l 121 340 b 482 -17 121 111 244 -17 z m 268 1101 b 281 1088 268 1094 274 1088 l 679 1088 b 693 1101 688 1088 692 1092 l 697 1157 b 683 1171 697 1167 693 1171 l 285 1171 b 272 1157 278 1171 274 1167 z "},"Ų":{"ha":963,"x_min":0,"x_max":0,"o":"m 389 -183 b 529 -294 389 -257 440 -294 b 621 -279 563 -294 593 -289 b 631 -262 628 -276 631 -271 l 631 -224 b 624 -214 631 -218 628 -214 l 618 -215 b 557 -225 597 -222 578 -225 b 485 -164 511 -225 485 -204 b 633 3 485 -114 538 -40 b 842 340 776 68 842 168 l 842 931 b 828 944 842 940 838 944 l 750 944 b 736 931 743 944 736 940 l 736 356 b 481 72 736 167 653 72 b 226 356 313 72 226 165 l 226 931 b 213 944 226 940 222 944 l 135 944 b 121 931 128 944 121 940 l 121 340 b 474 -17 121 111 246 -15 l 490 -17 b 493 -25 497 -17 499 -21 b 389 -183 424 -74 389 -126 z "},"Ů":{"ha":963,"x_min":0,"x_max":0,"o":"m 482 -17 b 842 340 717 -17 842 113 l 842 931 b 828 944 842 940 838 944 l 750 944 b 736 931 743 944 736 940 l 736 356 b 482 72 736 167 654 72 b 226 356 311 72 226 165 l 226 931 b 213 944 226 940 222 944 l 135 944 b 121 931 128 944 121 940 l 121 340 b 482 -17 121 111 244 -17 z m 332 1143 b 482 1003 332 1058 396 1003 b 633 1143 569 1003 633 1058 b 482 1283 633 1228 569 1283 b 332 1143 396 1283 332 1228 z m 563 1143 b 482 1064 563 1094 531 1064 b 401 1143 433 1064 401 1097 b 482 1221 401 1189 433 1221 b 563 1143 531 1221 563 1189 z "},"Ũ":{"ha":963,"x_min":0,"x_max":0,"o":"m 482 -17 b 842 340 717 -17 842 113 l 842 931 b 828 944 842 940 838 944 l 750 944 b 736 931 743 944 736 940 l 736 356 b 482 72 736 167 654 72 b 226 356 311 72 226 165 l 226 931 b 213 944 226 940 222 944 l 135 944 b 121 931 128 944 121 940 l 121 340 b 482 -17 121 111 244 -17 z m 236 1054 b 249 1042 236 1047 242 1042 l 293 1042 b 304 1054 300 1042 304 1047 b 372 1147 308 1111 333 1147 b 465 1100 400 1147 422 1133 b 593 1044 517 1057 549 1044 b 726 1217 678 1044 726 1131 b 714 1229 726 1225 722 1229 l 669 1229 b 657 1218 663 1229 658 1225 b 589 1125 653 1156 629 1125 b 499 1171 563 1125 539 1138 b 369 1228 447 1214 414 1228 b 236 1054 286 1228 236 1142 z "},"V":{"ha":858,"x_min":0,"x_max":0,"o":"m 149 931 b 133 944 144 940 140 944 l 42 944 b 32 935 36 944 32 940 b 35 922 32 932 33 928 l 188 488 b 361 14 250 311 308 154 b 378 0 364 4 369 0 l 488 0 b 506 14 497 0 501 3 b 685 506 561 163 621 326 b 833 924 750 685 799 824 l 836 935 b 826 944 836 942 833 944 l 739 944 b 724 931 729 944 728 942 b 586 522 690 826 644 690 b 443 122 528 356 481 222 b 436 115 442 118 439 115 b 428 122 432 115 429 118 b 293 501 396 210 350 336 b 149 931 236 668 188 811 z "},"W":{"ha":1356,"x_min":0,"x_max":0,"o":"m 281 14 b 297 0 285 4 288 0 l 418 0 b 438 14 429 0 433 3 b 668 776 496 192 572 446 b 679 793 669 786 674 793 b 690 776 685 793 689 786 b 800 396 719 668 757 542 b 917 14 843 250 882 124 b 933 0 919 4 925 0 l 1053 0 b 1072 14 1065 0 1068 4 b 1193 492 1111 160 1151 318 b 1294 924 1236 665 1269 808 l 1296 935 b 1283 944 1296 942 1292 944 l 1199 944 b 1183 931 1189 944 1188 942 b 1094 514 1163 821 1133 682 b 999 119 1056 346 1024 214 b 992 113 997 115 994 113 b 985 119 989 113 986 115 b 876 481 958 203 922 324 b 754 913 831 639 790 783 b 738 926 751 922 746 926 l 625 926 b 606 913 614 926 607 924 b 488 504 576 806 536 669 b 371 121 439 339 400 211 b 364 114 369 117 367 114 b 357 121 361 114 358 117 b 268 492 335 204 306 328 b 174 931 232 656 200 801 b 160 944 172 940 168 944 l 71 944 b 60 935 65 944 60 942 l 61 924 b 161 486 86 806 119 660 b 281 14 204 313 243 156 z "},"Ẃ":{"ha":1356,"x_min":0,"x_max":0,"o":"m 281 14 b 297 0 285 4 288 0 l 418 0 b 438 14 429 0 433 3 b 668 776 496 192 572 446 b 679 793 669 786 674 793 b 690 776 685 793 689 786 b 800 396 719 668 757 542 b 917 14 843 250 882 124 b 933 0 919 4 925 0 l 1053 0 b 1072 14 1065 0 1068 4 b 1193 492 1111 160 1151 318 b 1294 924 1236 665 1269 808 l 1296 935 b 1283 944 1296 942 1292 944 l 1199 944 b 1183 931 1189 944 1188 942 b 1094 514 1163 821 1133 682 b 999 119 1056 346 1024 214 b 992 113 997 115 994 113 b 985 119 989 113 986 115 b 876 481 958 203 922 324 b 754 913 831 639 790 783 b 738 926 751 922 746 926 l 625 926 b 606 913 614 926 607 924 b 488 504 576 806 536 669 b 371 121 439 339 400 211 b 364 114 369 117 367 114 b 357 121 361 114 358 117 b 268 492 335 204 306 328 b 174 931 232 656 200 801 b 160 944 172 940 168 944 l 71 944 b 60 935 65 944 60 942 l 61 924 b 161 486 86 806 119 660 b 281 14 204 313 243 156 z m 618 1046 b 626 1031 613 1036 615 1031 l 688 1031 b 704 1039 693 1031 699 1033 l 871 1229 b 864 1246 878 1239 875 1246 l 768 1246 b 750 1236 761 1246 756 1242 z "},"Ŵ":{"ha":1356,"x_min":0,"x_max":0,"o":"m 281 14 b 297 0 285 4 288 0 l 418 0 b 438 14 429 0 433 3 b 668 776 496 192 572 446 b 679 793 669 786 674 793 b 690 776 685 793 689 786 b 800 396 719 668 757 542 b 917 14 843 250 882 124 b 933 0 919 4 925 0 l 1053 0 b 1072 14 1065 0 1068 4 b 1193 492 1111 160 1151 318 b 1294 924 1236 665 1269 808 l 1296 935 b 1283 944 1296 942 1292 944 l 1199 944 b 1183 931 1189 944 1188 942 b 1094 514 1163 821 1133 682 b 999 119 1056 346 1024 214 b 992 113 997 115 994 113 b 985 119 989 113 986 115 b 876 481 958 203 922 324 b 754 913 831 639 790 783 b 738 926 751 922 746 926 l 625 926 b 606 913 614 926 607 924 b 488 504 576 806 536 669 b 371 121 439 339 400 211 b 364 114 369 117 367 114 b 357 121 361 114 358 117 b 268 492 335 204 306 328 b 174 931 232 656 200 801 b 160 944 172 940 168 944 l 71 944 b 60 935 65 944 60 942 l 61 924 b 161 486 86 806 119 660 b 281 14 204 313 243 156 z m 753 1233 b 729 1246 746 1243 740 1246 l 628 1246 b 604 1233 617 1246 611 1243 l 451 1046 b 460 1031 444 1036 449 1031 l 525 1031 b 542 1038 529 1031 535 1033 l 668 1174 b 678 1179 671 1178 674 1179 b 688 1174 683 1179 686 1178 l 815 1038 b 832 1031 819 1033 825 1031 l 897 1031 b 908 1038 904 1031 908 1033 b 906 1046 908 1042 907 1044 z "},"Ẅ":{"ha":1356,"x_min":0,"x_max":0,"o":"m 281 14 b 297 0 285 4 288 0 l 418 0 b 438 14 429 0 433 3 b 668 776 496 192 572 446 b 679 793 669 786 674 793 b 690 776 685 793 689 786 b 800 396 719 668 757 542 b 917 14 843 250 882 124 b 933 0 919 4 925 0 l 1053 0 b 1072 14 1065 0 1068 4 b 1193 492 1111 160 1151 318 b 1294 924 1236 665 1269 808 l 1296 935 b 1283 944 1296 942 1292 944 l 1199 944 b 1183 931 1189 944 1188 942 b 1094 514 1163 821 1133 682 b 999 119 1056 346 1024 214 b 992 113 997 115 994 113 b 985 119 989 113 986 115 b 876 481 958 203 922 324 b 754 913 831 639 790 783 b 738 926 751 922 746 926 l 625 926 b 606 913 614 926 607 924 b 488 504 576 806 536 669 b 371 121 439 339 400 211 b 364 114 369 117 367 114 b 357 121 361 114 358 117 b 268 492 335 204 306 328 b 174 931 232 656 200 801 b 160 944 172 940 168 944 l 71 944 b 60 935 65 944 60 942 l 61 924 b 161 486 86 806 119 660 b 281 14 204 313 243 156 z m 461 1131 b 538 1054 461 1086 494 1054 b 614 1131 582 1054 614 1086 b 538 1206 614 1174 582 1206 b 461 1131 494 1206 461 1174 z m 742 1131 b 818 1054 742 1086 774 1054 b 894 1131 863 1054 894 1086 b 818 1206 894 1174 863 1206 b 742 1131 774 1206 742 1174 z "},"Ẁ":{"ha":1356,"x_min":0,"x_max":0,"o":"m 281 14 b 297 0 285 4 288 0 l 418 0 b 438 14 429 0 433 3 b 668 776 496 192 572 446 b 679 793 669 786 674 793 b 690 776 685 793 689 786 b 800 396 719 668 757 542 b 917 14 843 250 882 124 b 933 0 919 4 925 0 l 1053 0 b 1072 14 1065 0 1068 4 b 1193 492 1111 160 1151 318 b 1294 924 1236 665 1269 808 l 1296 935 b 1283 944 1296 942 1292 944 l 1199 944 b 1183 931 1189 944 1188 942 b 1094 514 1163 821 1133 682 b 999 119 1056 346 1024 214 b 992 113 997 115 994 113 b 985 119 989 113 986 115 b 876 481 958 203 922 324 b 754 913 831 639 790 783 b 738 926 751 922 746 926 l 625 926 b 606 913 614 926 607 924 b 488 504 576 806 536 669 b 371 121 439 339 400 211 b 364 114 369 117 367 114 b 357 121 361 114 358 117 b 268 492 335 204 306 328 b 174 931 232 656 200 801 b 160 944 172 940 168 944 l 71 944 b 60 935 65 944 60 942 l 61 924 b 161 486 86 806 119 660 b 281 14 204 313 243 156 z m 733 1031 b 744 1038 740 1031 744 1033 b 742 1046 744 1039 743 1042 l 610 1236 b 592 1246 604 1242 599 1246 l 496 1246 b 485 1238 489 1246 485 1243 b 489 1229 485 1235 486 1232 l 656 1039 b 672 1031 661 1033 667 1031 z "},"X":{"ha":835,"x_min":0,"x_max":0,"o":"m 650 731 b 771 917 707 817 747 879 b 779 935 776 925 779 931 b 767 944 779 942 775 944 l 679 944 b 661 935 672 944 665 942 b 557 767 643 903 608 847 l 433 569 b 421 561 429 564 425 561 b 408 569 415 561 413 564 b 300 738 386 603 350 658 b 179 935 250 817 210 883 b 158 944 175 942 168 944 l 69 944 b 57 935 63 944 57 942 b 65 917 57 931 60 926 b 199 710 94 869 139 800 b 332 514 258 619 303 554 b 344 489 342 503 344 496 b 333 464 344 482 340 474 b 183 242 290 401 240 328 l 43 28 b 35 10 38 19 35 14 b 47 0 35 3 39 0 l 136 0 b 156 10 144 0 151 3 b 272 196 182 53 221 115 b 404 400 324 278 368 346 b 417 408 408 406 411 408 b 429 400 422 408 425 406 b 554 207 458 357 500 292 l 679 10 b 700 0 683 3 690 0 l 786 0 b 799 10 793 0 799 3 b 790 28 799 14 796 18 l 650 240 l 503 464 b 492 488 496 474 492 482 b 504 515 492 494 496 504 z "},"Y":{"ha":786,"x_min":0,"x_max":0,"o":"m 13 935 b 19 917 13 931 15 925 b 324 376 111 749 213 568 b 339 325 336 354 339 347 l 339 14 b 353 0 339 7 346 0 l 432 0 b 446 14 442 0 446 7 l 446 325 b 463 376 446 346 447 350 b 767 917 550 526 663 726 b 774 935 771 926 774 932 b 761 944 774 942 769 944 l 678 944 b 660 933 669 944 664 940 b 544 715 635 883 596 811 l 415 476 b 396 453 406 460 401 453 b 376 476 390 453 386 460 b 132 932 256 697 174 849 b 113 944 126 942 122 944 l 25 944 b 13 935 17 944 13 942 z "},"Ý":{"ha":786,"x_min":0,"x_max":0,"o":"m 13 935 b 19 917 13 931 15 925 b 324 376 111 749 213 568 b 339 325 336 354 339 347 l 339 14 b 353 0 339 7 346 0 l 432 0 b 446 14 442 0 446 7 l 446 325 b 463 376 446 346 447 350 b 767 917 550 526 663 726 b 774 935 771 926 774 932 b 761 944 774 942 769 944 l 678 944 b 660 933 669 944 664 940 b 544 715 635 883 596 811 l 415 476 b 396 453 406 460 401 453 b 376 476 390 453 386 460 b 132 932 256 697 174 849 b 113 944 126 942 122 944 l 25 944 b 13 935 17 944 13 942 z m 333 1046 b 342 1031 328 1036 331 1031 l 403 1031 b 419 1039 408 1031 414 1033 l 586 1229 b 579 1246 593 1239 590 1246 l 483 1246 b 465 1236 476 1246 471 1242 z "},"Ŷ":{"ha":786,"x_min":0,"x_max":0,"o":"m 13 935 b 19 917 13 931 15 925 b 324 376 111 749 213 568 b 339 325 336 354 339 347 l 339 14 b 353 0 339 7 346 0 l 432 0 b 446 14 442 0 446 7 l 446 325 b 463 376 446 346 447 350 b 767 917 550 526 663 726 b 774 935 771 926 774 932 b 761 944 774 942 769 944 l 678 944 b 660 933 669 944 664 940 b 544 715 635 883 596 811 l 415 476 b 396 453 406 460 401 453 b 376 476 390 453 386 460 b 132 932 256 697 174 849 b 113 944 126 942 122 944 l 25 944 b 13 935 17 944 13 942 z m 468 1233 b 444 1246 461 1243 456 1246 l 343 1246 b 319 1233 332 1246 326 1243 l 167 1046 b 175 1031 160 1036 164 1031 l 240 1031 b 257 1038 244 1031 250 1033 l 383 1174 b 393 1179 386 1178 389 1179 b 403 1174 399 1179 401 1178 l 531 1038 b 547 1031 535 1033 540 1031 l 613 1031 b 624 1038 619 1031 624 1033 b 621 1046 624 1042 622 1044 z "},"Ÿ":{"ha":786,"x_min":0,"x_max":0,"o":"m 13 935 b 19 917 13 931 15 925 b 324 376 111 749 213 568 b 339 325 336 354 339 347 l 339 14 b 353 0 339 7 346 0 l 432 0 b 446 14 442 0 446 7 l 446 325 b 463 376 446 346 447 350 b 767 917 550 526 663 726 b 774 935 771 926 774 932 b 761 944 774 942 769 944 l 678 944 b 660 933 669 944 664 940 b 544 715 635 883 596 811 l 415 476 b 396 453 406 460 401 453 b 376 476 390 453 386 460 b 132 932 256 697 174 849 b 113 944 126 942 122 944 l 25 944 b 13 935 17 944 13 942 z m 176 1131 b 253 1054 176 1086 210 1054 b 329 1131 297 1054 329 1086 b 253 1206 329 1174 297 1206 b 176 1131 210 1206 176 1174 z m 457 1131 b 533 1054 457 1086 489 1054 b 610 1131 578 1054 610 1086 b 533 1206 610 1174 578 1206 b 457 1131 489 1206 457 1174 z "},"Ỳ":{"ha":786,"x_min":0,"x_max":0,"o":"m 13 935 b 19 917 13 931 15 925 b 324 376 111 749 213 568 b 339 325 336 354 339 347 l 339 14 b 353 0 339 7 346 0 l 432 0 b 446 14 442 0 446 7 l 446 325 b 463 376 446 346 447 350 b 767 917 550 526 663 726 b 774 935 771 926 774 932 b 761 944 774 942 769 944 l 678 944 b 660 933 669 944 664 940 b 544 715 635 883 596 811 l 415 476 b 396 453 406 460 401 453 b 376 476 390 453 386 460 b 132 932 256 697 174 849 b 113 944 126 942 122 944 l 25 944 b 13 935 17 944 13 942 z m 449 1031 b 460 1038 456 1031 460 1033 b 457 1046 460 1039 458 1042 l 325 1236 b 307 1246 319 1242 314 1246 l 211 1246 b 200 1238 204 1246 200 1243 b 204 1229 200 1235 201 1232 l 371 1039 b 388 1031 376 1033 382 1031 z "},"Z":{"ha":792,"x_min":0,"x_max":0,"o":"m 75 14 b 89 0 75 7 82 0 l 718 0 b 732 14 728 0 732 7 l 732 81 b 718 94 732 90 728 94 l 206 94 b 197 100 200 94 197 96 b 204 117 197 104 200 110 l 707 833 b 715 857 714 843 715 850 l 715 931 b 701 944 715 940 711 944 l 113 944 b 99 931 106 944 99 940 l 99 865 b 113 851 99 858 106 851 l 578 851 b 590 843 586 851 590 849 b 578 818 590 838 588 831 l 83 115 b 75 92 78 106 75 99 l 75 14 z "},"Ź":{"ha":792,"x_min":0,"x_max":0,"o":"m 75 14 b 89 0 75 7 82 0 l 718 0 b 732 14 728 0 732 7 l 732 81 b 718 94 732 90 728 94 l 206 94 b 197 100 200 94 197 96 b 204 117 197 104 200 110 l 707 833 b 715 857 714 843 715 850 l 715 931 b 701 944 715 940 711 944 l 113 944 b 99 931 106 944 99 940 l 99 865 b 113 851 99 858 106 851 l 578 851 b 590 843 586 851 590 849 b 578 818 590 838 588 831 l 83 115 b 75 92 78 106 75 99 z m 339 1046 b 347 1031 333 1036 336 1031 l 408 1031 b 425 1039 414 1031 419 1033 l 592 1229 b 585 1246 599 1239 596 1246 l 489 1246 b 471 1236 482 1246 476 1242 z "},"Ž":{"ha":792,"x_min":0,"x_max":0,"o":"m 75 14 b 89 0 75 7 82 0 l 718 0 b 732 14 728 0 732 7 l 732 81 b 718 94 732 90 728 94 l 206 94 b 197 100 200 94 197 96 b 204 117 197 104 200 110 l 707 833 b 715 857 714 843 715 850 l 715 931 b 701 944 715 940 711 944 l 113 944 b 99 931 106 944 99 940 l 99 865 b 113 851 99 858 106 851 l 578 851 b 590 843 586 851 590 849 b 578 818 590 838 588 831 l 83 115 b 75 92 78 106 75 99 z m 325 1043 b 349 1031 332 1033 338 1031 l 450 1031 b 474 1043 461 1031 467 1033 l 626 1229 b 618 1246 633 1239 629 1246 l 553 1246 b 536 1238 546 1246 540 1243 l 408 1101 b 389 1101 404 1096 394 1096 l 263 1238 b 246 1246 257 1243 251 1246 l 181 1246 b 169 1238 174 1246 169 1243 b 172 1229 169 1233 171 1231 z "},"Ż":{"ha":792,"x_min":0,"x_max":0,"o":"m 75 14 b 89 0 75 7 82 0 l 718 0 b 732 14 728 0 732 7 l 732 81 b 718 94 732 90 728 94 l 206 94 b 197 100 200 94 197 96 b 204 117 197 104 200 110 l 707 833 b 715 857 714 843 715 850 l 715 931 b 701 944 715 940 711 944 l 113 944 b 99 931 106 944 99 940 l 99 865 b 113 851 99 858 106 851 l 578 851 b 590 843 586 851 590 849 b 578 818 590 838 588 831 l 83 115 b 75 92 78 106 75 99 z m 318 1131 b 399 1050 318 1085 353 1050 b 482 1131 449 1050 482 1085 b 399 1211 482 1176 449 1211 b 318 1131 353 1211 318 1176 z "},"a":{"ha":853,"x_min":0,"x_max":0,"o":"m 775 69 b 711 165 722 69 711 99 b 717 383 711 217 713 289 b 731 672 721 478 725 574 b 710 701 732 688 726 694 b 472 750 638 733 558 750 b 85 299 199 750 85 551 b 318 -17 85 103 163 -17 b 504 63 392 -17 454 10 b 621 265 554 115 593 183 b 629 265 622 276 631 275 b 621 132 624 215 621 171 b 731 -12 621 43 651 -12 b 793 -6 757 -12 778 -10 b 804 8 799 -4 803 1 l 808 58 b 796 69 808 68 806 69 z m 618 635 b 631 617 629 629 631 626 l 629 593 b 589 367 628 524 614 449 b 485 158 564 285 529 215 b 331 72 440 101 389 72 b 222 139 279 72 243 94 b 190 303 201 185 190 239 b 467 661 190 525 276 661 b 618 635 532 661 594 647 z "},"á":{"ha":853,"x_min":0,"x_max":0,"o":"m 775 69 b 711 165 722 69 711 99 b 717 383 711 217 713 289 b 731 672 721 478 725 574 b 710 701 732 688 726 694 b 472 750 638 733 558 750 b 85 299 199 750 85 551 b 318 -17 85 103 163 -17 b 504 63 392 -17 454 10 b 621 265 554 115 593 183 b 629 265 622 276 631 275 b 621 132 624 215 621 171 b 731 -12 621 43 651 -12 b 793 -6 757 -12 778 -10 b 804 8 799 -4 803 1 l 808 58 b 796 69 808 68 806 69 z m 618 635 b 631 617 629 629 631 626 l 629 593 b 589 367 628 524 614 449 b 485 158 564 285 529 215 b 331 72 440 101 389 72 b 222 139 279 72 243 94 b 190 303 201 185 190 239 b 467 661 190 525 276 661 b 618 635 532 661 594 647 z m 417 853 b 428 836 413 843 417 836 l 479 836 b 496 846 486 836 492 839 l 638 1069 b 629 1086 644 1079 640 1086 l 542 1086 b 526 1076 535 1086 529 1083 z "},"ă":{"ha":853,"x_min":0,"x_max":0,"o":"m 775 69 b 711 165 722 69 711 99 b 717 383 711 217 713 289 b 731 672 721 478 725 574 b 710 701 732 688 726 694 b 472 750 638 733 558 750 b 85 299 199 750 85 551 b 318 -17 85 103 163 -17 b 504 63 392 -17 454 10 b 621 265 554 115 593 183 b 629 265 622 276 631 275 b 621 132 624 215 621 171 b 731 -12 621 43 651 -12 b 793 -6 757 -12 778 -10 b 804 8 799 -4 803 1 l 808 58 b 796 69 808 68 806 69 z m 618 635 b 631 617 629 629 631 626 l 629 593 b 589 367 628 524 614 449 b 485 158 564 285 529 215 b 331 72 440 101 389 72 b 222 139 279 72 243 94 b 190 303 201 185 190 239 b 467 661 190 525 276 661 b 618 635 532 661 594 647 z m 253 1049 b 467 831 253 908 321 831 b 683 1049 613 831 683 910 b 669 1061 683 1057 679 1061 l 622 1061 b 608 1049 613 1061 608 1057 b 468 911 608 957 561 911 b 328 1049 375 911 328 958 b 314 1061 328 1057 324 1061 l 267 1061 b 253 1049 257 1061 253 1057 z "},"â":{"ha":853,"x_min":0,"x_max":0,"o":"m 775 69 b 711 165 722 69 711 99 b 717 383 711 217 713 289 b 731 672 721 478 725 574 b 710 701 732 688 726 694 b 472 750 638 733 558 750 b 85 299 199 750 85 551 b 318 -17 85 103 163 -17 b 504 63 392 -17 454 10 b 621 265 554 115 593 183 b 629 265 622 276 631 275 b 621 132 624 215 621 171 b 731 -12 621 43 651 -12 b 793 -6 757 -12 778 -10 b 804 8 799 -4 803 1 l 808 58 b 796 69 808 68 806 69 z m 618 635 b 631 617 629 629 631 626 l 629 593 b 589 367 628 524 614 449 b 485 158 564 285 529 215 b 331 72 440 101 389 72 b 222 139 279 72 243 94 b 190 303 201 185 190 239 b 467 661 190 525 276 661 b 618 635 532 661 594 647 z m 542 1071 b 517 1086 535 1082 529 1086 l 417 1086 b 392 1071 407 1086 399 1082 l 231 851 b 236 836 225 844 229 836 l 300 836 b 324 847 311 836 318 842 l 456 1007 b 468 1014 460 1011 464 1014 b 479 1007 472 1014 476 1011 l 611 847 b 633 836 617 840 624 836 l 697 836 b 707 844 703 836 707 840 b 704 851 707 849 704 850 z "},"ä":{"ha":853,"x_min":0,"x_max":0,"o":"m 775 69 b 711 165 722 69 711 99 b 717 383 711 217 713 289 b 731 672 721 478 725 574 b 710 701 732 688 726 694 b 472 750 638 733 558 750 b 85 299 199 750 85 551 b 318 -17 85 103 163 -17 b 504 63 392 -17 454 10 b 621 265 554 115 593 183 b 629 265 622 276 631 275 b 621 132 624 215 621 171 b 731 -12 621 43 651 -12 b 793 -6 757 -12 778 -10 b 804 8 799 -4 803 1 l 808 58 b 796 69 808 68 806 69 z m 618 635 b 631 617 629 629 631 626 l 629 593 b 589 367 628 524 614 449 b 485 158 564 285 529 215 b 331 72 440 101 389 72 b 222 139 279 72 243 94 b 190 303 201 185 190 239 b 467 661 190 525 276 661 b 618 635 532 661 594 647 z m 254 972 b 331 897 254 929 286 897 b 407 972 375 897 407 929 b 331 1047 407 1015 375 1047 b 254 972 286 1047 254 1015 z m 531 972 b 607 897 531 929 563 897 b 683 972 651 897 683 929 b 607 1047 683 1015 651 1047 b 531 972 563 1047 531 1015 z "},"à":{"ha":853,"x_min":0,"x_max":0,"o":"m 775 69 b 711 165 722 69 711 99 b 717 383 711 217 713 289 b 731 672 721 478 725 574 b 710 701 732 688 726 694 b 472 750 638 733 558 750 b 85 299 199 750 85 551 b 318 -17 85 103 163 -17 b 504 63 392 -17 454 10 b 621 265 554 115 593 183 b 629 265 622 276 631 275 b 621 132 624 215 621 171 b 731 -12 621 43 651 -12 b 793 -6 757 -12 778 -10 b 804 8 799 -4 803 1 l 808 58 b 796 69 808 68 806 69 z m 618 635 b 631 617 629 629 631 626 l 629 593 b 589 367 628 524 614 449 b 485 158 564 285 529 215 b 331 72 440 101 389 72 b 222 139 279 72 243 94 b 190 303 201 185 190 239 b 467 661 190 525 276 661 b 618 635 532 661 594 647 z m 436 846 b 453 836 440 839 446 836 l 506 836 b 518 846 513 836 518 840 b 517 853 518 849 518 851 l 407 1076 b 392 1086 404 1083 399 1086 l 304 1086 b 293 1078 297 1086 293 1083 b 296 1069 293 1074 294 1071 z "},"ā":{"ha":853,"x_min":0,"x_max":0,"o":"m 775 69 b 711 165 722 69 711 99 b 717 383 711 217 713 289 b 731 672 721 478 725 574 b 710 701 732 688 726 694 b 472 750 638 733 558 750 b 85 299 199 750 85 551 b 318 -17 85 103 163 -17 b 504 63 392 -17 454 10 b 621 265 554 115 593 183 b 629 265 622 276 631 275 b 621 132 624 215 621 171 b 731 -12 621 43 651 -12 b 793 -6 757 -12 778 -10 b 804 8 799 -4 803 1 l 808 58 b 796 69 808 68 806 69 z m 618 635 b 631 617 629 629 631 626 l 629 593 b 589 367 628 524 614 449 b 485 158 564 285 529 215 b 331 72 440 101 389 72 b 222 139 279 72 243 94 b 190 303 201 185 190 239 b 467 661 190 525 276 661 b 618 635 532 661 594 647 z m 254 929 b 267 917 254 922 260 917 l 665 917 b 679 929 674 917 678 921 l 683 986 b 669 999 683 994 679 999 l 271 999 b 258 986 264 999 260 994 z "},"ą":{"ha":853,"x_min":0,"x_max":0,"o":"m 686 -15 b 565 -183 607 -67 565 -124 b 706 -294 565 -257 617 -294 b 797 -279 740 -294 771 -289 b 808 -262 804 -276 808 -271 l 808 -224 b 800 -214 808 -217 806 -214 l 794 -215 b 733 -225 774 -222 754 -225 b 661 -164 689 -225 661 -203 b 793 -6 661 -112 703 -62 b 804 11 800 -1 803 4 l 808 58 b 796 69 808 68 806 69 l 775 69 b 711 165 722 69 711 99 b 717 383 711 217 713 289 b 731 672 721 478 725 574 b 710 701 732 688 726 694 b 472 750 638 733 558 750 b 85 299 199 750 85 551 b 318 -17 85 103 163 -17 b 504 63 392 -17 454 10 b 621 265 554 115 593 183 b 629 265 622 276 631 275 b 621 132 624 215 621 171 b 685 -4 621 58 640 13 b 686 -15 692 -7 693 -11 z m 629 593 b 589 367 628 524 614 449 b 485 158 564 285 529 215 b 331 72 440 101 389 72 b 222 139 279 72 243 94 b 190 303 201 185 190 239 b 467 661 190 525 276 661 b 618 635 532 661 594 647 b 631 617 629 629 631 626 z "},"å":{"ha":853,"x_min":0,"x_max":0,"o":"m 775 69 b 711 165 722 69 711 99 b 717 383 711 217 713 289 b 731 672 721 478 725 574 b 710 701 732 688 726 694 b 472 750 638 733 558 750 b 85 299 199 750 85 551 b 318 -17 85 103 163 -17 b 504 63 392 -17 454 10 b 621 265 554 115 593 183 b 629 265 622 276 631 275 b 621 132 624 215 621 171 b 731 -12 621 43 651 -12 b 793 -6 757 -12 778 -10 b 804 8 799 -4 803 1 l 808 58 b 796 69 808 68 806 69 z m 618 635 b 631 617 629 629 631 626 l 629 593 b 589 367 628 524 614 449 b 485 158 564 285 529 215 b 331 72 440 101 389 72 b 222 139 279 72 243 94 b 190 303 201 185 190 239 b 467 661 190 525 276 661 b 618 635 532 661 594 647 z m 318 961 b 468 821 318 876 382 821 b 619 961 556 821 619 876 b 468 1101 619 1046 556 1101 b 318 961 382 1101 318 1046 z m 549 961 b 468 882 549 913 517 882 b 388 961 419 882 388 915 b 468 1039 388 1007 419 1039 b 549 961 517 1039 549 1007 z "},"ã":{"ha":853,"x_min":0,"x_max":0,"o":"m 775 69 b 711 165 722 69 711 99 b 717 383 711 217 713 289 b 731 672 721 478 725 574 b 710 701 732 688 726 694 b 472 750 638 733 558 750 b 85 299 199 750 85 551 b 318 -17 85 103 163 -17 b 504 63 392 -17 454 10 b 621 265 554 115 593 183 b 629 265 622 276 631 275 b 621 132 624 215 621 171 b 731 -12 621 43 651 -12 b 793 -6 757 -12 778 -10 b 804 8 799 -4 803 1 l 808 58 b 796 69 808 68 806 69 z m 618 635 b 631 617 629 629 631 626 l 629 593 b 589 367 628 524 614 449 b 485 158 564 285 529 215 b 331 72 440 101 389 72 b 222 139 279 72 243 94 b 190 303 201 185 190 239 b 467 661 190 525 276 661 b 618 635 532 661 594 647 z m 222 876 b 235 864 222 869 228 864 l 279 864 b 290 875 286 864 290 868 b 358 968 294 935 318 968 b 451 921 386 968 411 954 b 579 865 506 878 535 865 b 713 1039 664 865 713 954 b 700 1051 713 1046 707 1051 l 656 1051 b 643 1040 649 1051 644 1047 b 575 946 639 978 615 946 b 485 992 549 946 528 958 b 356 1049 433 1035 400 1049 b 222 876 272 1049 222 963 z "},"æ":{"ha":1261,"x_min":0,"x_max":0,"o":"m 611 156 b 925 -17 663 44 771 -17 b 1122 15 1003 -17 1072 -3 b 1133 32 1129 18 1133 24 l 1138 94 b 1128 104 1138 101 1135 104 l 1122 103 b 933 72 1076 85 999 72 b 657 313 760 72 657 165 b 667 322 657 319 660 322 b 817 317 707 318 765 317 b 1138 396 974 317 1081 343 b 1192 531 1175 429 1192 474 b 924 750 1192 679 1085 750 b 646 621 806 750 707 704 b 635 621 642 617 638 617 b 392 750 597 714 526 750 b 178 715 325 750 229 736 b 168 701 171 713 168 708 l 169 696 l 183 639 b 193 629 185 633 189 629 l 199 631 b 385 661 247 649 328 661 b 560 481 532 661 560 607 l 560 440 b 551 432 560 435 557 432 l 471 432 b 72 201 206 432 72 367 b 314 -17 72 61 182 -17 b 601 156 451 -17 540 43 b 611 156 606 160 610 160 z m 1092 529 b 800 401 1092 429 988 401 b 668 407 751 401 708 403 b 660 421 661 408 660 411 b 917 665 668 557 768 665 b 1092 529 1033 665 1092 614 z m 557 331 b 328 72 557 188 485 72 b 178 207 243 72 178 118 b 447 347 178 317 281 347 b 551 344 479 347 524 346 b 557 338 556 344 557 342 z "},"b":{"ha":860,"x_min":0,"x_max":0,"o":"m 231 1024 b 217 1038 231 1033 226 1038 l 142 1038 b 128 1024 135 1038 128 1033 l 128 54 b 142 32 128 42 129 38 b 389 -17 214 -1 306 -17 b 774 433 658 -17 774 178 b 533 750 774 626 700 750 b 351 668 461 750 400 722 b 235 463 303 614 264 546 b 226 463 233 451 226 453 z m 242 100 b 231 121 232 106 231 111 l 231 151 b 268 372 231 218 243 292 b 372 576 293 453 328 521 b 524 661 418 633 468 661 b 636 594 578 661 615 639 b 668 431 657 550 668 496 b 389 72 668 208 585 72 b 242 100 324 72 269 85 z "},"c":{"ha":653,"x_min":0,"x_max":0,"o":"m 442 -17 b 589 3 493 -17 543 -10 b 600 19 596 6 600 11 l 603 86 b 593 94 603 92 600 94 l 588 93 b 450 72 538 79 492 72 b 189 350 283 72 189 178 b 464 661 189 533 296 661 b 586 646 513 661 553 656 b 601 651 593 642 600 644 l 611 717 b 603 732 613 724 610 729 b 464 750 569 743 513 750 b 82 350 240 750 82 596 b 442 -17 82 107 226 -17 z "},"ć":{"ha":653,"x_min":0,"x_max":0,"o":"m 442 -17 b 589 3 493 -17 543 -10 b 600 19 596 6 600 11 l 603 86 b 593 94 603 92 600 94 l 588 93 b 450 72 538 79 492 72 b 189 350 283 72 189 178 b 464 661 189 533 296 661 b 586 646 513 661 553 656 b 601 651 593 642 600 644 l 611 717 b 603 732 613 724 610 729 b 464 750 569 743 513 750 b 82 350 240 750 82 596 b 442 -17 82 107 226 -17 z m 383 853 b 394 836 379 843 383 836 l 446 836 b 463 846 453 836 458 839 l 604 1069 b 596 1086 611 1079 607 1086 l 508 1086 b 493 1076 501 1086 496 1083 z "},"č":{"ha":653,"x_min":0,"x_max":0,"o":"m 442 -17 b 589 3 493 -17 543 -10 b 600 19 596 6 600 11 l 603 86 b 593 94 603 92 600 94 l 588 93 b 450 72 538 79 492 72 b 189 350 283 72 189 178 b 464 661 189 533 296 661 b 586 646 513 661 553 656 b 601 651 593 642 600 644 l 611 717 b 603 732 613 724 610 729 b 464 750 569 743 513 750 b 82 350 240 750 82 596 b 442 -17 82 107 226 -17 z m 360 851 b 385 836 369 840 374 836 l 485 836 b 510 851 496 836 503 840 l 672 1071 b 665 1086 678 1078 675 1086 l 601 1086 b 579 1075 592 1086 585 1082 l 447 915 b 436 910 444 911 440 910 b 424 915 432 910 428 911 l 292 1075 b 268 1086 286 1081 279 1086 l 204 1086 b 196 1078 199 1086 196 1082 l 199 1071 z "},"ç":{"ha":653,"x_min":0,"x_max":0,"o":"m 326 -324 b 340 -335 328 -331 331 -335 b 571 -192 494 -335 571 -287 b 429 -96 571 -131 522 -96 b 422 -85 422 -96 421 -92 l 436 -24 b 444 -17 438 -19 440 -17 b 589 3 499 -17 546 -10 b 600 19 596 6 600 11 l 603 86 b 593 94 603 92 600 94 l 588 93 b 450 72 538 79 492 72 b 189 350 283 72 189 178 b 464 661 189 533 296 661 b 586 646 513 661 553 656 b 601 651 593 642 600 644 l 611 717 b 603 732 613 724 610 729 b 464 750 569 743 513 750 b 82 350 240 750 82 596 b 357 -8 82 143 186 19 b 364 -19 361 -10 364 -12 l 339 -126 b 350 -142 338 -136 340 -142 l 361 -142 b 485 -196 449 -142 485 -157 b 332 -275 485 -247 439 -275 b 322 -285 325 -275 322 -278 l 322 -289 l 326 -324 z "},"ĉ":{"ha":653,"x_min":0,"x_max":0,"o":"m 442 -17 b 589 3 493 -17 543 -10 b 600 19 596 6 600 11 l 603 86 b 593 94 603 92 600 94 l 588 93 b 450 72 538 79 492 72 b 189 350 283 72 189 178 b 464 661 189 533 296 661 b 586 646 513 661 553 656 b 601 651 593 642 600 644 l 611 717 b 603 732 613 724 610 729 b 464 750 569 743 513 750 b 82 350 240 750 82 596 b 442 -17 82 107 226 -17 z m 508 1071 b 483 1086 501 1082 496 1086 l 383 1086 b 358 1071 374 1086 365 1082 l 197 851 b 203 836 192 844 196 836 l 267 836 b 290 847 278 836 285 842 l 422 1007 b 435 1014 426 1011 431 1014 b 446 1007 439 1014 443 1011 l 578 847 b 600 836 583 840 590 836 l 664 836 b 674 844 669 836 674 840 b 671 851 674 849 671 850 z "},"ċ":{"ha":653,"x_min":0,"x_max":0,"o":"m 442 -17 b 589 3 493 -17 543 -10 b 600 19 596 6 600 11 l 603 86 b 593 94 603 92 600 94 l 588 93 b 450 72 538 79 492 72 b 189 350 283 72 189 178 b 464 661 189 533 296 661 b 586 646 513 661 553 656 b 601 651 593 642 600 644 l 611 717 b 603 732 613 724 610 729 b 464 750 569 743 513 750 b 82 350 240 750 82 596 b 442 -17 82 107 226 -17 z m 356 969 b 435 890 356 925 389 890 b 515 969 481 890 515 925 b 435 1050 515 1018 483 1050 b 356 969 389 1050 356 1015 z "},"d":{"ha":861,"x_min":0,"x_max":0,"o":"m 775 69 b 713 193 719 69 710 93 l 732 1024 b 718 1038 732 1033 728 1038 l 644 1038 b 631 1024 638 1038 631 1033 l 629 738 b 621 725 629 729 626 725 b 614 726 618 725 615 725 b 468 750 582 739 517 750 b 85 293 196 750 85 549 b 324 -17 85 103 163 -17 b 619 261 469 -17 563 100 b 628 261 624 272 629 271 b 622 143 624 207 622 168 b 738 -12 622 39 646 -12 b 796 -6 756 -12 779 -10 b 807 10 803 -1 806 0 l 811 57 b 800 69 813 65 808 69 z m 617 635 b 629 615 626 629 629 625 l 629 590 b 592 365 629 522 617 447 b 488 157 568 283 533 214 b 335 72 443 100 392 72 b 222 139 281 72 243 94 b 190 301 201 183 190 238 b 468 661 190 524 272 661 b 617 635 531 661 590 650 z "},"ð":{"ha":864,"x_min":0,"x_max":0,"o":"m 82 361 b 432 -17 82 136 211 -17 b 782 388 654 -17 782 132 b 590 889 782 581 713 768 b 593 901 586 894 588 899 l 740 954 b 749 965 746 956 749 960 b 747 972 749 968 749 971 l 726 1013 b 714 1019 722 1017 718 1019 b 706 1018 710 1019 707 1019 l 526 954 b 511 957 521 951 515 953 b 294 1064 446 1003 374 1038 b 271 1061 286 1065 278 1065 l 211 1040 b 213 1024 201 1036 201 1028 b 413 925 289 994 356 963 b 411 914 419 921 418 917 l 253 858 b 244 846 247 856 244 851 b 246 839 244 843 244 840 l 267 799 b 279 790 268 793 274 790 l 285 792 l 481 861 b 497 857 486 863 492 863 b 619 685 557 803 592 756 b 611 678 624 675 618 672 b 418 735 563 715 503 735 b 82 361 222 735 82 582 z m 676 361 b 432 72 676 192 592 72 b 189 361 274 72 189 192 b 432 647 189 528 274 647 b 676 361 592 647 676 528 z "},"ď":{"ha":861,"x_min":0,"x_max":0,"o":"m 775 69 b 713 193 719 69 710 93 l 732 1024 b 718 1038 732 1033 728 1038 l 644 1038 b 631 1024 638 1038 631 1033 l 629 738 b 621 725 629 729 626 725 b 614 726 618 725 615 725 b 468 750 582 739 517 750 b 85 293 196 750 85 549 b 324 -17 85 103 163 -17 b 619 261 469 -17 563 100 b 628 261 624 272 629 271 b 622 143 624 207 622 168 b 738 -12 622 39 646 -12 b 796 -6 756 -12 779 -10 b 807 10 803 -1 806 0 l 811 57 b 800 69 813 65 808 69 z m 617 635 b 629 615 626 629 629 625 l 629 590 b 592 365 629 522 617 447 b 488 157 568 283 533 214 b 335 72 443 100 392 72 b 222 139 281 72 243 94 b 190 301 201 183 190 238 b 468 661 190 524 272 661 b 617 635 531 661 590 650 z m 797 794 b 810 779 796 785 800 779 l 860 779 b 874 792 868 779 872 783 l 928 1022 b 917 1038 929 1032 926 1038 l 840 1038 b 826 1025 833 1038 828 1033 z "},"đ":{"ha":869,"x_min":0,"x_max":0,"o":"m 856 889 b 842 903 857 896 851 903 l 738 903 b 729 911 732 903 729 906 l 732 1024 b 718 1038 732 1033 728 1038 l 646 1038 b 631 1021 636 1038 631 1032 l 631 911 b 622 903 631 906 628 903 l 460 903 b 444 889 451 903 446 899 l 440 840 b 454 826 439 831 444 826 l 622 826 b 631 818 628 826 631 824 l 629 738 b 621 725 629 729 626 725 b 614 726 618 725 615 725 b 468 750 582 739 517 750 b 85 293 196 750 85 549 b 324 -17 85 103 163 -17 b 619 261 469 -17 563 100 b 628 261 624 272 629 271 b 622 143 624 207 622 168 b 738 -12 622 39 646 -12 b 796 -6 756 -12 779 -10 b 807 8 801 -4 806 1 l 811 57 b 800 69 813 65 808 69 l 775 69 b 713 193 719 69 710 93 l 728 818 b 736 826 728 824 731 826 l 835 826 b 850 840 843 826 849 831 z m 629 590 b 592 365 629 522 617 447 b 488 157 568 283 533 214 b 335 72 443 100 392 72 b 222 139 281 72 243 94 b 190 301 201 183 190 238 b 468 661 190 524 272 661 b 617 635 531 661 590 650 b 629 615 626 629 629 625 z "},"e":{"ha":790,"x_min":0,"x_max":0,"o":"m 82 351 b 460 -17 82 106 219 -17 b 651 15 536 -17 603 -3 b 663 32 658 18 663 24 l 667 94 b 657 104 667 101 664 104 l 651 103 b 463 72 606 85 528 72 b 188 313 290 72 188 165 b 196 322 188 319 190 322 b 347 317 239 318 293 317 b 667 396 503 317 610 343 b 721 531 704 429 721 474 b 453 750 721 679 614 750 b 82 351 242 750 82 601 z m 621 529 b 329 401 621 429 517 401 b 199 407 281 401 236 403 b 189 421 192 408 189 413 b 446 665 197 557 297 665 b 621 529 563 665 621 614 z "},"é":{"ha":790,"x_min":0,"x_max":0,"o":"m 82 351 b 460 -17 82 106 219 -17 b 651 15 536 -17 603 -3 b 663 32 658 18 663 24 l 667 94 b 657 104 667 101 664 104 l 651 103 b 463 72 606 85 528 72 b 188 313 290 72 188 165 b 196 322 188 319 190 322 b 347 317 239 318 293 317 b 667 396 503 317 610 343 b 721 531 704 429 721 474 b 453 750 721 679 614 750 b 82 351 242 750 82 601 z m 621 529 b 329 401 621 429 517 401 b 199 407 281 401 236 403 b 189 421 192 408 189 413 b 446 665 197 557 297 665 b 621 529 563 665 621 614 z m 389 853 b 400 836 385 843 389 836 l 451 836 b 468 846 458 836 464 839 l 610 1069 b 601 1086 617 1079 613 1086 l 514 1086 b 499 1076 507 1086 501 1083 z "},"ĕ":{"ha":790,"x_min":0,"x_max":0,"o":"m 82 351 b 460 -17 82 106 219 -17 b 651 15 536 -17 603 -3 b 663 32 658 18 663 24 l 667 94 b 657 104 667 101 664 104 l 651 103 b 463 72 606 85 528 72 b 188 313 290 72 188 165 b 196 322 188 319 190 322 b 347 317 239 318 293 317 b 667 396 503 317 610 343 b 721 531 704 429 721 474 b 453 750 721 679 614 750 b 82 351 242 750 82 601 z m 621 529 b 329 401 621 429 517 401 b 199 407 281 401 236 403 b 189 421 192 408 189 413 b 446 665 197 557 297 665 b 621 529 563 665 621 614 z m 225 1049 b 439 831 225 908 293 831 b 656 1049 585 831 656 910 b 642 1061 656 1057 651 1061 l 594 1061 b 581 1049 585 1061 581 1057 b 440 911 581 957 533 911 b 300 1049 347 911 300 958 b 286 1061 300 1057 296 1061 l 239 1061 b 225 1049 229 1061 225 1057 z "},"ě":{"ha":790,"x_min":0,"x_max":0,"o":"m 82 351 b 460 -17 82 106 219 -17 b 651 15 536 -17 603 -3 b 663 32 658 18 663 24 l 667 94 b 657 104 667 101 664 104 l 651 103 b 463 72 606 85 528 72 b 188 313 290 72 188 165 b 196 322 188 319 190 322 b 347 317 239 318 293 317 b 667 396 503 317 610 343 b 721 531 704 429 721 474 b 453 750 721 679 614 750 b 82 351 242 750 82 601 z m 621 529 b 329 401 621 429 517 401 b 199 407 281 401 236 403 b 189 421 192 408 189 413 b 446 665 197 557 297 665 b 621 529 563 665 621 614 z m 365 851 b 390 836 375 840 379 836 l 490 836 b 515 851 501 836 508 840 l 678 1071 b 671 1086 683 1078 681 1086 l 607 1086 b 585 1075 597 1086 590 1082 l 453 915 b 442 910 450 911 446 910 b 429 915 438 910 433 911 l 297 1075 b 274 1086 292 1081 285 1086 l 210 1086 b 201 1078 204 1086 201 1082 l 204 1071 z "},"ê":{"ha":790,"x_min":0,"x_max":0,"o":"m 82 351 b 460 -17 82 106 219 -17 b 651 15 536 -17 603 -3 b 663 32 658 18 663 24 l 667 94 b 657 104 667 101 664 104 l 651 103 b 463 72 606 85 528 72 b 188 313 290 72 188 165 b 196 322 188 319 190 322 b 347 317 239 318 293 317 b 667 396 503 317 610 343 b 721 531 704 429 721 474 b 453 750 721 679 614 750 b 82 351 242 750 82 601 z m 621 529 b 329 401 621 429 517 401 b 199 407 281 401 236 403 b 189 421 192 408 189 413 b 446 665 197 557 297 665 b 621 529 563 665 621 614 z m 514 1071 b 489 1086 507 1082 501 1086 l 389 1086 b 364 1071 379 1086 371 1082 l 203 851 b 208 836 197 844 201 836 l 272 836 b 296 847 283 836 290 842 l 428 1007 b 440 1014 432 1011 436 1014 b 451 1007 444 1014 449 1011 l 583 847 b 606 836 589 840 596 836 l 669 836 b 679 844 675 836 679 840 b 676 851 679 849 676 850 z "},"ë":{"ha":790,"x_min":0,"x_max":0,"o":"m 82 351 b 460 -17 82 106 219 -17 b 651 15 536 -17 603 -3 b 663 32 658 18 663 24 l 667 94 b 657 104 667 101 664 104 l 651 103 b 463 72 606 85 528 72 b 188 313 290 72 188 165 b 196 322 188 319 190 322 b 347 317 239 318 293 317 b 667 396 503 317 610 343 b 721 531 704 429 721 474 b 453 750 721 679 614 750 b 82 351 242 750 82 601 z m 621 529 b 329 401 621 429 517 401 b 199 407 281 401 236 403 b 189 421 192 408 189 413 b 446 665 197 557 297 665 b 621 529 563 665 621 614 z m 226 972 b 303 897 226 929 258 897 b 379 972 347 897 379 929 b 303 1047 379 1015 347 1047 b 226 972 258 1047 226 1015 z m 503 972 b 579 897 503 929 535 897 b 656 972 624 897 656 929 b 579 1047 656 1015 624 1047 b 503 972 535 1047 503 1015 z "},"ė":{"ha":790,"x_min":0,"x_max":0,"o":"m 82 351 b 460 -17 82 106 219 -17 b 651 15 536 -17 603 -3 b 663 32 658 18 663 24 l 667 94 b 657 104 667 101 664 104 l 651 103 b 463 72 606 85 528 72 b 188 313 290 72 188 165 b 196 322 188 319 190 322 b 347 317 239 318 293 317 b 667 396 503 317 610 343 b 721 531 704 429 721 474 b 453 750 721 679 614 750 b 82 351 242 750 82 601 z m 621 529 b 329 401 621 429 517 401 b 199 407 281 401 236 403 b 189 421 192 408 189 413 b 446 665 197 557 297 665 b 621 529 563 665 621 614 z m 361 969 b 440 890 361 925 394 890 b 521 969 486 890 521 925 b 440 1050 521 1018 489 1050 b 361 969 394 1050 361 1015 z "},"è":{"ha":790,"x_min":0,"x_max":0,"o":"m 82 351 b 460 -17 82 106 219 -17 b 651 15 536 -17 603 -3 b 663 32 658 18 663 24 l 667 94 b 657 104 667 101 664 104 l 651 103 b 463 72 606 85 528 72 b 188 313 290 72 188 165 b 196 322 188 319 190 322 b 347 317 239 318 293 317 b 667 396 503 317 610 343 b 721 531 704 429 721 474 b 453 750 721 679 614 750 b 82 351 242 750 82 601 z m 621 529 b 329 401 621 429 517 401 b 199 407 281 401 236 403 b 189 421 192 408 189 413 b 446 665 197 557 297 665 b 621 529 563 665 621 614 z m 408 846 b 425 836 413 839 418 836 l 478 836 b 490 846 485 836 490 840 b 489 853 490 849 490 851 l 379 1076 b 364 1086 376 1083 371 1086 l 276 1086 b 265 1078 269 1086 265 1083 b 268 1069 265 1074 267 1071 z "},"ē":{"ha":790,"x_min":0,"x_max":0,"o":"m 82 351 b 460 -17 82 106 219 -17 b 651 15 536 -17 603 -3 b 663 32 658 18 663 24 l 667 94 b 657 104 667 101 664 104 l 651 103 b 463 72 606 85 528 72 b 188 313 290 72 188 165 b 196 322 188 319 190 322 b 347 317 239 318 293 317 b 667 396 503 317 610 343 b 721 531 704 429 721 474 b 453 750 721 679 614 750 b 82 351 242 750 82 601 z m 621 529 b 329 401 621 429 517 401 b 199 407 281 401 236 403 b 189 421 192 408 189 413 b 446 665 197 557 297 665 b 621 529 563 665 621 614 z m 226 929 b 239 917 226 922 232 917 l 638 917 b 651 929 646 917 650 921 l 656 986 b 642 999 656 994 651 999 l 243 999 b 231 986 236 999 232 994 z "},"ę":{"ha":790,"x_min":0,"x_max":0,"o":"m 408 -182 b 549 -294 408 -258 458 -294 b 640 -279 582 -294 613 -289 b 650 -262 647 -276 650 -271 l 650 -224 b 643 -214 650 -218 647 -214 l 638 -215 b 576 -225 617 -222 597 -225 b 504 -162 531 -225 504 -203 b 650 14 504 -103 556 -47 b 663 35 657 19 663 28 l 667 94 b 657 104 667 101 664 104 l 651 103 b 463 72 606 85 528 72 b 188 313 290 72 188 165 b 196 322 188 319 190 322 b 347 317 239 318 293 317 b 667 396 503 317 610 343 b 721 531 704 429 721 474 b 453 750 721 679 614 750 b 82 351 242 750 82 601 b 460 -17 82 106 219 -17 b 510 -14 471 -17 488 -15 b 513 -22 515 -14 518 -18 b 408 -182 443 -75 408 -128 z m 621 529 b 329 401 621 429 517 401 b 199 407 281 401 236 403 b 189 421 192 408 189 413 b 446 665 197 557 297 665 b 621 529 563 665 621 614 z "},"f":{"ha":492,"x_min":0,"x_max":0,"o":"m 293 733 b 285 742 288 733 285 736 l 285 754 b 446 961 285 903 326 961 b 504 954 468 961 488 958 b 519 963 514 953 518 956 l 529 1026 b 519 1039 529 1033 526 1038 b 442 1047 500 1044 474 1047 b 242 967 346 1047 279 1021 b 185 768 204 914 185 847 l 185 742 b 176 733 185 736 182 733 l 51 733 b 36 719 44 733 38 729 l 29 660 b 43 646 29 653 36 646 l 176 646 b 185 638 182 646 185 643 l 185 14 b 199 0 185 7 192 0 l 271 0 b 285 14 281 0 285 7 l 285 638 b 293 646 285 642 288 646 l 469 646 b 483 658 478 646 482 650 l 490 719 b 478 733 492 726 488 733 l 293 733 z "},"g":{"ha":858,"x_min":0,"x_max":0,"o":"m 339 -185 b 174 -164 283 -185 228 -178 b 154 -175 161 -160 156 -164 l 149 -240 b 160 -256 147 -250 153 -254 b 338 -274 214 -268 272 -274 b 738 213 651 -269 735 -133 b 735 457 738 285 736 367 b 725 679 733 547 729 622 b 711 699 725 688 721 694 b 469 750 650 728 557 750 b 85 300 185 750 85 535 b 322 7 85 104 171 7 b 636 288 467 7 576 117 b 644 288 638 299 644 297 b 339 -185 642 -67 589 -178 z m 614 633 b 625 614 625 626 625 625 l 625 582 b 590 369 625 518 614 447 b 492 172 568 293 535 226 b 339 92 449 118 397 92 b 192 301 229 92 192 181 b 468 661 192 542 283 661 b 614 633 535 661 593 646 z "},"ğ":{"ha":858,"x_min":0,"x_max":0,"o":"m 339 -185 b 174 -164 283 -185 228 -178 b 154 -175 161 -160 156 -164 l 149 -240 b 160 -256 147 -250 153 -254 b 338 -274 214 -268 272 -274 b 738 213 651 -269 735 -133 b 735 457 738 285 736 367 b 725 679 733 547 729 622 b 711 699 725 688 721 694 b 469 750 650 728 557 750 b 85 300 185 750 85 535 b 322 7 85 104 171 7 b 636 288 467 7 576 117 b 644 288 638 299 644 297 b 339 -185 642 -67 589 -178 z m 614 633 b 625 614 625 626 625 625 l 625 582 b 590 369 625 518 614 447 b 492 172 568 293 535 226 b 339 92 449 118 397 92 b 192 301 229 92 192 181 b 468 661 192 542 283 661 b 614 633 535 661 593 646 z m 254 1049 b 468 831 254 908 322 831 b 685 1049 614 831 685 910 b 671 1061 685 1057 681 1061 l 624 1061 b 610 1049 614 1061 610 1057 b 469 911 610 957 563 911 b 329 1049 376 911 329 958 b 315 1061 329 1057 325 1061 l 268 1061 b 254 1049 258 1061 254 1057 z "},"ĝ":{"ha":858,"x_min":0,"x_max":0,"o":"m 339 -185 b 174 -164 283 -185 228 -178 b 154 -175 161 -160 156 -164 l 149 -240 b 160 -256 147 -250 153 -254 b 338 -274 214 -268 272 -274 b 738 213 651 -269 735 -133 b 735 457 738 285 736 367 b 725 679 733 547 729 622 b 711 699 725 688 721 694 b 469 750 650 728 557 750 b 85 300 185 750 85 535 b 322 7 85 104 171 7 b 636 288 467 7 576 117 b 644 288 638 299 644 297 b 339 -185 642 -67 589 -178 z m 614 633 b 625 614 625 626 625 625 l 625 582 b 590 369 625 518 614 447 b 492 172 568 293 535 226 b 339 92 449 118 397 92 b 192 301 229 92 192 181 b 468 661 192 542 283 661 b 614 633 535 661 593 646 z m 543 1071 b 518 1086 536 1082 531 1086 l 418 1086 b 393 1071 408 1086 400 1082 l 232 851 b 238 836 226 844 231 836 l 301 836 b 325 847 313 836 319 842 l 457 1007 b 469 1014 461 1011 465 1014 b 481 1007 474 1014 478 1011 l 613 847 b 635 836 618 840 625 836 l 699 836 b 708 844 704 836 708 840 b 706 851 708 849 706 850 z "},"ģ":{"ha":858,"x_min":0,"x_max":0,"o":"m 339 -185 b 174 -164 283 -185 228 -178 b 154 -175 161 -160 156 -164 l 149 -240 b 160 -256 147 -250 153 -254 b 338 -274 214 -268 272 -274 b 738 213 651 -269 735 -133 b 735 457 738 285 736 367 b 725 679 733 547 729 622 b 711 699 725 688 721 694 b 469 750 650 728 557 750 b 85 300 185 750 85 535 b 322 7 85 104 171 7 b 636 288 467 7 576 117 b 644 288 638 299 644 297 b 339 -185 642 -67 589 -178 z m 614 633 b 625 614 625 626 625 625 l 625 582 b 590 369 625 518 614 447 b 492 172 568 293 535 226 b 339 92 449 118 397 92 b 192 301 229 92 192 181 b 468 661 192 542 283 661 b 614 633 535 661 593 646 z m 396 839 b 407 829 396 833 400 829 l 485 829 b 499 842 492 829 497 833 l 539 1072 b 526 1088 540 1082 536 1088 l 478 1088 b 463 1075 471 1088 465 1083 l 401 861 b 396 839 400 854 396 844 z "},"ġ":{"ha":858,"x_min":0,"x_max":0,"o":"m 339 -185 b 174 -164 283 -185 228 -178 b 154 -175 161 -160 156 -164 l 149 -240 b 160 -256 147 -250 153 -254 b 338 -274 214 -268 272 -274 b 738 213 651 -269 735 -133 b 735 457 738 285 736 367 b 725 679 733 547 729 622 b 711 699 725 688 721 694 b 469 750 650 728 557 750 b 85 300 185 750 85 535 b 322 7 85 104 171 7 b 636 288 467 7 576 117 b 644 288 638 299 644 297 b 339 -185 642 -67 589 -178 z m 614 633 b 625 614 625 626 625 625 l 625 582 b 590 369 625 518 614 447 b 492 172 568 293 535 226 b 339 92 449 118 397 92 b 192 301 229 92 192 181 b 468 661 192 542 283 661 b 614 633 535 661 593 646 z m 390 969 b 469 890 390 925 424 890 b 550 969 515 890 550 925 b 469 1050 550 1018 518 1050 b 390 969 424 1050 390 1015 z "},"h":{"ha":857,"x_min":0,"x_max":0,"o":"m 142 1038 b 128 1024 135 1038 128 1033 l 128 14 b 142 0 128 7 135 0 l 217 0 b 231 14 226 0 231 7 l 231 142 b 238 249 231 176 233 211 b 515 661 257 436 381 667 b 636 431 619 661 636 582 l 636 14 b 650 0 636 7 643 0 l 725 0 b 739 14 735 0 739 7 l 739 457 b 532 750 739 640 688 750 b 232 456 376 750 279 613 b 225 457 231 449 225 447 l 231 1024 b 217 1038 231 1033 226 1038 l 142 1038 z "},"ħ":{"ha":865,"x_min":0,"x_max":0,"o":"m 733 0 b 747 14 743 0 747 7 l 747 457 b 540 750 747 640 696 750 b 240 456 385 750 288 613 b 233 457 239 449 233 447 l 238 818 b 246 826 238 822 242 826 l 406 826 b 419 840 413 826 418 831 l 425 889 b 411 903 426 899 421 903 l 247 903 b 239 911 242 903 239 906 l 239 1024 b 225 1038 239 1033 235 1038 l 150 1038 b 136 1024 143 1038 136 1033 l 136 911 b 128 903 136 906 132 903 l 29 903 b 15 889 22 903 17 899 l 10 840 b 22 826 8 833 13 826 l 128 826 b 136 818 133 826 136 824 l 136 14 b 150 0 136 7 143 0 l 225 0 b 239 14 235 0 239 7 l 239 142 b 246 249 239 176 242 211 b 524 661 265 436 389 667 b 644 431 628 661 644 582 l 644 14 b 658 0 644 7 651 0 z "},"ĥ":{"ha":857,"x_min":0,"x_max":0,"o":"m 142 1038 b 128 1024 135 1038 128 1033 l 128 14 b 142 0 128 7 135 0 l 217 0 b 231 14 226 0 231 7 l 231 142 b 238 249 231 176 233 211 b 515 661 257 436 381 667 b 636 431 619 661 636 582 l 636 14 b 650 0 636 7 643 0 l 725 0 b 739 14 735 0 739 7 l 739 457 b 532 750 739 640 688 750 b 232 456 376 750 279 613 b 225 457 231 449 225 447 l 231 1024 b 217 1038 231 1033 226 1038 z m 254 1326 b 231 1339 247 1336 242 1339 l 129 1339 b 106 1326 118 1339 113 1336 l -47 1139 b -39 1124 -54 1129 -50 1124 l 26 1124 b 43 1131 31 1124 36 1126 l 169 1267 b 179 1272 172 1271 175 1272 b 189 1267 185 1272 188 1271 l 317 1131 b 333 1124 321 1126 326 1124 l 399 1124 b 410 1131 406 1124 410 1126 b 407 1139 410 1135 408 1138 z "},"i":{"ha":417,"x_min":0,"x_max":0,"o":"m 310 978 b 231 1057 310 1028 276 1057 b 150 978 185 1057 150 1022 b 231 896 150 926 182 896 b 310 978 276 896 310 932 z m 160 646 b 171 635 169 646 171 644 b 161 392 167 553 164 471 b 157 197 158 313 157 249 b 297 -12 157 61 176 -12 b 371 -3 332 -12 353 -8 b 381 11 376 0 379 4 l 390 74 b 381 83 390 81 388 83 l 378 83 b 333 78 363 79 349 78 b 260 207 268 78 260 108 b 276 717 260 308 265 478 b 260 733 276 728 271 733 l 89 733 b 72 719 78 733 74 729 l 65 660 b 79 646 65 650 69 646 z "},"ı":{"ha":417,"x_min":0,"x_max":0,"o":"m 160 646 b 171 635 169 646 171 644 b 161 392 167 553 164 471 b 157 197 158 313 157 249 b 297 -12 157 61 176 -12 b 371 -3 332 -12 353 -8 b 381 11 376 0 379 4 l 390 74 b 381 83 390 81 388 83 l 378 83 b 333 78 363 79 349 78 b 260 207 268 78 260 108 b 276 717 260 308 265 478 b 260 733 276 728 271 733 l 89 733 b 72 719 78 733 74 729 l 65 660 b 79 646 65 650 69 646 l 160 646 z "},"í":{"ha":417,"x_min":0,"x_max":0,"o":"m 160 646 b 171 635 169 646 171 644 b 161 392 167 553 164 471 b 157 197 158 313 157 249 b 297 -12 157 61 176 -12 b 371 -3 332 -12 353 -8 b 381 11 376 0 379 4 l 390 74 b 381 83 390 81 388 83 l 378 83 b 333 78 363 79 349 78 b 260 207 268 78 260 108 b 276 717 260 308 265 478 b 260 733 276 728 271 733 l 89 733 b 72 719 78 733 74 729 l 65 660 b 79 646 65 650 69 646 z m 157 853 b 168 836 153 843 157 836 l 219 836 b 236 846 226 836 232 839 l 378 1069 b 369 1086 385 1079 381 1086 l 282 1086 b 267 1076 275 1086 269 1083 z "},"ĭ":{"ha":417,"x_min":0,"x_max":0,"o":"m 160 646 b 171 635 169 646 171 644 b 161 392 167 553 164 471 b 157 197 158 313 157 249 b 297 -12 157 61 176 -12 b 371 -3 332 -12 353 -8 b 381 11 376 0 379 4 l 390 74 b 381 83 390 81 388 83 l 378 83 b 333 78 363 79 349 78 b 260 207 268 78 260 108 b 276 717 260 308 265 478 b 260 733 276 728 271 733 l 89 733 b 72 719 78 733 74 729 l 65 660 b 79 646 65 650 69 646 z m -7 1049 b 207 831 -7 908 61 831 b 424 1049 353 831 424 910 b 410 1061 424 1057 419 1061 l 363 1061 b 349 1049 353 1061 349 1057 b 208 911 349 957 301 911 b 68 1049 115 911 68 958 b 54 1061 68 1057 64 1061 l 7 1061 b -7 1049 -3 1061 -7 1057 z "},"î":{"ha":417,"x_min":0,"x_max":0,"o":"m 160 646 b 171 635 169 646 171 644 b 161 392 167 553 164 471 b 157 197 158 313 157 249 b 297 -12 157 61 176 -12 b 371 -3 332 -12 353 -8 b 381 11 376 0 379 4 l 390 74 b 381 83 390 81 388 83 l 378 83 b 333 78 363 79 349 78 b 260 207 268 78 260 108 b 276 717 260 308 265 478 b 260 733 276 728 271 733 l 89 733 b 72 719 78 733 74 729 l 65 660 b 79 646 65 650 69 646 z m 282 1071 b 257 1086 275 1082 269 1086 l 157 1086 b 132 1071 147 1086 139 1082 l -29 851 b -24 836 -35 844 -31 836 l 40 836 b 64 847 51 836 58 842 l 196 1007 b 208 1014 200 1011 204 1014 b 219 1007 213 1014 217 1011 l 351 847 b 374 836 357 840 364 836 l 438 836 b 447 844 443 836 447 840 b 444 851 447 849 444 850 z "},"ï":{"ha":417,"x_min":0,"x_max":0,"o":"m 160 646 b 171 635 169 646 171 644 b 161 392 167 553 164 471 b 157 197 158 313 157 249 b 297 -12 157 61 176 -12 b 371 -3 332 -12 353 -8 b 381 11 376 0 379 4 l 390 74 b 381 83 390 81 388 83 l 378 83 b 333 78 363 79 349 78 b 260 207 268 78 260 108 b 276 717 260 308 265 478 b 260 733 276 728 271 733 l 89 733 b 72 719 78 733 74 729 l 65 660 b 79 646 65 650 69 646 z m -6 972 b 71 897 -6 929 26 897 b 147 972 115 897 147 929 b 71 1047 147 1015 115 1047 b -6 972 26 1047 -6 1015 z m 271 972 b 347 897 271 929 303 897 b 424 972 392 897 424 929 b 347 1047 424 1015 392 1047 b 271 972 303 1047 271 1015 z "},"ì":{"ha":417,"x_min":0,"x_max":0,"o":"m 160 646 b 171 635 169 646 171 644 b 161 392 167 553 164 471 b 157 197 158 313 157 249 b 297 -12 157 61 176 -12 b 371 -3 332 -12 353 -8 b 381 11 376 0 379 4 l 390 74 b 381 83 390 81 388 83 l 378 83 b 333 78 363 79 349 78 b 260 207 268 78 260 108 b 276 717 260 308 265 478 b 260 733 276 728 271 733 l 89 733 b 72 719 78 733 74 729 l 65 660 b 79 646 65 650 69 646 z m 176 846 b 193 836 181 839 186 836 l 246 836 b 258 846 253 836 258 840 b 257 853 258 849 258 851 l 147 1076 b 132 1086 144 1083 139 1086 l 44 1086 b 33 1078 38 1086 33 1083 b 36 1069 33 1074 35 1071 z "},"ĳ":{"ha":833,"x_min":0,"x_max":0,"o":"m 310 978 b 231 1057 310 1028 276 1057 b 150 978 185 1057 150 1022 b 231 896 150 926 182 896 b 310 978 276 896 310 932 z m 160 646 b 171 635 169 646 171 644 b 161 392 167 553 164 471 b 157 197 158 313 157 249 b 297 -12 157 61 176 -12 b 371 -3 332 -12 353 -8 b 381 11 376 0 379 4 l 390 74 b 381 83 390 81 388 83 l 378 83 b 333 78 363 79 349 78 b 260 207 268 78 260 108 b 276 717 260 308 265 478 b 260 733 276 728 271 733 l 89 733 b 72 719 78 733 74 729 l 65 660 b 79 646 65 650 69 646 z m 718 978 b 639 1057 718 1028 685 1057 b 558 978 593 1057 558 1022 b 639 896 558 926 590 896 b 718 978 683 896 718 932 z m 588 646 b 599 635 597 646 599 644 b 604 97 603 451 604 272 b 428 -185 604 -86 567 -171 b 415 -194 421 -185 415 -189 l 417 -199 l 436 -264 b 451 -275 438 -271 442 -275 b 707 79 632 -250 707 -150 b 706 392 707 169 707 274 l 701 718 b 686 733 701 728 696 733 l 511 733 b 496 719 501 733 497 729 l 489 660 b 501 646 488 650 492 646 z "},"ī":{"ha":417,"x_min":0,"x_max":0,"o":"m 160 646 b 171 635 169 646 171 644 b 161 392 167 553 164 471 b 157 197 158 313 157 249 b 297 -12 157 61 176 -12 b 371 -3 332 -12 353 -8 b 381 11 376 0 379 4 l 390 74 b 381 83 390 81 388 83 l 378 83 b 333 78 363 79 349 78 b 260 207 268 78 260 108 b 276 717 260 308 265 478 b 260 733 276 728 271 733 l 89 733 b 72 719 78 733 74 729 l 65 660 b 79 646 65 650 69 646 z m -6 929 b 7 917 -6 922 0 917 l 406 917 b 419 929 414 917 418 921 l 424 986 b 410 999 424 994 419 999 l 11 999 b -1 986 4 999 0 994 z "},"į":{"ha":417,"x_min":0,"x_max":0,"o":"m 150 978 b 231 896 150 926 182 896 b 310 978 276 896 310 932 b 231 1057 310 1028 276 1057 b 150 978 185 1057 150 1022 z m 146 -182 b 286 -294 146 -258 197 -294 b 379 -279 321 -294 351 -289 b 389 -262 386 -276 389 -271 l 389 -224 b 382 -214 389 -218 386 -214 l 376 -215 b 314 -225 356 -222 335 -225 b 243 -162 269 -225 243 -203 b 371 -4 243 -112 286 -60 b 381 11 375 0 379 4 l 390 74 b 381 83 390 81 388 83 l 378 83 b 333 78 363 79 349 78 b 260 207 268 78 260 108 b 276 717 260 308 265 478 b 260 733 276 728 271 733 l 89 733 b 72 719 78 733 74 729 l 65 660 b 79 646 65 650 69 646 l 160 646 b 171 635 169 646 171 644 b 161 392 167 553 164 471 b 157 197 158 313 157 249 b 258 -8 157 76 174 8 b 261 -19 265 -10 267 -15 b 146 -182 185 -69 146 -126 z "},"ĩ":{"ha":417,"x_min":0,"x_max":0,"o":"m 160 646 b 171 635 169 646 171 644 b 161 392 167 553 164 471 b 157 197 158 313 157 249 b 297 -12 157 61 176 -12 b 371 -3 332 -12 353 -8 b 381 11 376 0 379 4 l 390 74 b 381 83 390 81 388 83 l 378 83 b 333 78 363 79 349 78 b 260 207 268 78 260 108 b 276 717 260 308 265 478 b 260 733 276 728 271 733 l 89 733 b 72 719 78 733 74 729 l 65 660 b 79 646 65 650 69 646 z m -37 876 b -25 864 -37 869 -32 864 l 19 864 b 31 875 26 864 31 868 b 99 968 35 935 58 968 b 192 921 126 968 151 954 b 319 865 246 878 275 865 b 453 1039 404 865 453 954 b 440 1051 453 1046 447 1051 l 396 1051 b 383 1040 389 1051 385 1047 b 315 946 379 978 356 946 b 225 992 289 946 268 958 b 96 1049 174 1035 140 1049 b -37 876 13 1049 -37 963 z "},"j":{"ha":417,"x_min":0,"x_max":0,"o":"m 301 978 b 222 1057 301 1028 268 1057 b 142 978 176 1057 142 1022 b 222 896 142 926 174 896 b 301 978 267 896 301 932 z m 171 646 b 182 635 181 646 182 644 b 188 97 186 451 188 272 b 11 -185 188 -86 150 -171 b -1 -194 4 -185 -1 -189 l 0 -199 l 19 -264 b 35 -275 21 -271 25 -275 b 290 79 215 -250 290 -150 b 289 392 290 169 290 274 l 285 718 b 269 733 285 728 279 733 l 94 733 b 79 719 85 733 81 729 l 72 660 b 85 646 71 650 75 646 z "},"ȷ":{"ha":417,"x_min":0,"x_max":0,"o":"m 171 646 b 182 635 181 646 182 644 b 188 97 186 451 188 272 b 11 -185 188 -86 150 -171 b -1 -194 4 -185 -1 -189 l 0 -199 l 19 -264 b 35 -275 21 -271 25 -275 b 290 79 215 -250 290 -150 b 289 392 290 169 290 274 l 285 718 b 269 733 285 728 279 733 l 94 733 b 79 719 85 733 81 729 l 72 660 b 85 646 71 650 75 646 l 171 646 z "},"ĵ":{"ha":417,"x_min":0,"x_max":0,"o":"m 171 646 b 182 635 181 646 182 644 b 188 97 186 451 188 272 b 11 -185 188 -86 150 -171 b -1 -194 4 -185 -1 -189 l 0 -199 l 19 -264 b 35 -275 21 -271 25 -275 b 290 79 215 -250 290 -150 b 289 392 290 169 290 274 l 285 718 b 269 733 285 728 279 733 l 94 733 b 79 719 85 733 81 729 l 72 660 b 85 646 71 650 75 646 z m 282 1071 b 257 1086 275 1082 269 1086 l 157 1086 b 132 1071 147 1086 139 1082 l -29 851 b -24 836 -35 844 -31 836 l 40 836 b 64 847 51 836 58 842 l 196 1007 b 208 1014 200 1011 204 1014 b 219 1007 213 1014 217 1011 l 351 847 b 374 836 357 840 364 836 l 438 836 b 447 844 443 836 447 840 b 444 851 447 849 444 850 z "},"k":{"ha":714,"x_min":0,"x_max":0,"o":"m 128 14 b 142 0 128 7 135 0 l 217 0 b 231 14 226 0 231 7 l 231 329 b 238 342 231 338 233 342 b 249 336 242 342 244 340 b 407 183 286 303 339 251 b 572 13 476 115 532 58 b 599 0 579 4 589 0 l 694 0 b 706 10 701 0 706 3 b 703 19 706 14 704 18 b 538 185 676 49 621 104 b 347 368 456 267 392 328 b 338 382 340 374 338 378 b 346 394 338 385 340 389 b 525 561 389 432 449 488 b 683 718 601 635 654 688 b 674 733 689 728 685 733 l 583 733 b 557 721 572 733 564 731 b 399 560 522 683 469 629 b 244 417 328 490 276 443 b 231 422 235 410 231 411 l 231 1024 b 217 1038 231 1033 226 1038 l 142 1038 b 128 1024 135 1038 128 1033 l 128 14 z "},"ķ":{"ha":714,"x_min":0,"x_max":0,"o":"m 128 14 b 142 0 128 7 135 0 l 217 0 b 231 14 226 0 231 7 l 231 329 b 238 342 231 338 233 342 b 249 336 242 342 244 340 b 407 183 286 303 339 251 b 572 13 476 115 532 58 b 599 0 579 4 589 0 l 694 0 b 706 10 701 0 706 3 b 703 19 706 14 704 18 b 538 185 676 49 621 104 b 347 368 456 267 392 328 b 338 382 340 374 338 378 b 346 394 338 385 340 389 b 525 561 389 432 449 488 b 683 718 601 635 654 688 b 674 733 689 728 685 733 l 583 733 b 557 721 572 733 564 731 b 399 560 522 683 469 629 b 244 417 328 490 276 443 b 231 422 235 410 231 411 l 231 1024 b 217 1038 231 1033 226 1038 l 142 1038 b 128 1024 135 1038 128 1033 z m 313 -321 b 325 -332 313 -328 318 -332 l 375 -332 b 390 -319 382 -332 388 -328 l 456 -89 b 444 -74 457 -79 454 -74 l 368 -74 b 354 -86 360 -74 356 -78 l 315 -301 z "},"ĸ":{"ha":707,"x_min":0,"x_max":0,"o":"m 128 14 b 142 0 128 7 135 0 l 217 0 b 231 14 226 0 231 7 l 231 329 b 238 342 231 338 233 342 b 249 336 242 342 244 340 b 407 183 286 303 339 251 b 572 13 476 115 532 58 b 599 0 579 4 589 0 l 694 0 b 706 10 701 0 706 3 b 703 19 706 14 704 18 b 538 185 676 49 621 104 b 347 368 456 267 392 328 b 338 382 340 374 338 378 b 346 394 338 385 340 389 b 525 561 389 432 449 488 b 683 718 601 635 654 688 b 674 733 689 728 685 733 l 583 733 b 557 721 572 733 564 731 b 399 560 522 683 469 629 b 244 417 328 490 276 443 b 231 422 235 410 231 411 l 231 719 b 217 733 231 729 226 733 l 142 733 b 128 719 135 733 128 729 l 128 14 z "},"l":{"ha":385,"x_min":0,"x_max":0,"o":"m 268 -14 b 353 -1 301 -14 329 -10 b 367 14 361 1 365 7 l 371 68 b 361 81 372 75 367 81 l 357 79 b 303 72 336 75 318 72 b 226 181 240 72 226 101 l 226 1024 b 213 1038 226 1033 222 1038 l 136 1038 b 122 1024 129 1038 122 1033 l 122 150 b 268 -14 122 43 163 -14 z "},"ĺ":{"ha":385,"x_min":0,"x_max":0,"o":"m 268 -14 b 353 -1 301 -14 329 -10 b 367 14 361 1 365 7 l 371 68 b 361 81 372 75 367 81 l 357 79 b 303 72 336 75 318 72 b 226 181 240 72 226 101 l 226 1024 b 213 1038 226 1033 222 1038 l 136 1038 b 122 1024 129 1038 122 1033 l 122 150 b 268 -14 122 43 163 -14 z m 115 1139 b 124 1124 110 1129 113 1124 l 185 1124 b 201 1132 190 1124 196 1126 l 368 1322 b 361 1339 375 1332 372 1339 l 265 1339 b 247 1329 258 1339 253 1335 z "},"ľ":{"ha":385,"x_min":0,"x_max":0,"o":"m 268 -14 b 353 -1 301 -14 329 -10 b 367 14 361 1 365 7 l 371 68 b 361 81 372 75 367 81 l 357 79 b 303 72 336 75 318 72 b 226 181 240 72 226 101 l 226 1024 b 213 1038 226 1033 222 1038 l 136 1038 b 122 1024 129 1038 122 1033 l 122 150 b 268 -14 122 43 163 -14 z m 299 794 b 311 779 297 785 301 779 l 361 779 b 375 792 369 779 374 783 l 429 1022 b 418 1038 431 1032 428 1038 l 342 1038 b 328 1025 335 1038 329 1033 z "},"ļ":{"ha":385,"x_min":0,"x_max":0,"o":"m 268 -14 b 353 -1 301 -14 329 -10 b 367 14 361 1 365 7 l 371 68 b 361 81 372 75 367 81 l 357 79 b 303 72 336 75 318 72 b 226 181 240 72 226 101 l 226 1024 b 213 1038 226 1033 222 1038 l 136 1038 b 122 1024 129 1038 122 1033 l 122 150 b 268 -14 122 43 163 -14 z m 132 -321 b 144 -332 132 -328 138 -332 l 194 -332 b 210 -319 201 -332 207 -328 l 275 -89 b 264 -74 276 -79 274 -74 l 188 -74 b 174 -86 179 -74 175 -78 l 135 -301 z "},"ŀ":{"ha":432,"x_min":0,"x_max":0,"o":"m 268 -14 b 353 -1 301 -14 329 -10 b 367 14 361 1 365 7 l 371 68 b 361 81 372 75 367 81 l 357 79 b 303 72 336 75 318 72 b 226 181 240 72 226 101 l 226 1024 b 213 1038 226 1033 222 1038 l 136 1038 b 122 1024 129 1038 122 1033 l 122 150 b 268 -14 122 43 163 -14 z m 478 557 b 390 644 478 608 440 644 b 304 557 342 644 304 608 b 390 472 304 508 342 472 b 478 557 440 472 478 508 z "},"ł":{"ha":393,"x_min":0,"x_max":0,"o":"m 311 72 b 235 181 249 72 235 101 l 235 515 b 244 532 235 522 238 528 l 339 592 b 349 608 346 596 349 601 l 349 667 b 340 679 349 675 346 679 b 332 676 339 679 336 678 l 244 624 b 235 629 239 622 235 624 l 235 1024 b 221 1038 235 1033 231 1038 l 144 1038 b 131 1024 138 1038 131 1033 l 131 579 b 121 563 131 572 128 567 l 40 514 b 31 497 33 510 31 504 l 31 439 b 39 426 31 431 33 426 b 47 429 40 426 43 428 l 121 471 b 131 465 126 475 131 472 l 131 150 b 276 -14 131 43 171 -14 b 361 -1 310 -14 338 -10 b 375 14 369 1 374 7 l 379 68 b 369 81 381 75 375 81 l 365 79 b 311 72 344 75 326 72 z "},"m":{"ha":1347,"x_min":0,"x_max":0,"o":"m 710 0 b 724 14 719 0 724 7 l 724 179 b 739 292 724 208 732 258 b 1006 661 779 468 883 665 b 1126 403 1113 656 1125 586 l 1126 14 b 1140 0 1126 7 1133 0 l 1215 0 b 1229 14 1225 0 1229 7 l 1229 432 b 1021 750 1229 643 1178 750 b 726 453 871 750 774 610 b 721 451 725 447 721 446 b 525 750 715 653 668 750 b 232 456 375 750 276 610 b 225 457 231 449 225 447 l 231 722 b 217 736 231 732 226 736 l 142 731 b 128 717 135 731 128 726 l 128 14 b 142 0 128 7 135 0 l 217 0 b 231 14 226 0 231 7 l 231 142 b 238 250 231 176 233 213 b 508 661 257 438 378 668 b 628 392 615 654 626 582 l 628 14 b 642 0 628 7 635 0 l 710 0 z "},"n":{"ha":857,"x_min":0,"x_max":0,"o":"m 128 14 b 142 0 128 7 135 0 l 217 0 b 231 14 226 0 231 7 l 231 144 b 238 251 231 179 233 214 b 515 661 260 436 383 667 b 636 431 619 661 636 582 l 636 14 b 650 0 636 7 643 0 l 725 0 b 739 14 735 0 739 7 l 739 457 b 532 750 739 640 688 750 b 232 456 381 750 279 613 b 225 457 231 449 225 447 l 231 722 b 217 736 231 732 226 736 l 142 731 b 128 717 135 731 128 726 l 128 14 z "},"ń":{"ha":857,"x_min":0,"x_max":0,"o":"m 128 14 b 142 0 128 7 135 0 l 217 0 b 231 14 226 0 231 7 l 231 144 b 238 251 231 179 233 214 b 515 661 260 436 383 667 b 636 431 619 661 636 582 l 636 14 b 650 0 636 7 643 0 l 725 0 b 739 14 735 0 739 7 l 739 457 b 532 750 739 640 688 750 b 232 456 381 750 279 613 b 225 457 231 449 225 447 l 231 722 b 217 736 231 732 226 736 l 142 731 b 128 717 135 731 128 726 z m 378 853 b 389 836 374 843 378 836 l 440 836 b 457 846 447 836 453 839 l 599 1069 b 590 1086 606 1079 601 1086 l 503 1086 b 488 1076 496 1086 490 1083 z "},"ŉ":{"ha":857,"x_min":0,"x_max":0,"o":"m 128 14 b 142 0 128 7 135 0 l 217 0 b 231 14 226 0 231 7 l 231 144 b 238 251 231 179 233 214 b 515 661 260 436 383 667 b 636 431 619 661 636 582 l 636 14 b 650 0 636 7 643 0 l 725 0 b 739 14 735 0 739 7 l 739 457 b 532 750 739 640 688 750 b 232 456 381 750 279 613 b 225 457 231 449 225 447 l 231 722 b 217 736 231 732 226 736 l 142 731 b 128 717 135 731 128 726 z m -1 794 b 11 779 -3 785 1 779 l 61 779 b 75 792 69 779 74 783 l 129 1022 b 118 1038 131 1032 128 1038 l 42 1038 b 28 1025 35 1038 29 1033 z "},"ň":{"ha":857,"x_min":0,"x_max":0,"o":"m 128 14 b 142 0 128 7 135 0 l 217 0 b 231 14 226 0 231 7 l 231 144 b 238 251 231 179 233 214 b 515 661 260 436 383 667 b 636 431 619 661 636 582 l 636 14 b 650 0 636 7 643 0 l 725 0 b 739 14 735 0 739 7 l 739 457 b 532 750 739 640 688 750 b 232 456 381 750 279 613 b 225 457 231 449 225 447 l 231 722 b 217 736 231 732 226 736 l 142 731 b 128 717 135 731 128 726 z m 354 851 b 379 836 364 840 368 836 l 479 836 b 504 851 490 836 497 840 l 667 1071 b 660 1086 672 1078 669 1086 l 596 1086 b 574 1075 586 1086 579 1082 l 442 915 b 431 910 439 911 435 910 b 418 915 426 910 422 911 l 286 1075 b 263 1086 281 1081 274 1086 l 199 1086 b 190 1078 193 1086 190 1082 l 193 1071 z "},"ņ":{"ha":857,"x_min":0,"x_max":0,"o":"m 128 14 b 142 0 128 7 135 0 l 217 0 b 231 14 226 0 231 7 l 231 144 b 238 251 231 179 233 214 b 515 661 260 436 383 667 b 636 431 619 661 636 582 l 636 14 b 650 0 636 7 643 0 l 725 0 b 739 14 735 0 739 7 l 739 457 b 532 750 739 640 688 750 b 232 456 381 750 279 613 b 225 457 231 449 225 447 l 231 722 b 217 736 231 732 226 736 l 142 731 b 128 717 135 731 128 726 z m 354 -321 b 367 -332 354 -328 360 -332 l 417 -332 b 432 -319 424 -332 429 -328 l 497 -89 b 486 -74 499 -79 496 -74 l 410 -74 b 396 -86 401 -74 397 -78 l 357 -301 z "},"ŋ":{"ha":857,"x_min":0,"x_max":0,"o":"m 739 457 b 532 750 739 640 688 750 b 232 456 381 750 279 613 b 225 457 231 449 225 447 l 231 722 b 217 736 231 732 226 736 l 142 731 b 128 717 135 731 128 726 l 128 14 b 142 0 128 7 135 0 l 217 0 b 231 14 226 0 231 7 l 231 144 b 238 251 231 179 233 214 b 515 661 260 436 383 667 b 636 431 619 661 636 582 l 636 97 b 461 -185 636 -86 599 -171 b 449 -196 454 -185 449 -189 l 449 -199 l 468 -264 b 483 -275 469 -271 474 -275 b 739 79 665 -250 739 -151 l 739 457 z "},"ñ":{"ha":857,"x_min":0,"x_max":0,"o":"m 128 14 b 142 0 128 7 135 0 l 217 0 b 231 14 226 0 231 7 l 231 144 b 238 251 231 179 233 214 b 515 661 260 436 383 667 b 636 431 619 661 636 582 l 636 14 b 650 0 636 7 643 0 l 725 0 b 739 14 735 0 739 7 l 739 457 b 532 750 739 640 688 750 b 232 456 381 750 279 613 b 225 457 231 449 225 447 l 231 722 b 217 736 231 732 226 736 l 142 731 b 128 717 135 731 128 726 z m 183 876 b 196 864 183 869 189 864 l 240 864 b 251 875 247 864 251 868 b 319 968 256 935 279 968 b 413 921 347 968 372 954 b 540 865 467 878 496 865 b 674 1039 625 865 674 954 b 661 1051 674 1046 668 1051 l 617 1051 b 604 1040 610 1051 606 1047 b 536 946 600 978 576 946 b 446 992 510 946 489 958 b 317 1049 394 1035 361 1049 b 183 876 233 1049 183 963 z "},"o":{"ha":864,"x_min":0,"x_max":0,"o":"m 782 365 b 432 750 782 593 653 750 b 82 365 211 750 82 593 b 432 -17 82 138 211 -17 b 782 365 653 -17 782 138 z m 676 365 b 432 72 676 192 592 72 b 189 365 274 72 189 192 b 432 661 189 539 274 661 b 676 365 592 661 676 538 z "},"ó":{"ha":864,"x_min":0,"x_max":0,"o":"m 782 365 b 432 750 782 593 653 750 b 82 365 211 750 82 593 b 432 -17 82 138 211 -17 b 782 365 653 -17 782 138 z m 676 365 b 432 72 676 192 592 72 b 189 365 274 72 189 192 b 432 661 189 539 274 661 b 676 365 592 661 676 538 z m 381 853 b 392 836 376 843 381 836 l 443 836 b 460 846 450 836 456 839 l 601 1069 b 593 1086 608 1079 604 1086 l 506 1086 b 490 1076 499 1086 493 1083 z "},"ŏ":{"ha":864,"x_min":0,"x_max":0,"o":"m 782 365 b 432 750 782 593 653 750 b 82 365 211 750 82 593 b 432 -17 82 138 211 -17 b 782 365 653 -17 782 138 z m 676 365 b 432 72 676 192 592 72 b 189 365 274 72 189 192 b 432 661 189 539 274 661 b 676 365 592 661 676 538 z m 217 1049 b 431 831 217 908 285 831 b 647 1049 576 831 647 910 b 633 1061 647 1057 643 1061 l 586 1061 b 572 1049 576 1061 572 1057 b 432 911 572 957 525 911 b 292 1049 339 911 292 958 b 278 1061 292 1057 288 1061 l 231 1061 b 217 1049 221 1061 217 1057 z "},"ô":{"ha":864,"x_min":0,"x_max":0,"o":"m 782 365 b 432 750 782 593 653 750 b 82 365 211 750 82 593 b 432 -17 82 138 211 -17 b 782 365 653 -17 782 138 z m 676 365 b 432 72 676 192 592 72 b 189 365 274 72 189 192 b 432 661 189 539 274 661 b 676 365 592 661 676 538 z m 506 1071 b 481 1086 499 1082 493 1086 l 381 1086 b 356 1071 371 1086 363 1082 l 194 851 b 200 836 189 844 193 836 l 264 836 b 288 847 275 836 282 842 l 419 1007 b 432 1014 424 1011 428 1014 b 443 1007 436 1014 440 1011 l 575 847 b 597 836 581 840 588 836 l 661 836 b 671 844 667 836 671 840 b 668 851 671 849 668 850 z "},"ö":{"ha":864,"x_min":0,"x_max":0,"o":"m 782 365 b 432 750 782 593 653 750 b 82 365 211 750 82 593 b 432 -17 82 138 211 -17 b 782 365 653 -17 782 138 z m 676 365 b 432 72 676 192 592 72 b 189 365 274 72 189 192 b 432 661 189 539 274 661 b 676 365 592 661 676 538 z m 218 972 b 294 897 218 929 250 897 b 371 972 339 897 371 929 b 294 1047 371 1015 339 1047 b 218 972 250 1047 218 1015 z m 494 972 b 571 897 494 929 526 897 b 647 972 615 897 647 929 b 571 1047 647 1015 615 1047 b 494 972 526 1047 494 1015 z "},"ò":{"ha":864,"x_min":0,"x_max":0,"o":"m 782 365 b 432 750 782 593 653 750 b 82 365 211 750 82 593 b 432 -17 82 138 211 -17 b 782 365 653 -17 782 138 z m 676 365 b 432 72 676 192 592 72 b 189 365 274 72 189 192 b 432 661 189 539 274 661 b 676 365 592 661 676 538 z m 400 846 b 417 836 404 839 410 836 l 469 836 b 482 846 476 836 482 840 b 481 853 482 849 482 851 l 371 1076 b 356 1086 368 1083 363 1086 l 268 1086 b 257 1078 261 1086 257 1083 b 260 1069 257 1074 258 1071 z "},"ő":{"ha":864,"x_min":0,"x_max":0,"o":"m 782 365 b 432 750 782 593 653 750 b 82 365 211 750 82 593 b 432 -17 82 138 211 -17 b 782 365 653 -17 782 138 z m 676 365 b 432 72 676 192 592 72 b 189 365 274 72 189 192 b 432 661 189 539 274 661 b 676 365 592 661 676 538 z m 268 853 b 279 836 264 843 268 836 l 331 836 b 347 846 338 836 343 839 l 485 1069 b 476 1086 492 1079 488 1086 l 392 1086 b 376 1076 385 1086 379 1083 z m 494 853 b 506 836 490 843 494 836 l 558 836 b 575 846 565 836 571 839 l 711 1069 b 703 1086 718 1079 714 1086 l 618 1086 b 603 1076 611 1086 606 1083 z "},"ō":{"ha":864,"x_min":0,"x_max":0,"o":"m 782 365 b 432 750 782 593 653 750 b 82 365 211 750 82 593 b 432 -17 82 138 211 -17 b 782 365 653 -17 782 138 z m 676 365 b 432 72 676 192 592 72 b 189 365 274 72 189 192 b 432 661 189 539 274 661 b 676 365 592 661 676 538 z m 218 929 b 231 917 218 922 224 917 l 629 917 b 643 929 638 917 642 921 l 647 986 b 633 999 647 994 643 999 l 235 999 b 222 986 228 999 224 994 z "},"ø":{"ha":864,"x_min":0,"x_max":0,"o":"m 219 47 b 432 -17 276 4 347 -17 b 782 365 653 -17 782 138 b 701 629 782 472 756 561 b 701 644 697 633 697 639 l 760 717 b 751 733 767 726 764 733 l 685 733 b 668 725 678 733 672 731 l 644 696 b 632 693 640 692 636 690 b 432 750 581 731 511 750 b 82 365 211 750 82 593 b 156 111 82 264 107 179 b 156 99 158 107 158 103 l 88 17 b 96 0 81 7 83 0 l 161 0 b 179 8 168 0 174 1 l 207 44 b 219 47 211 49 215 50 z m 222 197 b 189 365 200 244 189 300 b 433 661 189 538 275 661 b 571 621 486 661 532 647 b 572 607 575 617 576 613 l 235 196 b 222 197 231 190 226 192 z m 675 365 b 432 72 675 190 592 72 b 283 121 372 72 324 89 b 282 133 279 125 278 129 l 621 549 b 635 547 625 554 631 554 b 675 365 661 501 675 442 z "},"õ":{"ha":864,"x_min":0,"x_max":0,"o":"m 782 365 b 432 750 782 593 653 750 b 82 365 211 750 82 593 b 432 -17 82 138 211 -17 b 782 365 653 -17 782 138 z m 676 365 b 432 72 676 192 592 72 b 189 365 274 72 189 192 b 432 661 189 539 274 661 b 676 365 592 661 676 538 z m 186 876 b 199 864 186 869 192 864 l 243 864 b 254 875 250 864 254 868 b 322 968 258 935 282 968 b 415 921 350 968 375 954 b 543 865 469 878 499 865 b 676 1039 628 865 676 954 b 664 1051 676 1046 671 1051 l 619 1051 b 607 1040 613 1051 608 1047 b 539 946 603 978 579 946 b 449 992 513 946 492 958 b 319 1049 397 1035 364 1049 b 186 876 236 1049 186 963 z "},"œ":{"ha":1382,"x_min":0,"x_max":0,"o":"m 728 156 b 1046 -17 778 44 886 -17 b 1243 15 1124 -17 1193 -3 b 1254 32 1250 18 1254 24 l 1258 94 b 1249 104 1258 101 1256 104 l 1243 103 b 1054 72 1197 85 1119 72 b 778 313 881 72 778 165 b 788 322 778 319 782 322 b 938 317 833 318 883 317 b 1258 396 1094 317 1201 343 b 1313 531 1296 429 1313 474 b 1044 750 1313 679 1206 750 b 739 574 904 750 794 685 b 726 574 735 568 731 568 b 432 750 675 685 572 750 b 82 364 210 750 82 590 b 432 -17 82 139 210 -17 b 717 156 569 -17 665 44 b 728 156 718 161 724 160 z m 1213 529 b 921 401 1213 429 1108 401 b 789 407 872 401 829 403 b 781 421 782 408 781 411 b 1038 665 789 557 889 665 b 1213 529 1154 665 1213 614 z m 676 365 b 432 72 676 192 592 72 b 189 365 274 72 189 192 b 432 661 189 539 274 661 b 676 365 592 661 676 538 z "},"p":{"ha":860,"x_min":0,"x_max":0,"o":"m 140 731 b 128 714 132 731 128 725 l 128 -264 b 142 -278 128 -274 135 -278 l 217 -278 b 231 -264 226 -278 231 -274 l 231 -4 b 239 8 231 4 233 8 l 244 7 b 392 -17 282 -6 346 -17 b 774 440 663 -17 774 185 b 535 750 774 631 696 750 b 350 668 461 750 399 722 b 235 463 301 614 263 544 b 226 463 231 451 226 453 l 231 721 b 219 736 231 731 229 736 l 217 736 z m 243 100 b 231 121 233 106 231 111 l 231 143 b 267 367 231 211 243 285 b 371 575 292 449 326 518 b 524 661 415 632 467 661 b 636 594 578 661 615 639 b 668 432 657 550 668 496 b 392 72 668 210 585 72 b 243 100 329 72 269 85 z "},"þ":{"ha":860,"x_min":0,"x_max":0,"o":"m 217 -278 b 231 -264 226 -278 231 -274 l 231 -4 b 239 8 231 4 233 8 l 244 7 b 392 -17 282 -6 346 -17 b 774 440 663 -17 774 185 b 535 750 774 631 696 750 b 350 668 461 750 399 722 b 235 463 301 614 263 544 b 226 463 231 451 226 453 l 231 1024 b 217 1038 231 1033 226 1038 l 142 1038 b 128 1024 135 1038 128 1033 l 128 -264 b 142 -278 128 -274 135 -278 z m 668 432 b 392 72 668 210 585 72 b 243 100 329 72 269 85 b 231 121 233 106 231 111 l 231 143 b 267 367 231 211 243 285 b 371 575 292 449 326 518 b 524 661 415 632 467 661 b 636 594 578 661 615 639 b 668 432 657 550 668 496 z "},"q":{"ha":860,"x_min":0,"x_max":0,"o":"m 626 272 b 635 272 628 283 635 282 l 628 -264 b 642 -278 628 -274 635 -278 l 718 -278 b 732 -264 728 -278 732 -274 l 732 679 b 715 701 732 692 728 696 b 468 750 643 735 551 750 b 85 297 200 750 85 554 b 325 -17 85 107 160 -17 b 510 67 399 -17 461 11 b 626 272 560 124 599 192 z m 617 633 b 629 613 628 628 629 622 l 629 590 b 592 364 629 521 617 446 b 488 157 568 282 533 214 b 333 72 443 100 392 72 b 224 138 282 72 244 94 b 192 297 203 181 192 235 b 256 561 192 407 213 496 b 469 661 299 628 369 661 b 617 633 535 661 590 649 z "},"r":{"ha":514,"x_min":0,"x_max":0,"o":"m 142 731 b 128 717 135 731 128 726 l 128 14 b 142 0 128 7 135 0 l 217 0 b 231 14 226 0 231 7 l 231 107 b 236 221 231 154 232 192 b 472 647 257 419 351 640 b 485 660 479 649 483 653 l 492 736 b 481 747 493 743 489 747 b 231 451 375 747 272 628 b 224 453 229 444 224 446 l 231 722 b 218 736 231 732 226 736 l 142 731 z "},"ŕ":{"ha":514,"x_min":0,"x_max":0,"o":"m 142 731 b 128 717 135 731 128 726 l 128 14 b 142 0 128 7 135 0 l 217 0 b 231 14 226 0 231 7 l 231 107 b 236 221 231 154 232 192 b 472 647 257 419 351 640 b 485 660 479 649 483 653 l 492 736 b 481 747 493 743 489 747 b 231 451 375 747 272 628 b 224 453 229 444 224 446 l 231 722 b 218 736 231 732 226 736 z m 263 853 b 274 836 258 843 263 836 l 325 836 b 342 846 332 836 338 839 l 483 1069 b 475 1086 490 1079 486 1086 l 388 1086 b 372 1076 381 1086 375 1083 z "},"ř":{"ha":514,"x_min":0,"x_max":0,"o":"m 142 731 b 128 717 135 731 128 726 l 128 14 b 142 0 128 7 135 0 l 217 0 b 231 14 226 0 231 7 l 231 107 b 236 221 231 154 232 192 b 472 647 257 419 351 640 b 485 660 479 649 483 653 l 492 736 b 481 747 493 743 489 747 b 231 451 375 747 272 628 b 224 453 229 444 224 446 l 231 722 b 218 736 231 732 226 736 z m 239 851 b 264 836 249 840 253 836 l 364 836 b 389 851 375 836 382 840 l 551 1071 b 544 1086 557 1078 554 1086 l 481 1086 b 458 1075 471 1086 464 1082 l 326 915 b 315 910 324 911 319 910 b 303 915 311 910 307 911 l 171 1075 b 147 1086 165 1081 158 1086 l 83 1086 b 75 1078 78 1086 75 1082 l 78 1071 z "},"ŗ":{"ha":514,"x_min":0,"x_max":0,"o":"m 142 731 b 128 717 135 731 128 726 l 128 14 b 142 0 128 7 135 0 l 217 0 b 231 14 226 0 231 7 l 231 107 b 236 221 231 154 232 192 b 472 647 257 419 351 640 b 485 660 479 649 483 653 l 492 736 b 481 747 493 743 489 747 b 231 451 375 747 272 628 b 224 453 229 444 224 446 l 231 722 b 218 736 231 732 226 736 z m 100 -321 b 113 -332 100 -328 106 -332 l 163 -332 b 178 -319 169 -332 175 -328 l 243 -89 b 232 -74 244 -79 242 -74 l 156 -74 b 142 -86 147 -74 143 -78 l 103 -301 z "},"s":{"ha":619,"x_min":0,"x_max":0,"o":"m 78 24 b 88 7 76 14 78 11 b 272 -17 131 -8 206 -17 b 557 193 432 -17 557 44 b 349 408 551 311 499 347 b 182 550 221 458 188 478 b 346 661 182 621 244 661 b 506 642 397 661 451 654 b 518 650 513 640 517 643 l 529 714 b 521 728 531 721 528 725 b 344 750 475 740 406 750 b 81 543 197 750 81 683 b 274 339 85 428 150 388 b 453 185 414 285 453 257 b 278 72 453 107 378 72 b 97 99 213 72 157 81 b 83 90 92 103 85 97 l 78 24 z "},"ś":{"ha":619,"x_min":0,"x_max":0,"o":"m 78 24 b 88 7 76 14 78 11 b 272 -17 131 -8 206 -17 b 557 193 432 -17 557 44 b 349 408 551 311 499 347 b 182 550 221 458 188 478 b 346 661 182 621 244 661 b 506 642 397 661 451 654 b 518 650 513 640 517 643 l 529 714 b 521 728 531 721 528 725 b 344 750 475 740 406 750 b 81 543 197 750 81 683 b 274 339 85 428 150 388 b 453 185 414 285 453 257 b 278 72 453 107 378 72 b 97 99 213 72 157 81 b 83 90 92 103 85 97 z m 258 853 b 269 836 254 843 258 836 l 321 836 b 338 846 328 836 333 839 l 479 1069 b 471 1086 486 1079 482 1086 l 383 1086 b 368 1076 376 1086 371 1083 z "},"š":{"ha":619,"x_min":0,"x_max":0,"o":"m 78 24 b 88 7 76 14 78 11 b 272 -17 131 -8 206 -17 b 557 193 432 -17 557 44 b 349 408 551 311 499 347 b 182 550 221 458 188 478 b 346 661 182 621 244 661 b 506 642 397 661 451 654 b 518 650 513 640 517 643 l 529 714 b 521 728 531 721 528 725 b 344 750 475 740 406 750 b 81 543 197 750 81 683 b 274 339 85 428 150 388 b 453 185 414 285 453 257 b 278 72 453 107 378 72 b 97 99 213 72 157 81 b 83 90 92 103 85 97 z m 235 851 b 260 836 244 840 249 836 l 360 836 b 385 851 371 836 378 840 l 547 1071 b 540 1086 553 1078 550 1086 l 476 1086 b 454 1075 467 1086 460 1082 l 322 915 b 311 910 319 911 315 910 b 299 915 307 910 303 911 l 167 1075 b 143 1086 161 1081 154 1086 l 79 1086 b 71 1078 74 1086 71 1082 l 74 1071 z "},"ş":{"ha":619,"x_min":0,"x_max":0,"o":"m 219 -324 b 233 -335 221 -331 224 -335 b 464 -192 388 -335 464 -287 b 322 -96 464 -131 415 -96 b 315 -85 315 -96 314 -92 b 329 -22 322 -50 328 -29 b 340 -12 331 -15 333 -12 b 557 193 469 4 557 71 b 349 408 551 311 499 347 b 182 550 221 458 188 478 b 346 661 182 621 244 661 b 506 642 397 661 451 654 b 518 650 513 640 517 643 l 529 714 b 521 728 531 721 528 725 b 344 750 475 740 406 750 b 81 543 197 750 81 683 b 274 339 85 428 150 388 b 453 185 414 285 453 257 b 278 72 453 107 378 72 b 96 99 215 72 154 81 b 83 90 90 100 85 97 l 78 21 b 88 7 78 14 81 8 b 247 -17 125 -6 186 -12 b 256 -25 253 -17 257 -19 b 232 -126 249 -53 240 -86 b 243 -142 231 -136 233 -142 l 254 -142 b 378 -196 342 -142 378 -157 b 225 -275 378 -247 332 -275 b 215 -285 218 -275 215 -278 l 215 -289 l 219 -324 z "},"ŝ":{"ha":619,"x_min":0,"x_max":0,"o":"m 78 24 b 88 7 76 14 78 11 b 272 -17 131 -8 206 -17 b 557 193 432 -17 557 44 b 349 408 551 311 499 347 b 182 550 221 458 188 478 b 346 661 182 621 244 661 b 506 642 397 661 451 654 b 518 650 513 640 517 643 l 529 714 b 521 728 531 721 528 725 b 344 750 475 740 406 750 b 81 543 197 750 81 683 b 274 339 85 428 150 388 b 453 185 414 285 453 257 b 278 72 453 107 378 72 b 97 99 213 72 157 81 b 83 90 92 103 85 97 z m 383 1071 b 358 1086 376 1082 371 1086 l 258 1086 b 233 1071 249 1086 240 1082 l 72 851 b 78 836 67 844 71 836 l 142 836 b 165 847 153 836 160 842 l 297 1007 b 310 1014 301 1011 306 1014 b 321 1007 314 1014 318 1011 l 453 847 b 475 836 458 840 465 836 l 539 836 b 549 844 544 836 549 840 b 546 851 549 849 546 850 z "},"ș":{"ha":619,"x_min":0,"x_max":0,"o":"m 78 24 b 88 7 76 14 78 11 b 272 -17 131 -8 206 -17 b 557 193 432 -17 557 44 b 349 408 551 311 499 347 b 182 550 221 458 188 478 b 346 661 182 621 244 661 b 506 642 397 661 451 654 b 518 650 513 640 517 643 l 529 714 b 521 728 531 721 528 725 b 344 750 475 740 406 750 b 81 543 197 750 81 683 b 274 339 85 428 150 388 b 453 185 414 285 453 257 b 278 72 453 107 378 72 b 97 99 213 72 157 81 b 83 90 92 103 85 97 z m 235 -321 b 247 -332 235 -328 240 -332 l 297 -332 b 313 -319 304 -332 310 -328 l 378 -89 b 367 -74 379 -79 376 -74 l 290 -74 b 276 -86 282 -74 278 -78 l 238 -301 z "},"ß":{"ha":874,"x_min":0,"x_max":0,"o":"m 356 13 b 364 1 356 7 358 3 b 532 -17 415 -10 482 -17 b 811 210 715 -17 811 64 b 513 478 811 354 707 426 b 497 489 501 479 497 482 b 514 504 497 493 503 497 b 743 814 669 589 743 682 b 468 1047 743 954 658 1047 b 128 686 238 1047 128 900 l 128 14 b 142 0 128 7 135 0 l 217 0 b 231 14 226 0 231 7 l 231 657 b 464 961 231 856 301 961 b 642 806 576 961 642 907 b 386 517 642 694 568 607 b 374 499 375 510 374 506 l 374 492 l 381 442 b 411 419 383 426 386 425 b 708 208 622 374 708 304 b 535 72 708 118 650 72 b 375 93 490 72 429 81 b 363 85 368 94 364 92 l 356 13 z "},"t":{"ha":499,"x_min":0,"x_max":0,"o":"m 342 -14 b 451 1 382 -14 419 -8 b 465 19 461 3 464 8 l 471 68 b 458 82 472 78 465 82 l 456 82 b 365 71 424 75 394 71 b 258 244 264 78 261 100 b 261 443 258 299 260 365 b 268 638 263 522 265 586 b 276 646 268 643 271 646 l 456 646 b 471 658 465 646 469 650 l 478 719 b 464 733 478 729 474 733 l 279 733 b 272 742 275 733 272 736 b 275 833 272 765 274 796 l 283 925 b 268 939 283 935 278 939 l 193 926 b 179 913 185 925 181 919 b 169 742 178 896 174 839 b 161 733 169 736 167 733 l 53 733 b 38 719 44 733 39 729 l 31 660 b 44 646 31 653 38 646 l 157 646 b 165 638 163 646 165 643 b 158 419 163 574 160 501 b 156 215 157 339 156 271 b 342 -14 156 49 204 -14 z "},"ŧ":{"ha":499,"x_min":0,"x_max":0,"o":"m 156 215 b 342 -14 156 49 204 -14 b 451 1 382 -14 419 -8 b 465 19 461 3 464 8 l 471 68 b 458 82 472 78 465 82 l 456 82 b 365 71 424 75 394 71 b 258 244 264 78 261 100 l 260 371 b 268 379 260 376 264 379 l 450 379 b 465 393 457 379 464 383 l 471 442 b 457 456 471 451 467 456 l 269 456 b 261 464 264 456 261 458 b 268 638 264 557 267 614 b 276 646 268 643 271 646 l 456 646 b 471 658 465 646 469 650 l 478 719 b 464 733 478 729 474 733 l 279 733 b 272 742 275 733 272 736 b 275 833 272 765 274 796 l 283 925 b 268 939 283 935 278 939 l 193 926 b 179 913 185 925 181 919 b 169 742 178 896 174 839 b 161 733 169 736 167 733 l 53 733 b 38 719 44 733 39 729 l 31 660 b 44 646 31 653 38 646 l 157 646 b 165 638 163 646 165 643 l 160 464 b 151 456 160 458 156 456 l 44 456 b 31 442 38 456 32 451 l 25 393 b 39 379 24 386 29 379 l 150 379 b 158 371 156 379 158 376 l 157 272 b 156 215 156 256 156 236 z "},"ť":{"ha":499,"x_min":0,"x_max":0,"o":"m 342 -14 b 451 1 382 -14 419 -8 b 465 19 461 3 464 8 l 471 68 b 458 82 472 78 465 82 l 456 82 b 365 71 424 75 394 71 b 258 244 264 78 261 100 b 261 443 258 299 260 365 b 268 638 263 522 265 586 b 276 646 268 643 271 646 l 456 646 b 471 658 465 646 469 650 l 478 719 b 464 733 478 729 474 733 l 279 733 b 272 742 275 733 272 736 b 275 833 272 765 274 796 l 283 925 b 268 939 283 935 278 939 l 193 926 b 179 913 185 925 181 919 b 169 742 178 896 174 839 b 161 733 169 736 167 733 l 53 733 b 38 719 44 733 39 729 l 31 660 b 44 646 31 653 38 646 l 157 646 b 165 638 163 646 165 643 b 158 419 163 574 160 501 b 156 215 157 339 156 271 b 342 -14 156 49 204 -14 z m 369 794 b 382 779 368 785 372 779 l 432 779 b 446 792 440 779 444 783 l 500 1022 b 489 1038 501 1032 499 1038 l 413 1038 b 399 1025 406 1038 400 1033 z "},"ţ":{"ha":499,"x_min":0,"x_max":0,"o":"m 222 -324 b 238 -335 224 -331 228 -335 b 467 -192 390 -335 467 -287 b 326 -96 467 -131 419 -96 b 318 -87 321 -96 318 -93 l 318 -85 l 332 -21 b 342 -14 333 -15 336 -14 b 451 1 382 -14 419 -8 b 465 19 461 3 464 8 l 471 68 b 458 82 472 78 465 82 l 456 82 b 365 71 424 75 394 71 b 258 244 264 78 261 100 b 261 443 258 299 260 365 b 268 638 263 522 265 586 b 276 646 268 643 271 646 l 456 646 b 471 658 465 646 469 650 l 478 719 b 464 733 478 729 474 733 l 279 733 b 272 742 275 733 272 736 b 275 833 272 765 274 796 l 283 925 b 268 939 283 935 278 939 l 193 926 b 179 913 185 925 181 919 b 169 742 178 896 174 839 b 161 733 169 736 167 733 l 53 733 b 38 719 44 733 39 729 l 31 660 b 44 646 31 653 38 646 l 157 646 b 165 638 163 646 165 643 b 158 419 163 574 160 501 b 156 215 157 339 156 271 b 257 -1 156 86 183 22 b 263 -12 261 -3 264 -7 l 235 -126 b 247 -142 232 -136 236 -142 l 257 -142 b 381 -196 346 -142 381 -157 b 229 -275 381 -247 336 -275 b 218 -286 222 -275 218 -279 l 218 -289 l 222 -324 z "},"ț":{"ha":499,"x_min":0,"x_max":0,"o":"m 342 -14 b 451 1 382 -14 419 -8 b 465 19 461 3 464 8 l 471 68 b 458 82 472 78 465 82 l 456 82 b 365 71 424 75 394 71 b 258 244 264 78 261 100 b 261 443 258 299 260 365 b 268 638 263 522 265 586 b 276 646 268 643 271 646 l 456 646 b 471 658 465 646 469 650 l 478 719 b 464 733 478 729 474 733 l 279 733 b 272 742 275 733 272 736 b 275 833 272 765 274 796 l 283 925 b 268 939 283 935 278 939 l 193 926 b 179 913 185 925 181 919 b 169 742 178 896 174 839 b 161 733 169 736 167 733 l 53 733 b 38 719 44 733 39 729 l 31 660 b 44 646 31 653 38 646 l 157 646 b 165 638 163 646 165 643 b 158 419 163 574 160 501 b 156 215 157 339 156 271 b 342 -14 156 49 204 -14 z m 242 -321 b 254 -332 242 -328 247 -332 l 304 -332 b 319 -319 311 -332 317 -328 l 385 -89 b 374 -74 386 -79 383 -74 l 297 -74 b 283 -86 289 -74 285 -78 l 244 -301 z "},"u":{"ha":849,"x_min":0,"x_max":0,"o":"m 224 722 b 211 736 224 732 219 736 l 133 731 b 121 717 125 731 121 726 l 121 276 b 329 -17 121 93 174 -17 b 507 67 401 -17 461 11 b 617 278 554 122 590 193 b 624 276 618 285 624 286 l 618 14 b 632 0 618 7 625 0 l 707 0 b 721 14 717 0 721 7 l 721 722 b 707 736 721 732 717 736 l 631 731 b 618 717 622 731 618 726 l 618 589 b 611 482 618 554 615 519 b 344 72 590 294 476 67 b 224 303 239 78 224 149 l 224 722 z "},"ú":{"ha":849,"x_min":0,"x_max":0,"o":"m 224 722 b 211 736 224 732 219 736 l 133 731 b 121 717 125 731 121 726 l 121 276 b 329 -17 121 93 174 -17 b 507 67 401 -17 461 11 b 617 278 554 122 590 193 b 624 276 618 285 624 286 l 618 14 b 632 0 618 7 625 0 l 707 0 b 721 14 717 0 721 7 l 721 722 b 707 736 721 732 717 736 l 631 731 b 618 717 622 731 618 726 l 618 589 b 611 482 618 554 615 519 b 344 72 590 294 476 67 b 224 303 239 78 224 149 z m 372 853 b 383 836 368 843 372 836 l 435 836 b 451 846 442 836 447 839 l 593 1069 b 585 1086 600 1079 596 1086 l 497 1086 b 482 1076 490 1086 485 1083 z "},"ŭ":{"ha":849,"x_min":0,"x_max":0,"o":"m 224 722 b 211 736 224 732 219 736 l 133 731 b 121 717 125 731 121 726 l 121 276 b 329 -17 121 93 174 -17 b 507 67 401 -17 461 11 b 617 278 554 122 590 193 b 624 276 618 285 624 286 l 618 14 b 632 0 618 7 625 0 l 707 0 b 721 14 717 0 721 7 l 721 722 b 707 736 721 732 717 736 l 631 731 b 618 717 622 731 618 726 l 618 589 b 611 482 618 554 615 519 b 344 72 590 294 476 67 b 224 303 239 78 224 149 z m 208 1049 b 422 831 208 908 276 831 b 639 1049 568 831 639 910 b 625 1061 639 1057 635 1061 l 578 1061 b 564 1049 568 1061 564 1057 b 424 911 564 957 517 911 b 283 1049 331 911 283 958 b 269 1061 283 1057 279 1061 l 222 1061 b 208 1049 213 1061 208 1057 z "},"û":{"ha":849,"x_min":0,"x_max":0,"o":"m 224 722 b 211 736 224 732 219 736 l 133 731 b 121 717 125 731 121 726 l 121 276 b 329 -17 121 93 174 -17 b 507 67 401 -17 461 11 b 617 278 554 122 590 193 b 624 276 618 285 624 286 l 618 14 b 632 0 618 7 625 0 l 707 0 b 721 14 717 0 721 7 l 721 722 b 707 736 721 732 717 736 l 631 731 b 618 717 622 731 618 726 l 618 589 b 611 482 618 554 615 519 b 344 72 590 294 476 67 b 224 303 239 78 224 149 z m 497 1071 b 472 1086 490 1082 485 1086 l 372 1086 b 347 1071 363 1086 354 1082 l 186 851 b 192 836 181 844 185 836 l 256 836 b 279 847 267 836 274 842 l 411 1007 b 424 1014 415 1011 419 1014 b 435 1007 428 1014 432 1011 l 567 847 b 589 836 572 840 579 836 l 653 836 b 663 844 658 836 663 840 b 660 851 663 849 660 850 z "},"ü":{"ha":849,"x_min":0,"x_max":0,"o":"m 224 722 b 211 736 224 732 219 736 l 133 731 b 121 717 125 731 121 726 l 121 276 b 329 -17 121 93 174 -17 b 507 67 401 -17 461 11 b 617 278 554 122 590 193 b 624 276 618 285 624 286 l 618 14 b 632 0 618 7 625 0 l 707 0 b 721 14 717 0 721 7 l 721 722 b 707 736 721 732 717 736 l 631 731 b 618 717 622 731 618 726 l 618 589 b 611 482 618 554 615 519 b 344 72 590 294 476 67 b 224 303 239 78 224 149 z m 210 972 b 286 897 210 929 242 897 b 363 972 331 897 363 929 b 286 1047 363 1015 331 1047 b 210 972 242 1047 210 1015 z m 486 972 b 563 897 486 929 518 897 b 639 972 607 897 639 929 b 563 1047 639 1015 607 1047 b 486 972 518 1047 486 1015 z "},"ù":{"ha":849,"x_min":0,"x_max":0,"o":"m 224 722 b 211 736 224 732 219 736 l 133 731 b 121 717 125 731 121 726 l 121 276 b 329 -17 121 93 174 -17 b 507 67 401 -17 461 11 b 617 278 554 122 590 193 b 624 276 618 285 624 286 l 618 14 b 632 0 618 7 625 0 l 707 0 b 721 14 717 0 721 7 l 721 722 b 707 736 721 732 717 736 l 631 731 b 618 717 622 731 618 726 l 618 589 b 611 482 618 554 615 519 b 344 72 590 294 476 67 b 224 303 239 78 224 149 z m 392 846 b 408 836 396 839 401 836 l 461 836 b 474 846 468 836 474 840 b 472 853 474 849 474 851 l 363 1076 b 347 1086 360 1083 354 1086 l 260 1086 b 249 1078 253 1086 249 1083 b 251 1069 249 1074 250 1071 z "},"ű":{"ha":849,"x_min":0,"x_max":0,"o":"m 224 722 b 211 736 224 732 219 736 l 133 731 b 121 717 125 731 121 726 l 121 276 b 329 -17 121 93 174 -17 b 507 67 401 -17 461 11 b 617 278 554 122 590 193 b 624 276 618 285 624 286 l 618 14 b 632 0 618 7 625 0 l 707 0 b 721 14 717 0 721 7 l 721 722 b 707 736 721 732 717 736 l 631 731 b 618 717 622 731 618 726 l 618 589 b 611 482 618 554 615 519 b 344 72 590 294 476 67 b 224 303 239 78 224 149 z m 260 853 b 271 836 256 843 260 836 l 322 836 b 339 846 329 836 335 839 l 476 1069 b 468 1086 483 1079 479 1086 l 383 1086 b 368 1076 376 1086 371 1083 z m 486 853 b 497 836 482 843 486 836 l 550 836 b 567 846 557 836 563 839 l 703 1069 b 694 1086 710 1079 706 1086 l 610 1086 b 594 1076 603 1086 597 1083 z "},"ū":{"ha":849,"x_min":0,"x_max":0,"o":"m 224 722 b 211 736 224 732 219 736 l 133 731 b 121 717 125 731 121 726 l 121 276 b 329 -17 121 93 174 -17 b 507 67 401 -17 461 11 b 617 278 554 122 590 193 b 624 276 618 285 624 286 l 618 14 b 632 0 618 7 625 0 l 707 0 b 721 14 717 0 721 7 l 721 722 b 707 736 721 732 717 736 l 631 731 b 618 717 622 731 618 726 l 618 589 b 611 482 618 554 615 519 b 344 72 590 294 476 67 b 224 303 239 78 224 149 z m 210 929 b 222 917 210 922 215 917 l 621 917 b 635 929 629 917 633 921 l 639 986 b 625 999 639 994 635 999 l 226 999 b 214 986 219 999 215 994 z "},"ų":{"ha":849,"x_min":0,"x_max":0,"o":"m 481 -183 b 622 -294 481 -257 532 -294 b 714 -279 656 -294 686 -289 b 724 -262 721 -276 724 -271 l 724 -222 b 715 -212 724 -215 721 -212 l 711 -214 b 650 -225 688 -221 667 -225 b 578 -162 604 -225 578 -203 b 713 0 578 -112 618 -61 b 721 17 719 4 721 10 l 721 722 b 708 736 721 732 717 736 l 631 731 b 618 717 622 731 618 726 l 618 589 b 611 482 618 554 615 519 b 346 72 592 292 476 67 b 224 303 243 72 224 154 l 224 722 b 211 736 224 732 219 736 l 135 731 b 121 717 125 729 121 725 l 121 276 b 329 -17 121 93 174 -17 b 507 67 401 -17 461 11 b 617 278 554 122 590 193 b 624 276 618 285 624 286 l 618 19 b 619 7 618 14 618 10 b 617 -3 621 3 621 -1 b 481 -183 526 -64 481 -121 z "},"ů":{"ha":849,"x_min":0,"x_max":0,"o":"m 224 722 b 211 736 224 732 219 736 l 133 731 b 121 717 125 731 121 726 l 121 276 b 329 -17 121 93 174 -17 b 507 67 401 -17 461 11 b 617 278 554 122 590 193 b 624 276 618 285 624 286 l 618 14 b 632 0 618 7 625 0 l 707 0 b 721 14 717 0 721 7 l 721 722 b 707 736 721 732 717 736 l 631 731 b 618 717 622 731 618 726 l 618 589 b 611 482 618 554 615 519 b 344 72 590 294 476 67 b 224 303 239 78 224 149 z m 274 961 b 424 821 274 876 338 821 b 575 961 511 821 575 876 b 424 1101 575 1046 511 1101 b 274 961 338 1101 274 1046 z m 504 961 b 424 882 504 913 472 882 b 343 961 375 882 343 915 b 424 1039 343 1007 375 1039 b 504 961 472 1039 504 1007 z "},"ũ":{"ha":849,"x_min":0,"x_max":0,"o":"m 224 722 b 211 736 224 732 219 736 l 133 731 b 121 717 125 731 121 726 l 121 276 b 329 -17 121 93 174 -17 b 507 67 401 -17 461 11 b 617 278 554 122 590 193 b 624 276 618 285 624 286 l 618 14 b 632 0 618 7 625 0 l 707 0 b 721 14 717 0 721 7 l 721 722 b 707 736 721 732 717 736 l 631 731 b 618 717 622 731 618 726 l 618 589 b 611 482 618 554 615 519 b 344 72 590 294 476 67 b 224 303 239 78 224 149 z m 178 876 b 190 864 178 869 183 864 l 235 864 b 246 875 242 864 246 868 b 314 968 250 935 274 968 b 407 921 342 968 367 954 b 535 865 461 878 490 865 b 668 1039 619 865 668 954 b 656 1051 668 1046 663 1051 l 611 1051 b 599 1040 604 1051 600 1047 b 531 946 594 978 571 946 b 440 992 504 946 483 958 b 311 1049 389 1035 356 1049 b 178 876 228 1049 178 963 z "},"v":{"ha":728,"x_min":0,"x_max":0,"o":"m 292 14 b 311 0 296 4 303 0 l 413 0 b 435 14 425 0 431 3 b 585 388 479 114 529 239 b 701 711 642 538 681 646 b 704 724 703 715 704 719 b 692 733 704 731 700 733 l 618 733 b 600 719 608 733 604 731 b 488 389 571 625 533 515 b 376 107 442 263 404 169 b 367 100 375 103 371 100 b 356 107 361 100 357 101 b 249 383 331 165 294 257 b 132 721 203 510 164 622 b 115 733 129 729 124 733 l 33 733 b 22 724 28 733 22 729 b 26 707 22 719 24 714 b 140 392 46 644 83 540 b 292 14 197 243 247 118 z "},"w":{"ha":1204,"x_min":0,"x_max":0,"o":"m 260 14 b 278 0 264 4 268 0 l 375 0 b 396 14 388 0 392 3 b 508 326 432 110 469 214 b 594 593 547 439 576 528 b 603 606 597 601 600 606 b 613 592 608 606 611 601 b 696 325 631 529 658 440 b 801 14 733 210 769 107 b 821 0 804 4 811 0 l 919 0 b 942 17 932 0 936 4 b 1071 381 982 119 1025 240 b 1172 707 1117 521 1151 631 b 1175 724 1174 714 1175 719 b 1164 733 1175 731 1171 733 l 1092 733 b 1074 719 1081 733 1075 731 b 979 397 1044 615 1014 507 b 883 110 946 288 914 192 b 875 104 882 106 879 104 b 867 110 871 104 868 106 b 765 403 835 194 801 292 b 671 713 729 514 697 617 b 654 726 668 722 663 726 l 561 726 b 542 713 550 726 546 724 b 442 400 514 621 481 517 b 340 110 403 283 369 186 b 332 104 339 106 336 104 b 322 110 326 104 324 106 b 229 388 296 181 264 274 b 138 719 194 503 164 613 b 121 733 133 729 131 733 l 42 733 b 28 721 32 733 28 729 l 32 701 b 133 372 54 622 88 513 b 260 14 179 233 221 114 z "},"ẃ":{"ha":1204,"x_min":0,"x_max":0,"o":"m 260 14 b 278 0 264 4 268 0 l 375 0 b 396 14 388 0 392 3 b 508 326 432 110 469 214 b 594 593 547 439 576 528 b 603 606 597 601 600 606 b 613 592 608 606 611 601 b 696 325 631 529 658 440 b 801 14 733 210 769 107 b 821 0 804 4 811 0 l 919 0 b 942 17 932 0 936 4 b 1071 381 982 119 1025 240 b 1172 707 1117 521 1151 631 b 1175 724 1174 714 1175 719 b 1164 733 1175 731 1171 733 l 1092 733 b 1074 719 1081 733 1075 731 b 979 397 1044 615 1014 507 b 883 110 946 288 914 192 b 875 104 882 106 879 104 b 867 110 871 104 868 106 b 765 403 835 194 801 292 b 671 713 729 514 697 617 b 654 726 668 722 663 726 l 561 726 b 542 713 550 726 546 724 b 442 400 514 621 481 517 b 340 110 403 283 369 186 b 332 104 339 106 336 104 b 322 110 326 104 324 106 b 229 388 296 181 264 274 b 138 719 194 503 164 613 b 121 733 133 729 131 733 l 42 733 b 28 721 32 733 28 729 l 32 701 b 133 372 54 622 88 513 b 260 14 179 233 221 114 z m 551 853 b 563 836 547 843 551 836 l 614 836 b 631 846 621 836 626 839 l 772 1069 b 764 1086 779 1079 775 1086 l 676 1086 b 661 1076 669 1086 664 1083 z "},"ŵ":{"ha":1204,"x_min":0,"x_max":0,"o":"m 260 14 b 278 0 264 4 268 0 l 375 0 b 396 14 388 0 392 3 b 508 326 432 110 469 214 b 594 593 547 439 576 528 b 603 606 597 601 600 606 b 613 592 608 606 611 601 b 696 325 631 529 658 440 b 801 14 733 210 769 107 b 821 0 804 4 811 0 l 919 0 b 942 17 932 0 936 4 b 1071 381 982 119 1025 240 b 1172 707 1117 521 1151 631 b 1175 724 1174 714 1175 719 b 1164 733 1175 731 1171 733 l 1092 733 b 1074 719 1081 733 1075 731 b 979 397 1044 615 1014 507 b 883 110 946 288 914 192 b 875 104 882 106 879 104 b 867 110 871 104 868 106 b 765 403 835 194 801 292 b 671 713 729 514 697 617 b 654 726 668 722 663 726 l 561 726 b 542 713 550 726 546 724 b 442 400 514 621 481 517 b 340 110 403 283 369 186 b 332 104 339 106 336 104 b 322 110 326 104 324 106 b 229 388 296 181 264 274 b 138 719 194 503 164 613 b 121 733 133 729 131 733 l 42 733 b 28 721 32 733 28 729 l 32 701 b 133 372 54 622 88 513 b 260 14 179 233 221 114 z m 676 1071 b 651 1086 669 1082 664 1086 l 551 1086 b 526 1071 542 1086 533 1082 l 365 851 b 371 836 360 844 364 836 l 435 836 b 458 847 446 836 453 842 l 590 1007 b 603 1014 594 1011 599 1014 b 614 1007 607 1014 611 1011 l 746 847 b 768 836 751 840 758 836 l 832 836 b 842 844 838 836 842 840 b 839 851 842 849 839 850 z "},"ẅ":{"ha":1204,"x_min":0,"x_max":0,"o":"m 260 14 b 278 0 264 4 268 0 l 375 0 b 396 14 388 0 392 3 b 508 326 432 110 469 214 b 594 593 547 439 576 528 b 603 606 597 601 600 606 b 613 592 608 606 611 601 b 696 325 631 529 658 440 b 801 14 733 210 769 107 b 821 0 804 4 811 0 l 919 0 b 942 17 932 0 936 4 b 1071 381 982 119 1025 240 b 1172 707 1117 521 1151 631 b 1175 724 1174 714 1175 719 b 1164 733 1175 731 1171 733 l 1092 733 b 1074 719 1081 733 1075 731 b 979 397 1044 615 1014 507 b 883 110 946 288 914 192 b 875 104 882 106 879 104 b 867 110 871 104 868 106 b 765 403 835 194 801 292 b 671 713 729 514 697 617 b 654 726 668 722 663 726 l 561 726 b 542 713 550 726 546 724 b 442 400 514 621 481 517 b 340 110 403 283 369 186 b 332 104 339 106 336 104 b 322 110 326 104 324 106 b 229 388 296 181 264 274 b 138 719 194 503 164 613 b 121 733 133 729 131 733 l 42 733 b 28 721 32 733 28 729 l 32 701 b 133 372 54 622 88 513 b 260 14 179 233 221 114 z m 389 972 b 465 897 389 929 421 897 b 542 972 510 897 542 929 b 465 1047 542 1015 510 1047 b 389 972 421 1047 389 1015 z m 665 972 b 742 897 665 929 697 897 b 818 972 786 897 818 929 b 742 1047 818 1015 786 1047 b 665 972 697 1047 665 1015 z "},"ẁ":{"ha":1204,"x_min":0,"x_max":0,"o":"m 260 14 b 278 0 264 4 268 0 l 375 0 b 396 14 388 0 392 3 b 508 326 432 110 469 214 b 594 593 547 439 576 528 b 603 606 597 601 600 606 b 613 592 608 606 611 601 b 696 325 631 529 658 440 b 801 14 733 210 769 107 b 821 0 804 4 811 0 l 919 0 b 942 17 932 0 936 4 b 1071 381 982 119 1025 240 b 1172 707 1117 521 1151 631 b 1175 724 1174 714 1175 719 b 1164 733 1175 731 1171 733 l 1092 733 b 1074 719 1081 733 1075 731 b 979 397 1044 615 1014 507 b 883 110 946 288 914 192 b 875 104 882 106 879 104 b 867 110 871 104 868 106 b 765 403 835 194 801 292 b 671 713 729 514 697 617 b 654 726 668 722 663 726 l 561 726 b 542 713 550 726 546 724 b 442 400 514 621 481 517 b 340 110 403 283 369 186 b 332 104 339 106 336 104 b 322 110 326 104 324 106 b 229 388 296 181 264 274 b 138 719 194 503 164 613 b 121 733 133 729 131 733 l 42 733 b 28 721 32 733 28 729 l 32 701 b 133 372 54 622 88 513 b 260 14 179 233 221 114 z m 571 846 b 588 836 575 839 581 836 l 640 836 b 653 846 647 836 653 840 b 651 853 653 849 653 851 l 542 1076 b 526 1086 539 1083 533 1086 l 439 1086 b 428 1078 432 1086 428 1083 b 431 1069 428 1074 429 1071 z "},"x":{"ha":700,"x_min":0,"x_max":0,"o":"m 543 551 b 649 706 583 610 619 661 b 657 724 654 714 657 719 b 647 733 657 731 654 733 l 564 733 b 547 725 557 733 551 731 b 460 586 532 699 503 651 b 368 450 417 521 386 476 b 358 443 364 446 361 443 b 347 450 354 443 351 446 b 249 596 321 488 289 536 b 167 724 208 656 182 699 b 147 733 163 731 157 733 l 63 733 b 51 724 56 733 51 729 b 60 706 51 718 58 707 l 157 564 b 271 401 197 504 236 450 b 282 376 278 392 282 383 b 274 357 282 371 279 364 l 142 174 b 40 25 89 99 56 49 b 32 8 35 18 32 13 b 42 0 32 3 35 0 l 128 0 b 146 10 138 0 142 4 b 243 157 175 56 208 104 l 339 297 b 350 304 342 301 346 304 b 361 297 354 304 358 301 b 556 7 418 214 499 97 b 572 0 558 3 564 0 l 656 0 b 667 10 663 0 667 3 b 660 25 667 14 664 19 b 561 172 646 49 613 97 b 432 356 510 247 467 308 b 425 375 428 363 425 369 b 435 396 425 379 428 386 z "},"y":{"ha":717,"x_min":0,"x_max":0,"o":"m 136 721 b 119 733 132 732 129 733 l 38 733 b 25 722 29 733 25 729 b 29 710 25 719 26 715 b 165 385 65 617 111 508 b 332 31 221 261 276 143 b 336 15 335 25 336 19 b 332 0 336 11 335 6 b 122 -186 281 -122 221 -186 b 44 -176 100 -186 74 -183 b 31 -187 38 -175 32 -179 l 22 -254 b 35 -269 21 -261 25 -265 b 121 -278 61 -274 93 -278 b 461 44 267 -278 353 -210 b 590 390 504 146 547 261 b 692 707 633 519 668 625 l 694 724 b 681 733 694 731 690 733 l 607 733 b 590 718 597 733 594 729 b 500 411 565 622 535 519 b 401 133 465 303 432 210 b 394 128 400 129 397 128 b 388 133 392 128 389 129 b 260 413 353 204 310 297 b 136 721 211 528 169 631 z "},"ý":{"ha":717,"x_min":0,"x_max":0,"o":"m 136 721 b 119 733 132 732 129 733 l 38 733 b 25 722 29 733 25 729 b 29 710 25 719 26 715 b 165 385 65 617 111 508 b 332 31 221 261 276 143 b 336 15 335 25 336 19 b 332 0 336 11 335 6 b 122 -186 281 -122 221 -186 b 44 -176 100 -186 74 -183 b 31 -187 38 -175 32 -179 l 22 -254 b 35 -269 21 -261 25 -265 b 121 -278 61 -274 93 -278 b 461 44 267 -278 353 -210 b 590 390 504 146 547 261 b 692 707 633 519 668 625 l 694 724 b 681 733 694 731 690 733 l 607 733 b 590 718 597 733 594 729 b 500 411 565 622 535 519 b 401 133 465 303 432 210 b 394 128 400 129 397 128 b 388 133 392 128 389 129 b 260 413 353 204 310 297 b 136 721 211 528 169 631 z m 317 853 b 328 836 313 843 317 836 l 379 836 b 396 846 386 836 392 839 l 538 1069 b 529 1086 544 1079 540 1086 l 442 1086 b 426 1076 435 1086 429 1083 z "},"ŷ":{"ha":717,"x_min":0,"x_max":0,"o":"m 136 721 b 119 733 132 732 129 733 l 38 733 b 25 722 29 733 25 729 b 29 710 25 719 26 715 b 165 385 65 617 111 508 b 332 31 221 261 276 143 b 336 15 335 25 336 19 b 332 0 336 11 335 6 b 122 -186 281 -122 221 -186 b 44 -176 100 -186 74 -183 b 31 -187 38 -175 32 -179 l 22 -254 b 35 -269 21 -261 25 -265 b 121 -278 61 -274 93 -278 b 461 44 267 -278 353 -210 b 590 390 504 146 547 261 b 692 707 633 519 668 625 l 694 724 b 681 733 694 731 690 733 l 607 733 b 590 718 597 733 594 729 b 500 411 565 622 535 519 b 401 133 465 303 432 210 b 394 128 400 129 397 128 b 388 133 392 128 389 129 b 260 413 353 204 310 297 b 136 721 211 528 169 631 z m 442 1071 b 417 1086 435 1082 429 1086 l 317 1086 b 292 1071 307 1086 299 1082 l 131 851 b 136 836 125 844 129 836 l 200 836 b 224 847 211 836 218 842 l 356 1007 b 368 1014 360 1011 364 1014 b 379 1007 372 1014 376 1011 l 511 847 b 533 836 517 840 524 836 l 597 836 b 607 844 603 836 607 840 b 604 851 607 849 604 850 z "},"ÿ":{"ha":717,"x_min":0,"x_max":0,"o":"m 136 721 b 119 733 132 732 129 733 l 38 733 b 25 722 29 733 25 729 b 29 710 25 719 26 715 b 165 385 65 617 111 508 b 332 31 221 261 276 143 b 336 15 335 25 336 19 b 332 0 336 11 335 6 b 122 -186 281 -122 221 -186 b 44 -176 100 -186 74 -183 b 31 -187 38 -175 32 -179 l 22 -254 b 35 -269 21 -261 25 -265 b 121 -278 61 -274 93 -278 b 461 44 267 -278 353 -210 b 590 390 504 146 547 261 b 692 707 633 519 668 625 l 694 724 b 681 733 694 731 690 733 l 607 733 b 590 718 597 733 594 729 b 500 411 565 622 535 519 b 401 133 465 303 432 210 b 394 128 400 129 397 128 b 388 133 392 128 389 129 b 260 413 353 204 310 297 b 136 721 211 528 169 631 z m 154 972 b 231 897 154 929 186 897 b 307 972 275 897 307 929 b 231 1047 307 1015 275 1047 b 154 972 186 1047 154 1015 z m 431 972 b 507 897 431 929 463 897 b 583 972 551 897 583 929 b 507 1047 583 1015 551 1047 b 431 972 463 1047 431 1015 z "},"ỳ":{"ha":717,"x_min":0,"x_max":0,"o":"m 136 721 b 119 733 132 732 129 733 l 38 733 b 25 722 29 733 25 729 b 29 710 25 719 26 715 b 165 385 65 617 111 508 b 332 31 221 261 276 143 b 336 15 335 25 336 19 b 332 0 336 11 335 6 b 122 -186 281 -122 221 -186 b 44 -176 100 -186 74 -183 b 31 -187 38 -175 32 -179 l 22 -254 b 35 -269 21 -261 25 -265 b 121 -278 61 -274 93 -278 b 461 44 267 -278 353 -210 b 590 390 504 146 547 261 b 692 707 633 519 668 625 l 694 724 b 681 733 694 731 690 733 l 607 733 b 590 718 597 733 594 729 b 500 411 565 622 535 519 b 401 133 465 303 432 210 b 394 128 400 129 397 128 b 388 133 392 128 389 129 b 260 413 353 204 310 297 b 136 721 211 528 169 631 z m 336 846 b 353 836 340 839 346 836 l 406 836 b 418 846 413 836 418 840 b 417 853 418 849 418 851 l 307 1076 b 292 1086 304 1083 299 1086 l 204 1086 b 193 1078 197 1086 193 1083 b 196 1069 193 1074 194 1071 z "},"z":{"ha":685,"x_min":0,"x_max":0,"o":"m 60 14 b 74 0 60 7 67 0 l 611 0 b 628 14 621 0 626 4 l 635 76 b 621 89 635 85 631 89 l 188 89 b 179 94 182 89 179 90 b 185 107 179 99 181 103 b 353 321 203 132 260 203 b 599 625 447 439 529 540 b 611 653 610 636 611 642 l 611 719 b 597 733 611 729 607 733 l 111 733 b 94 719 100 733 96 729 l 88 660 b 101 646 88 650 92 646 l 469 646 b 483 639 479 646 483 644 b 471 614 483 632 481 625 b 251 340 417 549 344 457 b 74 114 158 224 100 149 b 60 85 64 103 60 94 l 60 14 z "},"ź":{"ha":685,"x_min":0,"x_max":0,"o":"m 60 14 b 74 0 60 7 67 0 l 611 0 b 628 14 621 0 626 4 l 635 76 b 621 89 635 85 631 89 l 188 89 b 179 94 182 89 179 90 b 185 107 179 99 181 103 b 353 321 203 132 260 203 b 599 625 447 439 529 540 b 611 653 610 636 611 642 l 611 719 b 597 733 611 729 607 733 l 111 733 b 94 719 100 733 96 729 l 88 660 b 101 646 88 650 92 646 l 469 646 b 483 639 479 646 483 644 b 471 614 483 632 481 625 b 251 340 417 549 344 457 b 74 114 158 224 100 149 b 60 85 64 103 60 94 z m 304 853 b 315 836 300 843 304 836 l 367 836 b 383 846 374 836 379 839 l 525 1069 b 517 1086 532 1079 528 1086 l 429 1086 b 414 1076 422 1086 417 1083 z "},"ž":{"ha":685,"x_min":0,"x_max":0,"o":"m 60 14 b 74 0 60 7 67 0 l 611 0 b 628 14 621 0 626 4 l 635 76 b 621 89 635 85 631 89 l 188 89 b 179 94 182 89 179 90 b 185 107 179 99 181 103 b 353 321 203 132 260 203 b 599 625 447 439 529 540 b 611 653 610 636 611 642 l 611 719 b 597 733 611 729 607 733 l 111 733 b 94 719 100 733 96 729 l 88 660 b 101 646 88 650 92 646 l 469 646 b 483 639 479 646 483 644 b 471 614 483 632 481 625 b 251 340 417 549 344 457 b 74 114 158 224 100 149 b 60 85 64 103 60 94 z m 281 851 b 306 836 290 840 294 836 l 406 836 b 431 851 417 836 424 840 l 593 1071 b 586 1086 599 1078 596 1086 l 522 1086 b 500 1075 513 1086 506 1082 l 368 915 b 357 910 365 911 361 910 b 344 915 353 910 349 911 l 213 1075 b 189 1086 207 1081 200 1086 l 125 1086 b 117 1078 119 1086 117 1082 l 119 1071 z "},"ż":{"ha":685,"x_min":0,"x_max":0,"o":"m 60 14 b 74 0 60 7 67 0 l 611 0 b 628 14 621 0 626 4 l 635 76 b 621 89 635 85 631 89 l 188 89 b 179 94 182 89 179 90 b 185 107 179 99 181 103 b 353 321 203 132 260 203 b 599 625 447 439 529 540 b 611 653 610 636 611 642 l 611 719 b 597 733 611 729 607 733 l 111 733 b 94 719 100 733 96 729 l 88 660 b 101 646 88 650 92 646 l 469 646 b 483 639 479 646 483 644 b 471 614 483 632 481 625 b 251 340 417 549 344 457 b 74 114 158 224 100 149 b 60 85 64 103 60 94 z m 276 969 b 356 890 276 925 310 890 b 436 969 401 890 436 925 b 356 1050 436 1018 404 1050 b 276 969 310 1050 276 1015 z "},"ﬀ":{"ha":938,"x_min":0,"x_max":0,"o":"m 629 742 b 621 733 629 736 626 733 l 293 733 b 285 742 288 733 285 736 l 285 754 b 446 961 285 903 326 961 b 504 954 468 961 488 958 b 519 963 514 953 518 956 l 529 1026 b 519 1039 529 1033 526 1038 b 442 1047 500 1044 474 1047 b 242 967 346 1047 279 1021 b 185 768 204 914 185 847 l 185 742 b 176 733 185 736 182 733 l 51 733 b 36 719 44 733 38 729 l 29 660 b 43 646 29 653 36 646 l 176 646 b 185 638 182 646 185 643 l 185 14 b 199 0 185 7 192 0 l 271 0 b 285 14 281 0 285 7 l 285 638 b 293 646 285 642 288 646 l 621 646 b 629 638 626 646 629 643 l 629 14 b 643 0 629 7 636 0 l 717 0 b 731 14 726 0 731 7 l 731 638 b 739 646 731 642 733 646 l 914 646 b 929 658 924 646 928 650 l 936 719 b 924 733 936 726 931 733 l 739 733 b 731 742 733 733 731 736 l 731 754 b 892 961 731 903 772 961 b 950 954 914 961 933 958 b 965 963 958 953 964 956 l 974 1026 b 965 1039 975 1033 972 1038 b 888 1047 944 1044 919 1047 b 686 967 792 1047 725 1021 b 629 768 649 914 629 847 l 629 742 z "},"ﬃ":{"ha":1318,"x_min":0,"x_max":0,"o":"m 1051 978 b 1132 896 1051 926 1083 896 b 1210 978 1176 896 1210 932 b 1132 1057 1210 1028 1178 1057 b 1051 978 1086 1057 1051 1022 z m 717 0 b 731 14 726 0 731 7 l 731 638 b 739 646 731 642 733 646 l 1061 646 b 1072 635 1071 646 1072 644 b 1061 381 1068 553 1064 468 b 1057 197 1058 294 1057 233 b 1199 -12 1057 61 1079 -12 b 1271 -3 1233 -12 1250 -10 b 1282 11 1278 0 1281 4 l 1290 74 b 1282 83 1292 81 1289 83 l 1279 83 b 1235 78 1264 79 1250 78 b 1161 207 1169 78 1161 108 b 1165 431 1161 258 1163 333 l 1176 717 b 1160 733 1176 728 1172 733 l 739 733 b 731 742 733 733 731 736 l 731 754 b 886 961 731 903 772 961 b 936 956 903 961 919 960 b 953 964 946 954 951 957 l 961 1026 b 953 1040 963 1033 960 1039 b 882 1047 932 1044 908 1047 b 686 967 789 1047 724 1021 b 629 768 649 914 629 847 l 629 742 b 621 733 629 736 626 733 l 293 733 b 285 742 288 733 285 736 l 285 754 b 446 961 285 903 326 961 b 504 954 468 961 488 958 b 519 963 514 953 518 956 l 529 1026 b 519 1039 529 1033 526 1038 b 442 1047 500 1044 474 1047 b 242 967 346 1047 279 1021 b 185 768 204 914 185 847 l 185 742 b 176 733 185 736 182 733 l 51 733 b 36 719 44 733 38 729 l 29 660 b 43 646 29 653 36 646 l 176 646 b 185 638 182 646 185 643 l 185 14 b 199 0 185 7 192 0 l 271 0 b 285 14 281 0 285 7 l 285 638 b 293 646 285 642 288 646 l 621 646 b 629 638 626 646 629 643 l 629 14 b 643 0 629 7 636 0 z "},"ﬄ":{"ha":1336,"x_min":0,"x_max":0,"o":"m 629 742 b 621 733 629 736 626 733 l 293 733 b 285 742 288 733 285 736 l 285 754 b 446 961 285 903 326 961 b 504 954 468 961 488 958 b 519 963 514 953 518 956 l 529 1026 b 519 1039 529 1033 526 1038 b 442 1047 500 1044 474 1047 b 242 967 346 1047 279 1021 b 185 768 204 914 185 847 l 185 742 b 176 733 185 736 182 733 l 51 733 b 36 719 44 733 38 729 l 29 660 b 43 646 29 653 36 646 l 176 646 b 185 638 182 646 185 643 l 185 14 b 199 0 185 7 192 0 l 271 0 b 285 14 281 0 285 7 l 285 638 b 293 646 285 642 288 646 l 621 646 b 629 638 626 646 629 643 l 629 14 b 643 0 629 7 636 0 l 717 0 b 731 14 726 0 731 7 l 731 638 b 739 646 731 642 733 646 l 914 646 b 929 658 924 646 928 650 l 936 719 b 924 733 936 726 931 733 l 739 733 b 731 742 733 733 731 736 l 731 754 b 892 961 731 903 772 961 b 950 954 914 961 933 958 b 965 963 958 953 964 956 l 974 1026 b 965 1039 975 1033 972 1038 b 888 1047 944 1044 919 1047 b 686 967 792 1047 725 1021 b 629 768 649 914 629 847 z m 1219 -14 b 1306 -1 1251 -14 1281 -10 b 1318 14 1313 1 1317 7 l 1322 68 b 1313 81 1324 75 1318 81 l 1308 79 b 1254 72 1288 75 1269 72 b 1178 181 1192 72 1178 101 l 1178 1024 b 1164 1038 1178 1033 1174 1038 l 1088 1038 b 1074 1024 1081 1038 1074 1033 l 1074 150 b 1219 -14 1074 43 1114 -14 z "},"ﬁ":{"ha":872,"x_min":0,"x_max":0,"o":"m 765 978 b 686 1057 765 1028 732 1057 b 606 978 640 1057 606 1022 b 686 896 606 926 638 896 b 765 978 732 896 765 932 z m 285 638 b 293 646 285 642 288 646 l 615 646 b 626 635 625 646 626 644 b 617 392 622 553 619 471 b 613 197 614 313 613 249 b 753 -12 613 61 632 -12 b 826 -3 788 -12 808 -8 b 838 11 833 0 836 4 l 846 74 b 836 83 846 81 843 83 l 833 83 b 789 78 818 79 804 78 b 715 207 724 78 715 108 b 732 717 715 308 721 478 b 715 733 732 728 726 733 l 293 733 b 285 742 288 733 285 736 l 285 754 b 440 961 285 903 326 961 b 490 956 458 961 478 960 b 507 964 500 954 506 957 l 515 1026 b 507 1040 517 1035 514 1039 b 436 1047 486 1044 463 1047 b 240 967 343 1047 278 1021 b 185 768 203 914 185 847 l 185 742 b 176 733 185 736 182 733 l 51 733 b 36 719 44 733 38 729 l 29 660 b 43 646 29 653 36 646 l 176 646 b 185 638 182 646 185 643 l 185 14 b 199 0 185 7 192 0 l 271 0 b 285 14 281 0 285 7 z "},"ﬂ":{"ha":890,"x_min":0,"x_max":0,"o":"m 293 733 b 285 742 288 733 285 736 l 285 754 b 446 961 285 903 326 961 b 504 954 468 961 488 958 b 519 963 514 953 518 956 l 529 1026 b 519 1039 529 1033 526 1038 b 442 1047 500 1044 474 1047 b 242 967 346 1047 279 1021 b 185 768 204 914 185 847 l 185 742 b 176 733 185 736 182 733 l 51 733 b 36 719 44 733 38 729 l 29 660 b 43 646 29 653 36 646 l 176 646 b 185 638 182 646 185 643 l 185 14 b 199 0 185 7 192 0 l 271 0 b 285 14 281 0 285 7 l 285 638 b 293 646 285 642 288 646 l 469 646 b 483 658 478 646 482 650 l 490 719 b 478 733 492 726 488 733 z m 774 -14 b 860 -1 808 -14 836 -10 b 872 14 867 0 871 4 l 876 68 b 868 81 878 75 874 81 l 864 79 b 810 72 840 75 822 72 b 732 181 746 72 732 101 l 732 1024 b 718 1038 732 1033 728 1038 l 643 1038 b 629 1024 636 1038 629 1033 l 629 150 b 774 -14 629 43 669 -14 z "},"ª":{"ha":557,"x_min":0,"x_max":0,"o":"m 496 615 b 457 681 463 615 457 628 b 467 989 457 754 461 878 b 451 1008 467 999 463 1004 b 299 1038 406 1029 360 1038 b 42 751 126 1038 42 908 b 189 550 42 624 93 550 b 383 721 282 550 351 622 b 390 719 385 728 390 725 b 385 644 386 696 385 671 b 457 551 385 583 406 551 b 499 557 475 551 489 553 b 511 569 504 558 510 563 l 515 604 b 506 615 517 611 511 615 z m 378 956 b 386 939 385 951 386 946 b 207 619 378 771 293 619 b 119 751 146 619 119 674 b 290 971 119 881 186 971 b 378 956 331 971 360 965 z "},"º":{"ha":540,"x_min":0,"x_max":0,"o":"m 499 793 b 269 1038 499 939 413 1038 b 42 793 126 1038 42 939 b 269 550 42 651 128 550 b 499 793 413 550 499 651 z m 418 793 b 269 619 418 692 365 619 b 122 793 174 619 122 692 b 269 968 122 897 174 968 b 418 793 368 968 418 897 z "},"Δ":{"ha":850,"x_min":0,"x_max":0,"o":"m 17 15 b 28 0 13 6 18 0 l 821 0 b 833 10 828 0 833 4 l 832 15 l 503 933 b 486 944 500 940 494 944 l 368 944 b 353 933 361 944 356 940 z m 150 104 l 418 832 b 432 832 422 842 431 842 l 696 103 b 685 88 700 93 694 88 l 161 89 b 149 99 154 89 149 93 z "},"Ω":{"ha":1096,"x_min":0,"x_max":0,"o":"m 203 492 b 547 869 203 686 313 869 b 893 492 783 869 893 686 b 647 103 893 303 818 163 b 635 85 639 100 635 94 l 635 14 b 649 0 635 7 642 0 l 994 0 b 1008 14 1004 0 1008 7 l 1008 79 b 994 93 1008 89 1004 93 l 804 93 b 796 100 799 93 796 96 b 801 108 796 103 797 106 b 1001 490 924 165 1001 301 b 547 961 1001 754 833 961 b 94 490 263 961 94 754 b 294 108 94 301 172 165 b 292 93 304 103 301 93 l 101 93 b 88 79 94 93 88 89 l 88 14 b 101 0 88 7 94 0 l 446 0 b 461 14 456 0 461 4 l 461 85 b 449 103 461 94 457 100 b 203 492 278 163 203 303 z "},"μ":{"ha":863,"x_min":0,"x_max":0,"o":"m 240 28 b 349 -17 265 -1 301 -17 b 524 68 421 -17 479 11 b 624 278 568 125 601 194 b 631 276 625 285 631 286 l 628 156 b 747 -12 624 50 657 -12 b 815 -4 778 -12 800 -10 b 828 11 822 -1 826 4 l 832 57 b 819 69 832 68 829 69 l 796 69 b 728 185 731 75 729 93 l 728 722 b 714 736 728 732 724 736 l 638 731 b 625 717 629 731 625 726 l 625 589 b 618 482 625 554 622 519 b 354 72 597 294 483 67 b 231 313 258 72 231 157 l 231 722 b 218 736 231 729 225 736 l 215 736 l 140 731 b 128 715 132 729 128 725 l 128 -264 b 142 -278 128 -274 135 -278 l 217 -278 b 231 -264 226 -278 231 -274 l 231 25 b 240 28 231 32 235 35 z "},"π":{"ha":865,"x_min":0,"x_max":0,"o":"m 586 156 b 722 -12 586 46 621 -12 b 790 -4 750 -12 768 -11 b 804 13 800 0 803 3 l 808 63 b 800 75 808 71 806 75 l 796 74 b 760 71 778 72 765 71 b 689 183 699 71 689 103 l 689 638 b 697 646 689 643 692 646 l 790 646 b 804 660 800 646 803 650 l 813 719 b 799 733 814 729 808 733 l 53 733 b 39 719 43 733 40 729 l 32 660 b 46 646 31 650 36 646 l 142 646 b 150 638 147 646 150 643 l 150 14 b 164 0 150 4 154 0 l 240 0 b 254 14 250 0 254 4 l 254 638 b 263 646 254 643 257 646 l 578 646 b 586 638 583 646 586 643 l 586 156 z "},"₀":{"ha":549,"x_min":0,"x_max":0,"o":"m 494 44 b 276 329 494 225 414 329 b 56 44 139 329 56 224 b 276 -242 56 -137 136 -242 b 494 44 411 -242 494 -137 z m 139 44 b 275 258 139 182 186 258 b 411 44 364 258 411 182 b 275 -171 411 -94 364 -171 b 139 44 186 -171 139 -94 z "},"₁":{"ha":386,"x_min":0,"x_max":0,"o":"m 207 319 b 186 315 199 319 192 318 l 49 250 b 39 238 42 249 39 244 b 40 231 39 235 39 232 l 57 192 b 69 183 60 186 64 183 b 76 185 72 183 75 183 l 186 235 b 197 228 193 238 197 235 l 197 -218 b 211 -232 197 -225 204 -232 l 265 -232 b 279 -218 275 -232 279 -225 l 279 306 b 265 319 279 315 275 319 l 207 319 z "},"₂":{"ha":475,"x_min":0,"x_max":0,"o":"m 57 -219 b 69 -232 58 -228 63 -232 l 404 -232 b 418 -221 414 -232 417 -228 l 425 -172 b 414 -158 426 -162 421 -158 l 172 -158 b 168 -144 161 -158 161 -151 b 413 168 351 1 413 74 b 221 329 413 274 336 329 b 85 307 175 329 129 322 b 74 294 78 306 74 301 l 75 289 l 83 244 b 93 236 85 239 89 236 b 100 238 96 236 99 236 b 217 258 149 253 178 258 b 329 163 285 258 329 224 b 225 -8 329 108 299 60 b 58 -153 188 -43 132 -92 b 50 -171 53 -157 50 -162 l 50 -175 l 57 -219 z "},"₃":{"ha":463,"x_min":0,"x_max":0,"o":"m 288 51 b 288 60 282 53 282 58 b 393 188 360 81 393 122 b 206 329 393 283 321 329 b 67 307 156 329 101 319 b 57 294 60 306 57 301 l 57 289 l 60 250 b 72 239 63 243 67 239 l 78 240 b 196 258 111 247 158 258 b 310 179 272 258 310 233 b 143 85 310 119 256 85 b 129 71 136 85 129 81 l 129 33 b 143 19 129 26 136 19 b 324 -74 265 19 324 -11 b 154 -171 324 -135 267 -171 b 60 -161 125 -171 93 -168 b 46 -171 53 -160 46 -164 l 46 -174 l 50 -217 b 64 -233 51 -226 57 -232 b 164 -242 99 -240 126 -242 b 407 -76 308 -242 407 -178 b 288 51 407 -14 372 33 z "},"₄":{"ha":525,"x_min":0,"x_max":0,"o":"m 321 -218 b 335 -232 321 -225 328 -232 l 385 -232 b 399 -218 394 -232 399 -225 l 399 -108 b 407 -100 399 -103 401 -100 l 468 -100 b 481 -90 475 -100 479 -97 l 489 -42 b 478 -29 490 -35 485 -29 l 407 -29 b 399 -21 401 -29 399 -26 l 399 138 b 385 151 399 147 394 151 l 335 151 b 321 138 328 151 321 147 l 321 -21 b 313 -29 321 -26 318 -29 l 135 -29 b 129 -17 128 -29 125 -24 b 329 283 151 19 218 119 b 324 303 335 290 333 299 l 283 324 b 263 318 276 328 267 325 l 151 151 b 47 -10 111 92 76 38 b 42 -26 43 -17 42 -22 l 42 -31 l 50 -90 b 63 -100 51 -97 56 -100 l 313 -100 b 321 -108 318 -100 321 -103 l 321 -218 z "},"₅":{"ha":469,"x_min":0,"x_max":0,"o":"m 74 -236 b 146 -242 93 -240 117 -242 b 415 -54 308 -242 415 -182 b 214 104 415 61 315 104 b 160 101 194 104 176 103 b 153 111 154 101 151 104 l 167 238 b 176 246 168 244 171 246 l 385 246 b 400 258 394 246 399 250 l 404 306 b 392 319 406 313 401 319 l 117 319 b 101 306 110 319 103 315 l 72 43 b 86 29 71 36 76 29 l 89 29 b 192 36 121 33 154 36 b 332 -61 285 36 332 4 b 149 -169 332 -135 269 -169 b 71 -162 122 -169 97 -167 b 57 -175 61 -161 57 -165 l 60 -219 b 74 -236 61 -231 64 -235 z "},"₆":{"ha":497,"x_min":0,"x_max":0,"o":"m 54 -32 b 256 -242 54 -164 122 -242 b 454 -51 367 -242 454 -169 b 278 122 454 56 382 122 b 163 82 235 122 194 108 b 156 85 158 81 156 81 b 161 99 156 89 160 93 b 365 269 193 164 267 221 b 368 286 372 274 372 281 l 331 328 b 315 329 326 332 322 332 b 54 -32 165 257 54 122 z m 371 -56 b 257 -171 371 -122 325 -171 b 138 -46 175 -171 138 -118 b 258 56 138 14 197 56 b 371 -56 326 56 371 15 z "},"₇":{"ha":446,"x_min":0,"x_max":0,"o":"m 411 242 b 417 263 415 246 417 253 l 417 306 b 403 319 417 315 413 319 l 53 319 b 39 306 46 319 39 315 l 39 260 b 53 246 39 253 46 246 l 319 246 b 325 235 326 246 329 242 l 207 3 b 103 -215 165 -82 131 -156 b 111 -232 97 -225 101 -232 l 168 -232 b 188 -221 178 -232 183 -228 b 297 8 215 -161 251 -85 l 390 200 l 411 242 z "},"₈":{"ha":519,"x_min":0,"x_max":0,"o":"m 56 -92 b 260 -242 56 -192 138 -242 b 464 -92 378 -242 464 -190 b 347 51 464 -29 431 19 b 347 64 340 53 340 60 b 446 189 410 88 446 128 b 260 329 446 283 360 329 b 74 189 153 329 74 282 b 174 61 74 131 107 88 b 172 49 179 57 179 50 b 56 -92 94 24 56 -24 z m 271 86 b 249 86 264 85 258 85 b 156 182 188 103 156 138 b 260 260 156 228 194 260 b 365 182 325 260 365 228 b 271 86 365 140 333 108 z m 382 -85 b 260 -171 382 -139 338 -171 b 139 -85 182 -171 139 -140 b 249 19 139 -40 178 -3 l 260 22 b 271 19 264 22 267 21 b 382 -85 344 -7 382 -39 z "},"₉":{"ha":497,"x_min":0,"x_max":0,"o":"m 443 121 b 242 329 443 250 375 329 b 43 139 131 329 43 257 b 219 -33 43 33 115 -33 b 335 6 263 -33 303 -18 b 342 4 339 7 342 8 b 336 -10 342 3 340 -3 b 132 -182 304 -76 231 -133 b 129 -197 125 -186 125 -193 l 167 -239 b 182 -242 171 -243 175 -244 b 443 121 332 -169 443 -35 z m 126 143 b 240 260 126 211 172 260 b 360 135 322 260 360 207 b 239 32 360 75 300 32 b 126 143 171 32 126 72 z "},"⁰":{"ha":549,"x_min":0,"x_max":0,"o":"m 494 988 b 276 1272 494 1168 414 1272 b 56 988 139 1272 56 1167 b 276 701 56 806 136 701 b 494 988 411 701 494 806 z m 139 988 b 275 1201 139 1125 186 1201 b 411 988 364 1201 411 1125 b 275 772 411 849 364 772 b 139 988 186 772 139 849 z "},"¹":{"ha":386,"x_min":0,"x_max":0,"o":"m 207 1263 b 186 1258 199 1263 192 1261 l 49 1193 b 39 1181 42 1192 39 1188 b 40 1174 39 1178 39 1175 l 57 1135 b 69 1126 60 1129 64 1126 b 76 1128 72 1126 75 1126 l 186 1178 b 197 1171 193 1181 197 1178 l 197 725 b 211 711 197 718 204 711 l 265 711 b 279 725 275 711 279 718 l 279 1249 b 265 1263 279 1258 275 1263 l 207 1263 z "},"²":{"ha":475,"x_min":0,"x_max":0,"o":"m 57 724 b 69 711 58 715 63 711 l 404 711 b 418 722 414 711 417 715 l 425 771 b 414 785 426 781 421 785 l 172 785 b 168 799 161 785 161 792 b 413 1111 351 944 413 1017 b 221 1272 413 1217 336 1272 b 85 1250 175 1272 129 1265 b 74 1238 78 1249 74 1244 l 75 1232 l 83 1188 b 93 1179 85 1182 89 1179 b 100 1181 96 1179 99 1179 b 217 1201 149 1196 178 1201 b 329 1106 285 1201 329 1167 b 225 933 329 1051 299 1004 b 58 790 188 899 132 851 b 50 772 53 786 50 781 l 50 768 l 57 724 z "},"³":{"ha":463,"x_min":0,"x_max":0,"o":"m 288 994 b 288 1003 282 996 282 1001 b 393 1131 360 1024 393 1065 b 206 1272 393 1226 321 1272 b 67 1250 156 1272 101 1263 b 57 1238 60 1249 57 1244 l 57 1232 l 60 1193 b 72 1182 63 1186 67 1182 l 78 1183 b 196 1201 111 1190 158 1201 b 310 1122 272 1201 310 1176 b 143 1028 310 1063 256 1028 b 129 1014 136 1028 129 1024 l 129 976 b 143 963 129 969 136 963 b 324 869 265 963 324 932 b 154 772 324 808 267 772 b 60 782 125 772 93 775 b 46 772 53 783 46 779 l 46 769 l 50 726 b 64 710 51 717 57 711 b 164 701 99 703 126 701 b 407 867 308 701 407 765 b 288 994 407 929 372 976 z "},"⁴":{"ha":525,"x_min":0,"x_max":0,"o":"m 321 725 b 335 711 321 718 328 711 l 385 711 b 399 725 394 711 399 718 l 399 835 b 407 843 399 840 401 843 l 468 843 b 481 853 475 843 479 846 l 489 901 b 478 914 490 908 485 914 l 407 914 b 399 922 401 914 399 917 l 399 1081 b 385 1094 399 1090 394 1094 l 335 1094 b 321 1081 328 1094 321 1090 l 321 922 b 313 914 321 917 318 914 l 135 914 b 129 926 128 914 125 919 b 329 1226 151 963 218 1063 b 324 1246 335 1233 333 1242 l 283 1267 b 263 1261 276 1271 267 1268 l 151 1094 b 47 933 111 1035 76 981 b 42 917 43 926 42 921 l 42 913 l 50 853 b 63 843 51 846 56 843 l 313 843 b 321 835 318 843 321 840 l 321 725 z "},"⁵":{"ha":469,"x_min":0,"x_max":0,"o":"m 74 707 b 146 701 93 703 117 701 b 415 889 308 701 415 761 b 214 1047 415 1004 315 1047 b 160 1044 194 1047 176 1046 b 153 1054 154 1044 151 1047 l 167 1181 b 176 1189 168 1188 171 1189 l 385 1189 b 400 1201 394 1189 399 1193 l 404 1249 b 392 1263 406 1256 401 1263 l 117 1263 b 101 1249 110 1263 103 1258 l 72 986 b 86 972 71 979 76 972 l 89 972 b 192 979 121 976 154 979 b 332 882 285 979 332 947 b 149 774 332 808 269 774 b 71 781 122 774 97 776 b 57 768 61 782 57 778 l 60 724 b 74 707 61 713 64 708 z "},"⁶":{"ha":497,"x_min":0,"x_max":0,"o":"m 54 911 b 256 701 54 779 122 701 b 454 892 367 701 454 774 b 278 1065 454 999 382 1065 b 163 1025 235 1065 194 1051 b 156 1028 158 1024 156 1024 b 161 1042 156 1032 160 1036 b 365 1213 193 1107 267 1164 b 368 1229 372 1217 372 1224 l 331 1271 b 315 1272 326 1275 322 1275 b 54 911 165 1200 54 1065 z m 371 888 b 257 772 371 821 325 772 b 138 897 175 772 138 825 b 258 999 138 957 197 999 b 371 888 326 999 371 958 z "},"⁷":{"ha":446,"x_min":0,"x_max":0,"o":"m 411 1185 b 417 1206 415 1189 417 1196 l 417 1249 b 403 1263 417 1258 413 1263 l 53 1263 b 39 1249 46 1263 39 1258 l 39 1203 b 53 1189 39 1196 46 1189 l 319 1189 b 325 1178 326 1189 329 1185 l 207 946 b 103 728 165 861 131 788 b 111 711 97 718 101 711 l 168 711 b 188 722 178 711 183 715 b 297 951 215 782 251 858 l 390 1143 l 411 1185 z "},"⁸":{"ha":519,"x_min":0,"x_max":0,"o":"m 56 851 b 260 701 56 751 138 701 b 464 851 378 701 464 753 b 347 994 464 914 431 963 b 347 1007 340 996 340 1003 b 446 1132 410 1031 446 1071 b 260 1272 446 1226 360 1272 b 74 1132 153 1272 74 1225 b 174 1004 74 1074 107 1031 b 172 992 179 1000 179 993 b 56 851 94 967 56 919 z m 271 1029 b 249 1029 264 1028 258 1028 b 156 1125 188 1046 156 1081 b 260 1203 156 1171 194 1203 b 365 1125 325 1203 365 1171 b 271 1029 365 1083 333 1051 z m 382 858 b 260 772 382 804 338 772 b 139 858 182 772 139 803 b 249 963 139 903 178 940 l 260 965 b 271 963 264 965 267 964 b 382 858 344 936 382 904 z "},"⁹":{"ha":497,"x_min":0,"x_max":0,"o":"m 443 1064 b 242 1272 443 1193 375 1272 b 43 1082 131 1272 43 1200 b 219 910 43 976 115 910 b 335 949 263 910 303 925 b 342 947 339 950 342 951 b 336 933 342 946 340 940 b 132 761 304 867 231 810 b 129 746 125 757 125 750 l 167 704 b 182 701 171 700 175 699 b 443 1064 332 774 443 908 z m 126 1086 b 240 1203 126 1154 172 1203 b 360 1078 322 1203 360 1150 b 239 975 360 1018 300 975 b 126 1086 171 975 126 1015 z "},"⁄":{"ha":204,"x_min":0,"x_max":0,"o":"m 413 926 b 407 944 418 936 417 944 l 353 944 b 335 933 344 944 339 940 l -210 18 b -204 0 -215 8 -214 0 l -149 0 b -131 11 -139 0 -135 6 l 413 926 z "},"½":{"ha":1083,"x_min":0,"x_max":0,"o":"m 207 944 b 186 940 199 944 192 943 l 49 875 b 39 863 42 874 39 869 b 40 856 39 860 39 857 l 57 817 b 69 808 60 811 64 808 b 76 810 72 808 75 808 l 186 860 b 197 853 193 863 197 860 l 197 407 b 211 393 197 400 204 393 l 265 393 b 279 407 275 393 279 400 l 279 931 b 265 944 279 940 275 944 z m 808 926 b 803 944 814 936 813 944 l 749 944 b 731 933 740 944 735 940 l 186 18 b 192 0 181 8 182 0 l 247 0 b 265 11 257 0 261 6 z m 665 13 b 678 0 667 4 671 0 l 1013 0 b 1026 11 1022 0 1025 4 l 1033 60 b 1022 74 1035 69 1029 74 l 781 74 b 776 88 769 74 769 81 b 1021 400 960 233 1021 306 b 829 561 1021 506 944 561 b 693 539 783 561 738 554 b 682 526 686 538 682 533 l 683 521 l 692 476 b 701 468 693 471 697 468 b 708 469 704 468 707 468 b 825 490 757 485 786 490 b 938 394 893 490 938 456 b 833 222 938 340 907 293 b 667 79 796 188 740 140 b 658 61 661 75 658 69 l 658 57 z "},"¼":{"ha":1056,"x_min":0,"x_max":0,"o":"m 207 944 b 186 940 199 944 192 943 l 49 875 b 39 863 42 874 39 869 b 40 856 39 860 39 857 l 57 817 b 69 808 60 811 64 808 b 76 810 72 808 75 808 l 186 860 b 197 853 193 863 197 860 l 197 407 b 211 393 197 400 204 393 l 265 393 b 279 407 275 393 279 400 l 279 931 b 265 944 279 940 275 944 z m 808 926 b 803 944 814 936 813 944 l 749 944 b 731 933 740 944 735 940 l 186 18 b 192 0 181 8 182 0 l 247 0 b 265 11 257 0 261 6 z m 851 14 b 865 0 851 7 858 0 l 915 0 b 929 14 925 0 929 7 l 929 124 b 938 132 929 129 932 132 l 999 132 b 1011 142 1006 132 1010 135 l 1019 190 b 1008 203 1021 197 1015 203 l 938 203 b 929 211 932 203 929 206 l 929 369 b 915 383 929 379 925 383 l 865 383 b 851 369 858 383 851 379 l 851 211 b 843 203 851 206 849 203 l 665 203 b 660 215 658 203 656 208 b 860 515 682 251 749 351 b 854 535 865 522 864 531 l 814 556 b 793 550 807 560 797 557 l 682 383 b 578 222 642 324 607 269 b 572 206 574 215 572 210 l 572 201 l 581 142 b 593 132 582 135 586 132 l 843 132 b 851 124 849 132 851 129 z "},"¾":{"ha":1122,"x_min":0,"x_max":0,"o":"m 288 676 b 288 685 282 678 282 683 b 393 813 360 706 393 747 b 206 954 393 908 321 954 b 67 932 156 954 101 944 b 57 919 60 931 57 926 l 57 914 l 60 875 b 72 864 63 868 67 864 l 78 865 b 196 883 111 872 158 883 b 310 804 272 883 310 858 b 143 710 310 744 256 710 b 129 696 136 710 129 706 l 129 658 b 143 644 129 651 136 644 b 324 551 265 644 324 614 b 154 454 324 490 267 454 b 60 464 125 454 93 457 b 46 454 53 465 46 461 l 46 451 l 50 408 b 64 392 51 399 57 393 b 164 383 99 385 126 383 b 407 549 308 383 407 447 b 288 676 407 611 372 658 z m 875 926 b 869 944 881 936 879 944 l 815 944 b 797 933 807 944 801 940 l 253 18 b 258 0 247 8 249 0 l 314 0 b 332 11 324 0 328 6 z m 918 14 b 932 0 918 7 925 0 l 982 0 b 996 14 992 0 996 7 l 996 124 b 1004 132 996 129 999 132 l 1065 132 b 1078 142 1072 132 1076 135 l 1086 190 b 1075 203 1088 197 1082 203 l 1004 203 b 996 211 999 203 996 206 l 996 369 b 982 383 996 379 992 383 l 932 383 b 918 369 925 383 918 379 l 918 211 b 910 203 918 206 915 203 l 732 203 b 726 215 725 203 722 208 b 926 515 749 251 815 351 b 921 535 932 522 931 531 l 881 556 b 860 550 874 560 864 557 l 749 383 b 644 222 708 324 674 269 b 639 206 640 215 639 210 l 639 201 l 647 142 b 660 132 649 135 653 132 l 910 132 b 918 124 915 132 918 129 z "},"*":{"ha":599,"x_min":0,"x_max":0,"o":"m 488 913 b 479 911 483 913 481 913 l 339 821 b 329 828 332 817 328 821 l 336 994 b 324 1008 336 1004 332 1008 l 276 1008 b 263 994 269 1008 263 1004 l 269 828 b 260 821 269 821 265 817 l 119 911 b 100 907 114 915 106 913 l 78 867 b 81 849 74 860 75 853 l 232 775 b 232 764 238 774 238 768 l 81 689 b 76 674 75 688 72 679 l 101 631 b 111 625 104 626 107 625 b 119 628 113 625 115 626 l 260 717 b 269 711 267 721 269 718 l 263 543 b 276 529 263 536 269 529 l 324 529 b 336 543 331 529 336 536 l 329 710 b 340 715 329 717 333 719 l 481 626 b 497 631 486 622 493 625 l 524 672 b 519 689 528 679 525 685 l 368 764 b 368 775 363 768 363 774 l 517 847 b 525 860 522 849 525 856 b 524 865 525 863 525 864 l 497 907 b 488 913 496 911 493 913 z "},"\\":{"ha":560,"x_min":0,"x_max":0,"o":"m 500 -151 b 511 -140 506 -151 511 -147 l 510 -136 l 122 999 b 104 1013 118 1008 114 1013 l 60 1013 b 49 1001 54 1013 49 1008 l 50 997 l 438 -137 b 456 -151 442 -147 447 -151 z "},"·":{"ha":375,"x_min":0,"x_max":0,"o":"m 274 396 b 186 483 274 447 238 483 b 101 396 138 483 101 447 b 186 310 101 346 138 310 b 274 396 238 310 274 346 z "},"•":{"ha":493,"x_min":0,"x_max":0,"o":"m 400 471 b 246 629 400 567 333 629 b 93 471 160 629 93 567 b 246 315 93 378 160 315 b 400 471 333 315 400 378 z "},":":{"ha":431,"x_min":0,"x_max":0,"o":"m 301 658 b 214 746 301 710 265 746 b 129 658 165 746 129 710 b 214 572 129 608 165 572 b 301 658 265 572 301 608 z m 301 74 b 214 161 301 125 265 161 b 129 74 165 161 129 125 b 214 -12 129 24 165 -12 b 301 74 265 -12 301 24 z "},",":{"ha":375,"x_min":0,"x_max":0,"o":"m 81 -174 b 93 -190 76 -185 81 -190 l 135 -190 b 163 -172 150 -190 156 -187 b 219 3 175 -139 194 -81 b 271 186 244 86 261 147 b 258 200 272 193 268 200 l 171 200 b 157 186 163 200 158 196 b 125 17 153 150 142 93 b 81 -174 110 -60 94 -124 z "},"…":{"ha":1006,"x_min":0,"x_max":0,"o":"m 274 74 b 186 161 274 125 238 161 b 101 74 138 161 101 125 b 186 -12 101 24 138 -12 b 274 74 238 -12 274 24 z m 589 74 b 501 161 589 125 553 161 b 417 74 453 161 417 125 b 501 -12 417 24 453 -12 b 589 74 553 -12 589 24 z m 904 74 b 817 161 904 125 868 161 b 732 74 768 161 732 125 b 817 -12 732 24 768 -12 b 904 74 868 -12 904 24 z "},"!":{"ha":451,"x_min":0,"x_max":0,"o":"m 185 304 b 199 290 185 297 192 290 l 253 290 b 267 304 263 290 267 297 l 286 931 b 272 944 286 940 282 944 l 179 944 b 165 931 172 944 165 940 z m 143 71 b 225 -12 143 22 176 -12 b 308 71 274 -12 308 22 b 225 154 308 119 274 154 b 143 71 176 154 143 119 z "},"¡":{"ha":451,"x_min":0,"x_max":0,"o":"m 308 663 b 225 746 308 711 274 746 b 143 663 176 746 143 711 b 225 579 143 614 176 579 b 308 663 274 579 308 614 z m 199 443 b 185 429 192 443 185 439 l 165 -197 b 179 -211 165 -207 172 -211 l 272 -211 b 286 -197 282 -211 286 -207 l 267 429 b 253 443 267 439 263 443 z "},"#":{"ha":769,"x_min":0,"x_max":0,"o":"m 118 14 b 129 0 117 4 122 0 l 181 0 b 196 14 188 0 194 4 l 238 258 b 247 265 239 264 242 265 l 440 265 b 446 257 446 265 447 263 l 404 14 b 417 0 403 7 407 0 l 468 0 b 483 14 475 0 482 4 l 525 258 b 535 265 526 264 529 265 l 651 265 b 668 279 661 265 667 269 l 675 322 b 663 336 676 329 672 336 l 547 336 b 540 344 542 336 539 339 l 589 625 b 599 633 590 631 594 633 l 714 633 b 729 647 722 633 728 638 l 738 690 b 725 704 739 697 735 704 l 610 704 b 604 713 606 704 603 707 l 642 931 b 629 944 643 938 639 944 l 578 944 b 563 931 571 944 564 940 l 525 713 b 515 704 524 707 521 704 l 324 704 b 317 713 318 704 315 707 l 354 931 b 343 944 356 940 350 944 l 290 944 b 276 931 283 944 278 940 l 239 713 b 228 704 238 707 235 704 l 111 704 b 96 690 104 704 97 700 l 89 647 b 100 633 88 638 93 633 l 217 633 b 224 625 224 633 225 631 l 175 344 b 165 336 174 339 171 336 l 49 336 b 33 322 42 336 35 332 l 26 279 b 38 265 25 269 31 265 l 153 265 b 160 257 160 265 161 263 z m 260 336 b 253 344 254 336 251 339 l 301 625 b 311 633 303 631 307 633 l 503 633 b 510 625 510 633 511 631 l 461 344 b 451 336 460 339 457 336 z "},".":{"ha":375,"x_min":0,"x_max":0,"o":"m 274 74 b 186 161 274 125 238 161 b 101 74 138 161 101 125 b 186 -12 101 24 138 -12 b 274 74 238 -12 274 24 z "}}}
